<?xml version="1.0" encoding="utf-8" standalone="no"?>
<!DOCTYPE svg PUBLIC "-//W3C//DTD SVG 1.1//EN"
  "http://www.w3.org/Graphics/SVG/1.1/DTD/svg11.dtd">
<!-- Created with matplotlib (https://matplotlib.org/) -->
<svg height="648pt" version="1.1" viewBox="0 0 1152 648" width="1152pt" xmlns="http://www.w3.org/2000/svg" xmlns:xlink="http://www.w3.org/1999/xlink">
 <defs>
  <style type="text/css">
*{stroke-linecap:butt;stroke-linejoin:round;}
  </style>
 </defs>
 <g id="figure_1">
  <g id="patch_1">
   <path d="M 0 648 
L 1152 648 
L 1152 0 
L 0 0 
z
" style="fill:#ffffff;"/>
  </g>
  <g id="axes_1">
   <g id="patch_2">
    <path d="M 144 576.72 
L 549.818182 576.72 
L 549.818182 77.76 
L 144 77.76 
z
" style="fill:#ffffff;"/>
   </g>
   <g id="matplotlib.axis_1">
    <g id="xtick_1">
     <g id="line2d_1">
      <defs>
       <path d="M 0 0 
L 0 3.5 
" id="mdd679e801e" style="stroke:#000000;stroke-width:0.8;"/>
      </defs>
      <g>
       <use style="stroke:#000000;stroke-width:0.8;" x="162.446281" xlink:href="#mdd679e801e" y="576.72"/>
      </g>
     </g>
     <g id="text_1">
      <!-- 0 -->
      <defs>
       <path d="M 31.78125 66.40625 
Q 24.171875 66.40625 20.328125 58.90625 
Q 16.5 51.421875 16.5 36.375 
Q 16.5 21.390625 20.328125 13.890625 
Q 24.171875 6.390625 31.78125 6.390625 
Q 39.453125 6.390625 43.28125 13.890625 
Q 47.125 21.390625 47.125 36.375 
Q 47.125 51.421875 43.28125 58.90625 
Q 39.453125 66.40625 31.78125 66.40625 
z
M 31.78125 74.21875 
Q 44.046875 74.21875 50.515625 64.515625 
Q 56.984375 54.828125 56.984375 36.375 
Q 56.984375 17.96875 50.515625 8.265625 
Q 44.046875 -1.421875 31.78125 -1.421875 
Q 19.53125 -1.421875 13.0625 8.265625 
Q 6.59375 17.96875 6.59375 36.375 
Q 6.59375 54.828125 13.0625 64.515625 
Q 19.53125 74.21875 31.78125 74.21875 
z
" id="DejaVuSans-48"/>
      </defs>
      <g transform="translate(159.265031 591.318438)scale(0.1 -0.1)">
       <use xlink:href="#DejaVuSans-48"/>
      </g>
     </g>
    </g>
    <g id="xtick_2">
     <g id="line2d_2">
      <g>
       <use style="stroke:#000000;stroke-width:0.8;" x="221.950413" xlink:href="#mdd679e801e" y="576.72"/>
      </g>
     </g>
     <g id="text_2">
      <!-- 5 -->
      <defs>
       <path d="M 10.796875 72.90625 
L 49.515625 72.90625 
L 49.515625 64.59375 
L 19.828125 64.59375 
L 19.828125 46.734375 
Q 21.96875 47.46875 24.109375 47.828125 
Q 26.265625 48.1875 28.421875 48.1875 
Q 40.625 48.1875 47.75 41.5 
Q 54.890625 34.8125 54.890625 23.390625 
Q 54.890625 11.625 47.5625 5.09375 
Q 40.234375 -1.421875 26.90625 -1.421875 
Q 22.3125 -1.421875 17.546875 -0.640625 
Q 12.796875 0.140625 7.71875 1.703125 
L 7.71875 11.625 
Q 12.109375 9.234375 16.796875 8.0625 
Q 21.484375 6.890625 26.703125 6.890625 
Q 35.15625 6.890625 40.078125 11.328125 
Q 45.015625 15.765625 45.015625 23.390625 
Q 45.015625 31 40.078125 35.4375 
Q 35.15625 39.890625 26.703125 39.890625 
Q 22.75 39.890625 18.8125 39.015625 
Q 14.890625 38.140625 10.796875 36.28125 
z
" id="DejaVuSans-53"/>
      </defs>
      <g transform="translate(218.769163 591.318438)scale(0.1 -0.1)">
       <use xlink:href="#DejaVuSans-53"/>
      </g>
     </g>
    </g>
    <g id="xtick_3">
     <g id="line2d_3">
      <g>
       <use style="stroke:#000000;stroke-width:0.8;" x="281.454545" xlink:href="#mdd679e801e" y="576.72"/>
      </g>
     </g>
     <g id="text_3">
      <!-- 10 -->
      <defs>
       <path d="M 12.40625 8.296875 
L 28.515625 8.296875 
L 28.515625 63.921875 
L 10.984375 60.40625 
L 10.984375 69.390625 
L 28.421875 72.90625 
L 38.28125 72.90625 
L 38.28125 8.296875 
L 54.390625 8.296875 
L 54.390625 0 
L 12.40625 0 
z
" id="DejaVuSans-49"/>
      </defs>
      <g transform="translate(275.092045 591.318438)scale(0.1 -0.1)">
       <use xlink:href="#DejaVuSans-49"/>
       <use x="63.623047" xlink:href="#DejaVuSans-48"/>
      </g>
     </g>
    </g>
    <g id="xtick_4">
     <g id="line2d_4">
      <g>
       <use style="stroke:#000000;stroke-width:0.8;" x="340.958678" xlink:href="#mdd679e801e" y="576.72"/>
      </g>
     </g>
     <g id="text_4">
      <!-- 15 -->
      <g transform="translate(334.596178 591.318438)scale(0.1 -0.1)">
       <use xlink:href="#DejaVuSans-49"/>
       <use x="63.623047" xlink:href="#DejaVuSans-53"/>
      </g>
     </g>
    </g>
    <g id="xtick_5">
     <g id="line2d_5">
      <g>
       <use style="stroke:#000000;stroke-width:0.8;" x="400.46281" xlink:href="#mdd679e801e" y="576.72"/>
      </g>
     </g>
     <g id="text_5">
      <!-- 20 -->
      <defs>
       <path d="M 19.1875 8.296875 
L 53.609375 8.296875 
L 53.609375 0 
L 7.328125 0 
L 7.328125 8.296875 
Q 12.9375 14.109375 22.625 23.890625 
Q 32.328125 33.6875 34.8125 36.53125 
Q 39.546875 41.84375 41.421875 45.53125 
Q 43.3125 49.21875 43.3125 52.78125 
Q 43.3125 58.59375 39.234375 62.25 
Q 35.15625 65.921875 28.609375 65.921875 
Q 23.96875 65.921875 18.8125 64.3125 
Q 13.671875 62.703125 7.8125 59.421875 
L 7.8125 69.390625 
Q 13.765625 71.78125 18.9375 73 
Q 24.125 74.21875 28.421875 74.21875 
Q 39.75 74.21875 46.484375 68.546875 
Q 53.21875 62.890625 53.21875 53.421875 
Q 53.21875 48.921875 51.53125 44.890625 
Q 49.859375 40.875 45.40625 35.40625 
Q 44.1875 33.984375 37.640625 27.21875 
Q 31.109375 20.453125 19.1875 8.296875 
z
" id="DejaVuSans-50"/>
      </defs>
      <g transform="translate(394.10031 591.318438)scale(0.1 -0.1)">
       <use xlink:href="#DejaVuSans-50"/>
       <use x="63.623047" xlink:href="#DejaVuSans-48"/>
      </g>
     </g>
    </g>
    <g id="xtick_6">
     <g id="line2d_6">
      <g>
       <use style="stroke:#000000;stroke-width:0.8;" x="459.966942" xlink:href="#mdd679e801e" y="576.72"/>
      </g>
     </g>
     <g id="text_6">
      <!-- 25 -->
      <g transform="translate(453.604442 591.318438)scale(0.1 -0.1)">
       <use xlink:href="#DejaVuSans-50"/>
       <use x="63.623047" xlink:href="#DejaVuSans-53"/>
      </g>
     </g>
    </g>
    <g id="xtick_7">
     <g id="line2d_7">
      <g>
       <use style="stroke:#000000;stroke-width:0.8;" x="519.471074" xlink:href="#mdd679e801e" y="576.72"/>
      </g>
     </g>
     <g id="text_7">
      <!-- 30 -->
      <defs>
       <path d="M 40.578125 39.3125 
Q 47.65625 37.796875 51.625 33 
Q 55.609375 28.21875 55.609375 21.1875 
Q 55.609375 10.40625 48.1875 4.484375 
Q 40.765625 -1.421875 27.09375 -1.421875 
Q 22.515625 -1.421875 17.65625 -0.515625 
Q 12.796875 0.390625 7.625 2.203125 
L 7.625 11.71875 
Q 11.71875 9.328125 16.59375 8.109375 
Q 21.484375 6.890625 26.8125 6.890625 
Q 36.078125 6.890625 40.9375 10.546875 
Q 45.796875 14.203125 45.796875 21.1875 
Q 45.796875 27.640625 41.28125 31.265625 
Q 36.765625 34.90625 28.71875 34.90625 
L 20.21875 34.90625 
L 20.21875 43.015625 
L 29.109375 43.015625 
Q 36.375 43.015625 40.234375 45.921875 
Q 44.09375 48.828125 44.09375 54.296875 
Q 44.09375 59.90625 40.109375 62.90625 
Q 36.140625 65.921875 28.71875 65.921875 
Q 24.65625 65.921875 20.015625 65.03125 
Q 15.375 64.15625 9.8125 62.3125 
L 9.8125 71.09375 
Q 15.4375 72.65625 20.34375 73.4375 
Q 25.25 74.21875 29.59375 74.21875 
Q 40.828125 74.21875 47.359375 69.109375 
Q 53.90625 64.015625 53.90625 55.328125 
Q 53.90625 49.265625 50.4375 45.09375 
Q 46.96875 40.921875 40.578125 39.3125 
z
" id="DejaVuSans-51"/>
      </defs>
      <g transform="translate(513.108574 591.318438)scale(0.1 -0.1)">
       <use xlink:href="#DejaVuSans-51"/>
       <use x="63.623047" xlink:href="#DejaVuSans-48"/>
      </g>
     </g>
    </g>
    <g id="text_8">
     <!-- Time (~$10^{-14}$s) -->
     <defs>
      <path d="M -0.296875 72.90625 
L 61.375 72.90625 
L 61.375 64.59375 
L 35.5 64.59375 
L 35.5 0 
L 25.59375 0 
L 25.59375 64.59375 
L -0.296875 64.59375 
z
" id="DejaVuSans-84"/>
      <path d="M 9.421875 54.6875 
L 18.40625 54.6875 
L 18.40625 0 
L 9.421875 0 
z
M 9.421875 75.984375 
L 18.40625 75.984375 
L 18.40625 64.59375 
L 9.421875 64.59375 
z
" id="DejaVuSans-105"/>
      <path d="M 52 44.1875 
Q 55.375 50.25 60.0625 53.125 
Q 64.75 56 71.09375 56 
Q 79.640625 56 84.28125 50.015625 
Q 88.921875 44.046875 88.921875 33.015625 
L 88.921875 0 
L 79.890625 0 
L 79.890625 32.71875 
Q 79.890625 40.578125 77.09375 44.375 
Q 74.3125 48.1875 68.609375 48.1875 
Q 61.625 48.1875 57.5625 43.546875 
Q 53.515625 38.921875 53.515625 30.90625 
L 53.515625 0 
L 44.484375 0 
L 44.484375 32.71875 
Q 44.484375 40.625 41.703125 44.40625 
Q 38.921875 48.1875 33.109375 48.1875 
Q 26.21875 48.1875 22.15625 43.53125 
Q 18.109375 38.875 18.109375 30.90625 
L 18.109375 0 
L 9.078125 0 
L 9.078125 54.6875 
L 18.109375 54.6875 
L 18.109375 46.1875 
Q 21.1875 51.21875 25.484375 53.609375 
Q 29.78125 56 35.6875 56 
Q 41.65625 56 45.828125 52.96875 
Q 50 49.953125 52 44.1875 
z
" id="DejaVuSans-109"/>
      <path d="M 56.203125 29.59375 
L 56.203125 25.203125 
L 14.890625 25.203125 
Q 15.484375 15.921875 20.484375 11.0625 
Q 25.484375 6.203125 34.421875 6.203125 
Q 39.59375 6.203125 44.453125 7.46875 
Q 49.3125 8.734375 54.109375 11.28125 
L 54.109375 2.78125 
Q 49.265625 0.734375 44.1875 -0.34375 
Q 39.109375 -1.421875 33.890625 -1.421875 
Q 20.796875 -1.421875 13.15625 6.1875 
Q 5.515625 13.8125 5.515625 26.8125 
Q 5.515625 40.234375 12.765625 48.109375 
Q 20.015625 56 32.328125 56 
Q 43.359375 56 49.78125 48.890625 
Q 56.203125 41.796875 56.203125 29.59375 
z
M 47.21875 32.234375 
Q 47.125 39.59375 43.09375 43.984375 
Q 39.0625 48.390625 32.421875 48.390625 
Q 24.90625 48.390625 20.390625 44.140625 
Q 15.875 39.890625 15.1875 32.171875 
z
" id="DejaVuSans-101"/>
      <path id="DejaVuSans-32"/>
      <path d="M 31 75.875 
Q 24.46875 64.65625 21.28125 53.65625 
Q 18.109375 42.671875 18.109375 31.390625 
Q 18.109375 20.125 21.3125 9.0625 
Q 24.515625 -2 31 -13.1875 
L 23.1875 -13.1875 
Q 15.875 -1.703125 12.234375 9.375 
Q 8.59375 20.453125 8.59375 31.390625 
Q 8.59375 42.28125 12.203125 53.3125 
Q 15.828125 64.359375 23.1875 75.875 
z
" id="DejaVuSans-40"/>
      <path d="M 73.1875 39.890625 
L 73.1875 31.203125 
Q 68.0625 27.34375 63.6875 25.6875 
Q 59.328125 24.03125 54.59375 24.03125 
Q 49.21875 24.03125 42.09375 26.90625 
Q 41.546875 27.09375 41.3125 27.203125 
Q 40.96875 27.34375 40.234375 27.59375 
Q 32.671875 30.609375 28.078125 30.609375 
Q 23.78125 30.609375 19.578125 28.734375 
Q 15.375 26.859375 10.59375 22.796875 
L 10.59375 31.5 
Q 15.71875 35.359375 20.09375 37.03125 
Q 24.46875 38.71875 29.203125 38.71875 
Q 34.578125 38.71875 41.75 35.796875 
Q 42.234375 35.59375 42.484375 35.5 
Q 42.875 35.359375 43.5625 35.109375 
Q 51.125 32.078125 55.71875 32.078125 
Q 59.90625 32.078125 64.03125 33.9375 
Q 68.171875 35.796875 73.1875 39.890625 
z
" id="DejaVuSans-126"/>
      <path d="M 10.59375 35.5 
L 73.1875 35.5 
L 73.1875 27.203125 
L 10.59375 27.203125 
z
" id="DejaVuSans-8722"/>
      <path d="M 37.796875 64.3125 
L 12.890625 25.390625 
L 37.796875 25.390625 
z
M 35.203125 72.90625 
L 47.609375 72.90625 
L 47.609375 25.390625 
L 58.015625 25.390625 
L 58.015625 17.1875 
L 47.609375 17.1875 
L 47.609375 0 
L 37.796875 0 
L 37.796875 17.1875 
L 4.890625 17.1875 
L 4.890625 26.703125 
z
" id="DejaVuSans-52"/>
      <path d="M 44.28125 53.078125 
L 44.28125 44.578125 
Q 40.484375 46.53125 36.375 47.5 
Q 32.28125 48.484375 27.875 48.484375 
Q 21.1875 48.484375 17.84375 46.4375 
Q 14.5 44.390625 14.5 40.28125 
Q 14.5 37.15625 16.890625 35.375 
Q 19.28125 33.59375 26.515625 31.984375 
L 29.59375 31.296875 
Q 39.15625 29.25 43.1875 25.515625 
Q 47.21875 21.78125 47.21875 15.09375 
Q 47.21875 7.46875 41.1875 3.015625 
Q 35.15625 -1.421875 24.609375 -1.421875 
Q 20.21875 -1.421875 15.453125 -0.5625 
Q 10.6875 0.296875 5.421875 2 
L 5.421875 11.28125 
Q 10.40625 8.6875 15.234375 7.390625 
Q 20.0625 6.109375 24.8125 6.109375 
Q 31.15625 6.109375 34.5625 8.28125 
Q 37.984375 10.453125 37.984375 14.40625 
Q 37.984375 18.0625 35.515625 20.015625 
Q 33.0625 21.96875 24.703125 23.78125 
L 21.578125 24.515625 
Q 13.234375 26.265625 9.515625 29.90625 
Q 5.8125 33.546875 5.8125 39.890625 
Q 5.8125 47.609375 11.28125 51.796875 
Q 16.75 56 26.8125 56 
Q 31.78125 56 36.171875 55.265625 
Q 40.578125 54.546875 44.28125 53.078125 
z
" id="DejaVuSans-115"/>
      <path d="M 8.015625 75.875 
L 15.828125 75.875 
Q 23.140625 64.359375 26.78125 53.3125 
Q 30.421875 42.28125 30.421875 31.390625 
Q 30.421875 20.453125 26.78125 9.375 
Q 23.140625 -1.703125 15.828125 -13.1875 
L 8.015625 -13.1875 
Q 14.5 -2 17.703125 9.0625 
Q 20.90625 20.125 20.90625 31.390625 
Q 20.90625 42.671875 17.703125 53.65625 
Q 14.5 64.65625 8.015625 75.875 
z
" id="DejaVuSans-41"/>
     </defs>
     <g transform="translate(308.259091 605.718438)scale(0.1 -0.1)">
      <use transform="translate(0 0.684375)" xlink:href="#DejaVuSans-84"/>
      <use transform="translate(61.083984 0.684375)" xlink:href="#DejaVuSans-105"/>
      <use transform="translate(88.867188 0.684375)" xlink:href="#DejaVuSans-109"/>
      <use transform="translate(186.279297 0.684375)" xlink:href="#DejaVuSans-101"/>
      <use transform="translate(247.802734 0.684375)" xlink:href="#DejaVuSans-32"/>
      <use transform="translate(279.589844 0.684375)" xlink:href="#DejaVuSans-40"/>
      <use transform="translate(318.603516 0.684375)" xlink:href="#DejaVuSans-126"/>
      <use transform="translate(402.392578 0.684375)" xlink:href="#DejaVuSans-49"/>
      <use transform="translate(466.015625 0.684375)" xlink:href="#DejaVuSans-48"/>
      <use transform="translate(530.595703 38.965625)scale(0.7)" xlink:href="#DejaVuSans-8722"/>
      <use transform="translate(589.248047 38.965625)scale(0.7)" xlink:href="#DejaVuSans-49"/>
      <use transform="translate(633.78418 38.965625)scale(0.7)" xlink:href="#DejaVuSans-52"/>
      <use transform="translate(681.054688 0.684375)" xlink:href="#DejaVuSans-115"/>
      <use transform="translate(733.154297 0.684375)" xlink:href="#DejaVuSans-41"/>
     </g>
    </g>
   </g>
   <g id="matplotlib.axis_2">
    <g id="ytick_1">
     <g id="line2d_8">
      <defs>
       <path d="M 0 0 
L -3.5 0 
" id="m69e106ae2f" style="stroke:#000000;stroke-width:0.8;"/>
      </defs>
      <g>
       <use style="stroke:#000000;stroke-width:0.8;" x="144" xlink:href="#m69e106ae2f" y="554.038694"/>
      </g>
     </g>
     <g id="text_9">
      <!-- 0.0 -->
      <defs>
       <path d="M 10.6875 12.40625 
L 21 12.40625 
L 21 0 
L 10.6875 0 
z
" id="DejaVuSans-46"/>
      </defs>
      <g transform="translate(121.096875 557.837913)scale(0.1 -0.1)">
       <use xlink:href="#DejaVuSans-48"/>
       <use x="63.623047" xlink:href="#DejaVuSans-46"/>
       <use x="95.410156" xlink:href="#DejaVuSans-48"/>
      </g>
     </g>
    </g>
    <g id="ytick_2">
     <g id="line2d_9">
      <g>
       <use style="stroke:#000000;stroke-width:0.8;" x="144" xlink:href="#m69e106ae2f" y="486.894533"/>
      </g>
     </g>
     <g id="text_10">
      <!-- 2.5 -->
      <g transform="translate(121.096875 490.693751)scale(0.1 -0.1)">
       <use xlink:href="#DejaVuSans-50"/>
       <use x="63.623047" xlink:href="#DejaVuSans-46"/>
       <use x="95.410156" xlink:href="#DejaVuSans-53"/>
      </g>
     </g>
    </g>
    <g id="ytick_3">
     <g id="line2d_10">
      <g>
       <use style="stroke:#000000;stroke-width:0.8;" x="144" xlink:href="#m69e106ae2f" y="419.750371"/>
      </g>
     </g>
     <g id="text_11">
      <!-- 5.0 -->
      <g transform="translate(121.096875 423.54959)scale(0.1 -0.1)">
       <use xlink:href="#DejaVuSans-53"/>
       <use x="63.623047" xlink:href="#DejaVuSans-46"/>
       <use x="95.410156" xlink:href="#DejaVuSans-48"/>
      </g>
     </g>
    </g>
    <g id="ytick_4">
     <g id="line2d_11">
      <g>
       <use style="stroke:#000000;stroke-width:0.8;" x="144" xlink:href="#m69e106ae2f" y="352.60621"/>
      </g>
     </g>
     <g id="text_12">
      <!-- 7.5 -->
      <defs>
       <path d="M 8.203125 72.90625 
L 55.078125 72.90625 
L 55.078125 68.703125 
L 28.609375 0 
L 18.3125 0 
L 43.21875 64.59375 
L 8.203125 64.59375 
z
" id="DejaVuSans-55"/>
      </defs>
      <g transform="translate(121.096875 356.405429)scale(0.1 -0.1)">
       <use xlink:href="#DejaVuSans-55"/>
       <use x="63.623047" xlink:href="#DejaVuSans-46"/>
       <use x="95.410156" xlink:href="#DejaVuSans-53"/>
      </g>
     </g>
    </g>
    <g id="ytick_5">
     <g id="line2d_12">
      <g>
       <use style="stroke:#000000;stroke-width:0.8;" x="144" xlink:href="#m69e106ae2f" y="285.462048"/>
      </g>
     </g>
     <g id="text_13">
      <!-- 10.0 -->
      <g transform="translate(114.734375 289.261267)scale(0.1 -0.1)">
       <use xlink:href="#DejaVuSans-49"/>
       <use x="63.623047" xlink:href="#DejaVuSans-48"/>
       <use x="127.246094" xlink:href="#DejaVuSans-46"/>
       <use x="159.033203" xlink:href="#DejaVuSans-48"/>
      </g>
     </g>
    </g>
    <g id="ytick_6">
     <g id="line2d_13">
      <g>
       <use style="stroke:#000000;stroke-width:0.8;" x="144" xlink:href="#m69e106ae2f" y="218.317887"/>
      </g>
     </g>
     <g id="text_14">
      <!-- 12.5 -->
      <g transform="translate(114.734375 222.117106)scale(0.1 -0.1)">
       <use xlink:href="#DejaVuSans-49"/>
       <use x="63.623047" xlink:href="#DejaVuSans-50"/>
       <use x="127.246094" xlink:href="#DejaVuSans-46"/>
       <use x="159.033203" xlink:href="#DejaVuSans-53"/>
      </g>
     </g>
    </g>
    <g id="ytick_7">
     <g id="line2d_14">
      <g>
       <use style="stroke:#000000;stroke-width:0.8;" x="144" xlink:href="#m69e106ae2f" y="151.173726"/>
      </g>
     </g>
     <g id="text_15">
      <!-- 15.0 -->
      <g transform="translate(114.734375 154.972944)scale(0.1 -0.1)">
       <use xlink:href="#DejaVuSans-49"/>
       <use x="63.623047" xlink:href="#DejaVuSans-53"/>
       <use x="127.246094" xlink:href="#DejaVuSans-46"/>
       <use x="159.033203" xlink:href="#DejaVuSans-48"/>
      </g>
     </g>
    </g>
    <g id="ytick_8">
     <g id="line2d_15">
      <g>
       <use style="stroke:#000000;stroke-width:0.8;" x="144" xlink:href="#m69e106ae2f" y="84.029564"/>
      </g>
     </g>
     <g id="text_16">
      <!-- 17.5 -->
      <g transform="translate(114.734375 87.828783)scale(0.1 -0.1)">
       <use xlink:href="#DejaVuSans-49"/>
       <use x="63.623047" xlink:href="#DejaVuSans-55"/>
       <use x="127.246094" xlink:href="#DejaVuSans-46"/>
       <use x="159.033203" xlink:href="#DejaVuSans-53"/>
      </g>
     </g>
    </g>
    <g id="text_17">
     <!-- Energy (eV) -->
     <defs>
      <path d="M 9.8125 72.90625 
L 55.90625 72.90625 
L 55.90625 64.59375 
L 19.671875 64.59375 
L 19.671875 43.015625 
L 54.390625 43.015625 
L 54.390625 34.71875 
L 19.671875 34.71875 
L 19.671875 8.296875 
L 56.78125 8.296875 
L 56.78125 0 
L 9.8125 0 
z
" id="DejaVuSans-69"/>
      <path d="M 54.890625 33.015625 
L 54.890625 0 
L 45.90625 0 
L 45.90625 32.71875 
Q 45.90625 40.484375 42.875 44.328125 
Q 39.84375 48.1875 33.796875 48.1875 
Q 26.515625 48.1875 22.3125 43.546875 
Q 18.109375 38.921875 18.109375 30.90625 
L 18.109375 0 
L 9.078125 0 
L 9.078125 54.6875 
L 18.109375 54.6875 
L 18.109375 46.1875 
Q 21.34375 51.125 25.703125 53.5625 
Q 30.078125 56 35.796875 56 
Q 45.21875 56 50.046875 50.171875 
Q 54.890625 44.34375 54.890625 33.015625 
z
" id="DejaVuSans-110"/>
      <path d="M 41.109375 46.296875 
Q 39.59375 47.171875 37.8125 47.578125 
Q 36.03125 48 33.890625 48 
Q 26.265625 48 22.1875 43.046875 
Q 18.109375 38.09375 18.109375 28.8125 
L 18.109375 0 
L 9.078125 0 
L 9.078125 54.6875 
L 18.109375 54.6875 
L 18.109375 46.1875 
Q 20.953125 51.171875 25.484375 53.578125 
Q 30.03125 56 36.53125 56 
Q 37.453125 56 38.578125 55.875 
Q 39.703125 55.765625 41.0625 55.515625 
z
" id="DejaVuSans-114"/>
      <path d="M 45.40625 27.984375 
Q 45.40625 37.75 41.375 43.109375 
Q 37.359375 48.484375 30.078125 48.484375 
Q 22.859375 48.484375 18.828125 43.109375 
Q 14.796875 37.75 14.796875 27.984375 
Q 14.796875 18.265625 18.828125 12.890625 
Q 22.859375 7.515625 30.078125 7.515625 
Q 37.359375 7.515625 41.375 12.890625 
Q 45.40625 18.265625 45.40625 27.984375 
z
M 54.390625 6.78125 
Q 54.390625 -7.171875 48.1875 -13.984375 
Q 42 -20.796875 29.203125 -20.796875 
Q 24.46875 -20.796875 20.265625 -20.09375 
Q 16.0625 -19.390625 12.109375 -17.921875 
L 12.109375 -9.1875 
Q 16.0625 -11.328125 19.921875 -12.34375 
Q 23.78125 -13.375 27.78125 -13.375 
Q 36.625 -13.375 41.015625 -8.765625 
Q 45.40625 -4.15625 45.40625 5.171875 
L 45.40625 9.625 
Q 42.625 4.78125 38.28125 2.390625 
Q 33.9375 0 27.875 0 
Q 17.828125 0 11.671875 7.65625 
Q 5.515625 15.328125 5.515625 27.984375 
Q 5.515625 40.671875 11.671875 48.328125 
Q 17.828125 56 27.875 56 
Q 33.9375 56 38.28125 53.609375 
Q 42.625 51.21875 45.40625 46.390625 
L 45.40625 54.6875 
L 54.390625 54.6875 
z
" id="DejaVuSans-103"/>
      <path d="M 32.171875 -5.078125 
Q 28.375 -14.84375 24.75 -17.8125 
Q 21.140625 -20.796875 15.09375 -20.796875 
L 7.90625 -20.796875 
L 7.90625 -13.28125 
L 13.1875 -13.28125 
Q 16.890625 -13.28125 18.9375 -11.515625 
Q 21 -9.765625 23.484375 -3.21875 
L 25.09375 0.875 
L 2.984375 54.6875 
L 12.5 54.6875 
L 29.59375 11.921875 
L 46.6875 54.6875 
L 56.203125 54.6875 
z
" id="DejaVuSans-121"/>
      <path d="M 28.609375 0 
L 0.78125 72.90625 
L 11.078125 72.90625 
L 34.1875 11.53125 
L 57.328125 72.90625 
L 67.578125 72.90625 
L 39.796875 0 
z
" id="DejaVuSans-86"/>
     </defs>
     <g transform="translate(108.654687 356.820469)rotate(-90)scale(0.1 -0.1)">
      <use xlink:href="#DejaVuSans-69"/>
      <use x="63.183594" xlink:href="#DejaVuSans-110"/>
      <use x="126.5625" xlink:href="#DejaVuSans-101"/>
      <use x="188.085938" xlink:href="#DejaVuSans-114"/>
      <use x="229.183594" xlink:href="#DejaVuSans-103"/>
      <use x="292.660156" xlink:href="#DejaVuSans-121"/>
      <use x="351.839844" xlink:href="#DejaVuSans-32"/>
      <use x="383.626953" xlink:href="#DejaVuSans-40"/>
      <use x="422.640625" xlink:href="#DejaVuSans-101"/>
      <use x="484.164062" xlink:href="#DejaVuSans-86"/>
      <use x="552.572266" xlink:href="#DejaVuSans-41"/>
     </g>
    </g>
   </g>
   <g id="line2d_16">
    <path clip-path="url(#p647e03d511)" d="M 162.446281 100.465501 
L 162.803306 100.608692 
L 163.041322 100.936773 
L 163.398347 101.988147 
L 163.755372 103.909867 
L 164.231405 108.086148 
L 164.826446 116.092866 
L 165.540496 129.562198 
L 166.492562 152.591971 
L 168.277686 202.933697 
L 170.181818 254.796142 
L 171.371901 281.390404 
L 172.323967 297.815002 
L 173.276033 310.222329 
L 174.704132 325.091451 
L 175.894215 338.314114 
L 177.203306 355.577191 
L 179.464463 385.552057 
L 180.773554 399.640208 
L 182.915702 419.740796 
L 184.819835 436.151399 
L 186.128926 445.595962 
L 189.699174 469.747292 
L 192.079339 487.334064 
L 193.031405 492.682535 
L 193.864463 496.245961 
L 194.816529 499.293233 
L 196.006612 502.276474 
L 199.457851 510.660345 
L 202.076033 516.69188 
L 204.33719 522.146251 
L 206.241322 526.585788 
L 207.312397 528.571037 
L 208.383471 530.107714 
L 209.692562 531.551548 
L 212.54876 534.218859 
L 217.666116 539.021914 
L 221.950413 543.63846 
L 223.259504 544.603146 
L 224.687603 545.369424 
L 226.353719 545.993626 
L 232.185124 547.915528 
L 236.469421 549.736257 
L 238.492562 550.284463 
L 240.872727 550.681259 
L 247.180165 551.590574 
L 253.01157 552.631991 
L 256.105785 552.916187 
L 263.365289 553.244928 
L 270.743802 553.472681 
L 300.37686 553.908074 
L 379.755372 554.037322 
L 531.371901 554.039993 
L 531.371901 554.039993 
" style="fill:none;stroke:#ff0000;stroke-dasharray:5.55,2.4;stroke-dashoffset:0;stroke-width:1.5;"/>
   </g>
   <g id="line2d_17">
    <path clip-path="url(#p647e03d511)" d="M 162.446281 554.036488 
L 162.803306 553.90095 
L 163.041322 553.583017 
L 163.398347 552.55407 
L 163.755372 550.662065 
L 164.231405 546.531058 
L 164.826446 538.572655 
L 165.540496 525.122205 
L 166.492562 502.060176 
L 168.277686 451.681513 
L 170.181818 399.797138 
L 171.371901 373.160169 
L 172.323967 356.706645 
L 173.276033 344.281955 
L 174.704132 329.408343 
L 175.894215 316.197527 
L 177.203306 298.954881 
L 179.464463 268.995436 
L 180.773554 254.895697 
L 182.915702 234.766216 
L 184.819835 218.336146 
L 186.128926 208.884403 
L 189.818182 183.826416 
L 192.079339 167.187532 
L 193.031405 161.854792 
L 193.864463 158.305255 
L 194.816529 155.273349 
L 196.006612 152.308592 
L 199.338843 144.262168 
L 201.838017 138.507706 
L 204.099174 133.109269 
L 206.241322 128.079698 
L 207.312397 126.095573 
L 208.383471 124.560625 
L 209.692562 123.119816 
L 212.54876 120.46126 
L 217.547107 115.800105 
L 222.069421 110.951456 
L 223.378512 110.01108 
L 224.806612 109.266952 
L 226.472727 108.661469 
L 231.947107 106.897316 
L 236.826446 104.858883 
L 238.849587 104.350451 
L 241.34876 103.969429 
L 246.585124 103.237974 
L 253.606612 102.011019 
L 256.819835 101.757838 
L 267.768595 101.304963 
L 285.738843 100.951477 
L 325.01157 100.704258 
L 435.45124 100.676776 
L 531.371901 100.676478 
L 531.371901 100.676478 
" style="fill:none;stroke:#0000ff;stroke-dasharray:5.55,2.4;stroke-dashoffset:0;stroke-width:1.5;"/>
   </g>
   <g id="line2d_18">
    <path clip-path="url(#p647e03d511)" d="M 162.446281 100.463295 
L 164.469421 100.600205 
L 166.135537 100.629334 
L 171.609917 100.503727 
L 175.894215 100.472947 
L 183.034711 100.466838 
L 191.484298 100.473672 
L 209.335537 100.631752 
L 271.695868 100.677298 
L 531.371901 100.677777 
L 531.371901 100.677777 
" style="fill:none;stroke:#4f0066;stroke-linecap:square;stroke-width:1.5;"/>
   </g>
   <g id="patch_3">
    <path d="M 144 576.72 
L 144 77.76 
" style="fill:none;stroke:#000000;stroke-linecap:square;stroke-linejoin:miter;stroke-width:0.8;"/>
   </g>
   <g id="patch_4">
    <path d="M 549.818182 576.72 
L 549.818182 77.76 
" style="fill:none;stroke:#000000;stroke-linecap:square;stroke-linejoin:miter;stroke-width:0.8;"/>
   </g>
   <g id="patch_5">
    <path d="M 144 576.72 
L 549.818182 576.72 
" style="fill:none;stroke:#000000;stroke-linecap:square;stroke-linejoin:miter;stroke-width:0.8;"/>
   </g>
   <g id="patch_6">
    <path d="M 144 77.76 
L 549.818182 77.76 
" style="fill:none;stroke:#000000;stroke-linecap:square;stroke-linejoin:miter;stroke-width:0.8;"/>
   </g>
   <g id="text_18">
    <!-- Work and Energy -->
    <defs>
     <path d="M 3.328125 72.90625 
L 13.28125 72.90625 
L 28.609375 11.28125 
L 43.890625 72.90625 
L 54.984375 72.90625 
L 70.3125 11.28125 
L 85.59375 72.90625 
L 95.609375 72.90625 
L 77.296875 0 
L 64.890625 0 
L 49.515625 63.28125 
L 33.984375 0 
L 21.578125 0 
z
" id="DejaVuSans-87"/>
     <path d="M 30.609375 48.390625 
Q 23.390625 48.390625 19.1875 42.75 
Q 14.984375 37.109375 14.984375 27.296875 
Q 14.984375 17.484375 19.15625 11.84375 
Q 23.34375 6.203125 30.609375 6.203125 
Q 37.796875 6.203125 41.984375 11.859375 
Q 46.1875 17.53125 46.1875 27.296875 
Q 46.1875 37.015625 41.984375 42.703125 
Q 37.796875 48.390625 30.609375 48.390625 
z
M 30.609375 56 
Q 42.328125 56 49.015625 48.375 
Q 55.71875 40.765625 55.71875 27.296875 
Q 55.71875 13.875 49.015625 6.21875 
Q 42.328125 -1.421875 30.609375 -1.421875 
Q 18.84375 -1.421875 12.171875 6.21875 
Q 5.515625 13.875 5.515625 27.296875 
Q 5.515625 40.765625 12.171875 48.375 
Q 18.84375 56 30.609375 56 
z
" id="DejaVuSans-111"/>
     <path d="M 9.078125 75.984375 
L 18.109375 75.984375 
L 18.109375 31.109375 
L 44.921875 54.6875 
L 56.390625 54.6875 
L 27.390625 29.109375 
L 57.625 0 
L 45.90625 0 
L 18.109375 26.703125 
L 18.109375 0 
L 9.078125 0 
z
" id="DejaVuSans-107"/>
     <path d="M 34.28125 27.484375 
Q 23.390625 27.484375 19.1875 25 
Q 14.984375 22.515625 14.984375 16.5 
Q 14.984375 11.71875 18.140625 8.90625 
Q 21.296875 6.109375 26.703125 6.109375 
Q 34.1875 6.109375 38.703125 11.40625 
Q 43.21875 16.703125 43.21875 25.484375 
L 43.21875 27.484375 
z
M 52.203125 31.203125 
L 52.203125 0 
L 43.21875 0 
L 43.21875 8.296875 
Q 40.140625 3.328125 35.546875 0.953125 
Q 30.953125 -1.421875 24.3125 -1.421875 
Q 15.921875 -1.421875 10.953125 3.296875 
Q 6 8.015625 6 15.921875 
Q 6 25.140625 12.171875 29.828125 
Q 18.359375 34.515625 30.609375 34.515625 
L 43.21875 34.515625 
L 43.21875 35.40625 
Q 43.21875 41.609375 39.140625 45 
Q 35.0625 48.390625 27.6875 48.390625 
Q 23 48.390625 18.546875 47.265625 
Q 14.109375 46.140625 10.015625 43.890625 
L 10.015625 52.203125 
Q 14.9375 54.109375 19.578125 55.046875 
Q 24.21875 56 28.609375 56 
Q 40.484375 56 46.34375 49.84375 
Q 52.203125 43.703125 52.203125 31.203125 
z
" id="DejaVuSans-97"/>
     <path d="M 45.40625 46.390625 
L 45.40625 75.984375 
L 54.390625 75.984375 
L 54.390625 0 
L 45.40625 0 
L 45.40625 8.203125 
Q 42.578125 3.328125 38.25 0.953125 
Q 33.9375 -1.421875 27.875 -1.421875 
Q 17.96875 -1.421875 11.734375 6.484375 
Q 5.515625 14.40625 5.515625 27.296875 
Q 5.515625 40.1875 11.734375 48.09375 
Q 17.96875 56 27.875 56 
Q 33.9375 56 38.25 53.625 
Q 42.578125 51.265625 45.40625 46.390625 
z
M 14.796875 27.296875 
Q 14.796875 17.390625 18.875 11.75 
Q 22.953125 6.109375 30.078125 6.109375 
Q 37.203125 6.109375 41.296875 11.75 
Q 45.40625 17.390625 45.40625 27.296875 
Q 45.40625 37.203125 41.296875 42.84375 
Q 37.203125 48.484375 30.078125 48.484375 
Q 22.953125 48.484375 18.875 42.84375 
Q 14.796875 37.203125 14.796875 27.296875 
z
" id="DejaVuSans-100"/>
    </defs>
    <g transform="translate(295.155341 71.76)scale(0.12 -0.12)">
     <use xlink:href="#DejaVuSans-87"/>
     <use x="98.798828" xlink:href="#DejaVuSans-111"/>
     <use x="159.980469" xlink:href="#DejaVuSans-114"/>
     <use x="201.09375" xlink:href="#DejaVuSans-107"/>
     <use x="259.003906" xlink:href="#DejaVuSans-32"/>
     <use x="290.791016" xlink:href="#DejaVuSans-97"/>
     <use x="352.070312" xlink:href="#DejaVuSans-110"/>
     <use x="415.449219" xlink:href="#DejaVuSans-100"/>
     <use x="478.925781" xlink:href="#DejaVuSans-32"/>
     <use x="510.712891" xlink:href="#DejaVuSans-69"/>
     <use x="573.896484" xlink:href="#DejaVuSans-110"/>
     <use x="637.275391" xlink:href="#DejaVuSans-101"/>
     <use x="698.798828" xlink:href="#DejaVuSans-114"/>
     <use x="739.896484" xlink:href="#DejaVuSans-103"/>
     <use x="803.373047" xlink:href="#DejaVuSans-121"/>
    </g>
   </g>
   <g id="legend_1">
    <g id="patch_7">
     <path d="M 406.791619 350.89625 
L 542.818182 350.89625 
Q 544.818182 350.89625 544.818182 348.89625 
L 544.818182 305.58375 
Q 544.818182 303.58375 542.818182 303.58375 
L 406.791619 303.58375 
Q 404.791619 303.58375 404.791619 305.58375 
L 404.791619 348.89625 
Q 404.791619 350.89625 406.791619 350.89625 
z
" style="fill:#ffffff;opacity:0.8;stroke:#cccccc;stroke-linejoin:miter;"/>
    </g>
    <g id="line2d_19">
     <path d="M 408.791619 311.682187 
L 428.791619 311.682187 
" style="fill:none;stroke:#ff0000;stroke-dasharray:5.55,2.4;stroke-dashoffset:0;stroke-width:1.5;"/>
    </g>
    <g id="line2d_20"/>
    <g id="text_19">
     <!-- Total Energy -->
     <defs>
      <path d="M 18.3125 70.21875 
L 18.3125 54.6875 
L 36.8125 54.6875 
L 36.8125 47.703125 
L 18.3125 47.703125 
L 18.3125 18.015625 
Q 18.3125 11.328125 20.140625 9.421875 
Q 21.96875 7.515625 27.59375 7.515625 
L 36.8125 7.515625 
L 36.8125 0 
L 27.59375 0 
Q 17.1875 0 13.234375 3.875 
Q 9.28125 7.765625 9.28125 18.015625 
L 9.28125 47.703125 
L 2.6875 47.703125 
L 2.6875 54.6875 
L 9.28125 54.6875 
L 9.28125 70.21875 
z
" id="DejaVuSans-116"/>
      <path d="M 9.421875 75.984375 
L 18.40625 75.984375 
L 18.40625 0 
L 9.421875 0 
z
" id="DejaVuSans-108"/>
     </defs>
     <g transform="translate(436.791619 315.182187)scale(0.1 -0.1)">
      <use xlink:href="#DejaVuSans-84"/>
      <use x="60.818359" xlink:href="#DejaVuSans-111"/>
      <use x="122" xlink:href="#DejaVuSans-116"/>
      <use x="161.208984" xlink:href="#DejaVuSans-97"/>
      <use x="222.488281" xlink:href="#DejaVuSans-108"/>
      <use x="250.271484" xlink:href="#DejaVuSans-32"/>
      <use x="282.058594" xlink:href="#DejaVuSans-69"/>
      <use x="345.242188" xlink:href="#DejaVuSans-110"/>
      <use x="408.621094" xlink:href="#DejaVuSans-101"/>
      <use x="470.144531" xlink:href="#DejaVuSans-114"/>
      <use x="511.242188" xlink:href="#DejaVuSans-103"/>
      <use x="574.71875" xlink:href="#DejaVuSans-121"/>
     </g>
    </g>
    <g id="line2d_21">
     <path d="M 408.791619 326.360313 
L 428.791619 326.360313 
" style="fill:none;stroke:#0000ff;stroke-dasharray:5.55,2.4;stroke-dashoffset:0;stroke-width:1.5;"/>
    </g>
    <g id="line2d_22"/>
    <g id="text_20">
     <!-- Total_Work -->
     <defs>
      <path d="M 50.984375 -16.609375 
L 50.984375 -23.578125 
L -0.984375 -23.578125 
L -0.984375 -16.609375 
z
" id="DejaVuSans-95"/>
     </defs>
     <g transform="translate(436.791619 329.860313)scale(0.1 -0.1)">
      <use xlink:href="#DejaVuSans-84"/>
      <use x="60.818359" xlink:href="#DejaVuSans-111"/>
      <use x="122" xlink:href="#DejaVuSans-116"/>
      <use x="161.208984" xlink:href="#DejaVuSans-97"/>
      <use x="222.488281" xlink:href="#DejaVuSans-108"/>
      <use x="250.271484" xlink:href="#DejaVuSans-95"/>
      <use x="300.271484" xlink:href="#DejaVuSans-87"/>
      <use x="399.070312" xlink:href="#DejaVuSans-111"/>
      <use x="460.251953" xlink:href="#DejaVuSans-114"/>
      <use x="501.365234" xlink:href="#DejaVuSans-107"/>
     </g>
    </g>
    <g id="line2d_23">
     <path d="M 408.791619 341.316562 
L 428.791619 341.316562 
" style="fill:none;stroke:#4f0066;stroke-linecap:square;stroke-width:1.5;"/>
    </g>
    <g id="line2d_24"/>
    <g id="text_21">
     <!-- Total Energy + Work -->
     <defs>
      <path d="M 46 62.703125 
L 46 35.5 
L 73.1875 35.5 
L 73.1875 27.203125 
L 46 27.203125 
L 46 0 
L 37.796875 0 
L 37.796875 27.203125 
L 10.59375 27.203125 
L 10.59375 35.5 
L 37.796875 35.5 
L 37.796875 62.703125 
z
" id="DejaVuSans-43"/>
     </defs>
     <g transform="translate(436.791619 344.816562)scale(0.1 -0.1)">
      <use xlink:href="#DejaVuSans-84"/>
      <use x="60.818359" xlink:href="#DejaVuSans-111"/>
      <use x="122" xlink:href="#DejaVuSans-116"/>
      <use x="161.208984" xlink:href="#DejaVuSans-97"/>
      <use x="222.488281" xlink:href="#DejaVuSans-108"/>
      <use x="250.271484" xlink:href="#DejaVuSans-32"/>
      <use x="282.058594" xlink:href="#DejaVuSans-69"/>
      <use x="345.242188" xlink:href="#DejaVuSans-110"/>
      <use x="408.621094" xlink:href="#DejaVuSans-101"/>
      <use x="470.144531" xlink:href="#DejaVuSans-114"/>
      <use x="511.242188" xlink:href="#DejaVuSans-103"/>
      <use x="574.71875" xlink:href="#DejaVuSans-121"/>
      <use x="633.898438" xlink:href="#DejaVuSans-32"/>
      <use x="665.685547" xlink:href="#DejaVuSans-43"/>
      <use x="749.474609" xlink:href="#DejaVuSans-32"/>
      <use x="781.261719" xlink:href="#DejaVuSans-87"/>
      <use x="880.060547" xlink:href="#DejaVuSans-111"/>
      <use x="941.242188" xlink:href="#DejaVuSans-114"/>
      <use x="982.355469" xlink:href="#DejaVuSans-107"/>
     </g>
    </g>
   </g>
  </g>
  <g id="axes_2">
   <g id="patch_8">
    <path d="M 630.981818 576.72 
L 1036.8 576.72 
L 1036.8 77.76 
L 630.981818 77.76 
z
" style="fill:#ffffff;"/>
   </g>
   <g id="matplotlib.axis_3">
    <g id="xtick_8">
     <g id="line2d_25">
      <g>
       <use style="stroke:#000000;stroke-width:0.8;" x="649.428099" xlink:href="#mdd679e801e" y="576.72"/>
      </g>
     </g>
     <g id="text_22">
      <!-- 0 -->
      <g transform="translate(646.246849 591.318438)scale(0.1 -0.1)">
       <use xlink:href="#DejaVuSans-48"/>
      </g>
     </g>
    </g>
    <g id="xtick_9">
     <g id="line2d_26">
      <g>
       <use style="stroke:#000000;stroke-width:0.8;" x="708.932231" xlink:href="#mdd679e801e" y="576.72"/>
      </g>
     </g>
     <g id="text_23">
      <!-- 5 -->
      <g transform="translate(705.750981 591.318438)scale(0.1 -0.1)">
       <use xlink:href="#DejaVuSans-53"/>
      </g>
     </g>
    </g>
    <g id="xtick_10">
     <g id="line2d_27">
      <g>
       <use style="stroke:#000000;stroke-width:0.8;" x="768.436364" xlink:href="#mdd679e801e" y="576.72"/>
      </g>
     </g>
     <g id="text_24">
      <!-- 10 -->
      <g transform="translate(762.073864 591.318438)scale(0.1 -0.1)">
       <use xlink:href="#DejaVuSans-49"/>
       <use x="63.623047" xlink:href="#DejaVuSans-48"/>
      </g>
     </g>
    </g>
    <g id="xtick_11">
     <g id="line2d_28">
      <g>
       <use style="stroke:#000000;stroke-width:0.8;" x="827.940496" xlink:href="#mdd679e801e" y="576.72"/>
      </g>
     </g>
     <g id="text_25">
      <!-- 15 -->
      <g transform="translate(821.577996 591.318438)scale(0.1 -0.1)">
       <use xlink:href="#DejaVuSans-49"/>
       <use x="63.623047" xlink:href="#DejaVuSans-53"/>
      </g>
     </g>
    </g>
    <g id="xtick_12">
     <g id="line2d_29">
      <g>
       <use style="stroke:#000000;stroke-width:0.8;" x="887.444628" xlink:href="#mdd679e801e" y="576.72"/>
      </g>
     </g>
     <g id="text_26">
      <!-- 20 -->
      <g transform="translate(881.082128 591.318438)scale(0.1 -0.1)">
       <use xlink:href="#DejaVuSans-50"/>
       <use x="63.623047" xlink:href="#DejaVuSans-48"/>
      </g>
     </g>
    </g>
    <g id="xtick_13">
     <g id="line2d_30">
      <g>
       <use style="stroke:#000000;stroke-width:0.8;" x="946.94876" xlink:href="#mdd679e801e" y="576.72"/>
      </g>
     </g>
     <g id="text_27">
      <!-- 25 -->
      <g transform="translate(940.58626 591.318438)scale(0.1 -0.1)">
       <use xlink:href="#DejaVuSans-50"/>
       <use x="63.623047" xlink:href="#DejaVuSans-53"/>
      </g>
     </g>
    </g>
    <g id="xtick_14">
     <g id="line2d_31">
      <g>
       <use style="stroke:#000000;stroke-width:0.8;" x="1006.452893" xlink:href="#mdd679e801e" y="576.72"/>
      </g>
     </g>
     <g id="text_28">
      <!-- 30 -->
      <g transform="translate(1000.090393 591.318438)scale(0.1 -0.1)">
       <use xlink:href="#DejaVuSans-51"/>
       <use x="63.623047" xlink:href="#DejaVuSans-48"/>
      </g>
     </g>
    </g>
    <g id="text_29">
     <!-- Time (~$10^{-14}$s) -->
     <g transform="translate(795.240909 605.718438)scale(0.1 -0.1)">
      <use transform="translate(0 0.684375)" xlink:href="#DejaVuSans-84"/>
      <use transform="translate(61.083984 0.684375)" xlink:href="#DejaVuSans-105"/>
      <use transform="translate(88.867188 0.684375)" xlink:href="#DejaVuSans-109"/>
      <use transform="translate(186.279297 0.684375)" xlink:href="#DejaVuSans-101"/>
      <use transform="translate(247.802734 0.684375)" xlink:href="#DejaVuSans-32"/>
      <use transform="translate(279.589844 0.684375)" xlink:href="#DejaVuSans-40"/>
      <use transform="translate(318.603516 0.684375)" xlink:href="#DejaVuSans-126"/>
      <use transform="translate(402.392578 0.684375)" xlink:href="#DejaVuSans-49"/>
      <use transform="translate(466.015625 0.684375)" xlink:href="#DejaVuSans-48"/>
      <use transform="translate(530.595703 38.965625)scale(0.7)" xlink:href="#DejaVuSans-8722"/>
      <use transform="translate(589.248047 38.965625)scale(0.7)" xlink:href="#DejaVuSans-49"/>
      <use transform="translate(633.78418 38.965625)scale(0.7)" xlink:href="#DejaVuSans-52"/>
      <use transform="translate(681.054688 0.684375)" xlink:href="#DejaVuSans-115"/>
      <use transform="translate(733.154297 0.684375)" xlink:href="#DejaVuSans-41"/>
     </g>
    </g>
   </g>
   <g id="matplotlib.axis_4">
    <g id="ytick_9">
     <g id="line2d_32">
      <g>
       <use style="stroke:#000000;stroke-width:0.8;" x="630.981818" xlink:href="#m69e106ae2f" y="554.038694"/>
      </g>
     </g>
    </g>
    <g id="ytick_10">
     <g id="line2d_33">
      <g>
       <use style="stroke:#000000;stroke-width:0.8;" x="630.981818" xlink:href="#m69e106ae2f" y="486.894533"/>
      </g>
     </g>
    </g>
    <g id="ytick_11">
     <g id="line2d_34">
      <g>
       <use style="stroke:#000000;stroke-width:0.8;" x="630.981818" xlink:href="#m69e106ae2f" y="419.750371"/>
      </g>
     </g>
    </g>
    <g id="ytick_12">
     <g id="line2d_35">
      <g>
       <use style="stroke:#000000;stroke-width:0.8;" x="630.981818" xlink:href="#m69e106ae2f" y="352.60621"/>
      </g>
     </g>
    </g>
    <g id="ytick_13">
     <g id="line2d_36">
      <g>
       <use style="stroke:#000000;stroke-width:0.8;" x="630.981818" xlink:href="#m69e106ae2f" y="285.462048"/>
      </g>
     </g>
    </g>
    <g id="ytick_14">
     <g id="line2d_37">
      <g>
       <use style="stroke:#000000;stroke-width:0.8;" x="630.981818" xlink:href="#m69e106ae2f" y="218.317887"/>
      </g>
     </g>
    </g>
    <g id="ytick_15">
     <g id="line2d_38">
      <g>
       <use style="stroke:#000000;stroke-width:0.8;" x="630.981818" xlink:href="#m69e106ae2f" y="151.173726"/>
      </g>
     </g>
    </g>
    <g id="ytick_16">
     <g id="line2d_39">
      <g>
       <use style="stroke:#000000;stroke-width:0.8;" x="630.981818" xlink:href="#m69e106ae2f" y="84.029564"/>
      </g>
     </g>
    </g>
    <g id="text_30">
     <!-- Energy (eV) -->
     <g transform="translate(624.902131 356.820469)rotate(-90)scale(0.1 -0.1)">
      <use xlink:href="#DejaVuSans-69"/>
      <use x="63.183594" xlink:href="#DejaVuSans-110"/>
      <use x="126.5625" xlink:href="#DejaVuSans-101"/>
      <use x="188.085938" xlink:href="#DejaVuSans-114"/>
      <use x="229.183594" xlink:href="#DejaVuSans-103"/>
      <use x="292.660156" xlink:href="#DejaVuSans-121"/>
      <use x="351.839844" xlink:href="#DejaVuSans-32"/>
      <use x="383.626953" xlink:href="#DejaVuSans-40"/>
      <use x="422.640625" xlink:href="#DejaVuSans-101"/>
      <use x="484.164062" xlink:href="#DejaVuSans-86"/>
      <use x="552.572266" xlink:href="#DejaVuSans-41"/>
     </g>
    </g>
   </g>
   <g id="line2d_40">
    <path clip-path="url(#p8d5f93ce03)" d="M 649.428099 100.879548 
L 649.666116 104.179685 
L 650.02314 115.001836 
L 650.499174 139.029978 
L 651.213223 189.691928 
L 653.236364 343.481226 
L 654.069421 386.830599 
L 654.783471 413.353874 
L 655.497521 432.087147 
L 656.092562 442.731339 
L 656.568595 448.061581 
L 656.92562 450.055844 
L 657.163636 450.368179 
L 657.282645 450.210877 
L 657.520661 449.26748 
L 657.877686 446.324236 
L 658.353719 439.870827 
L 659.186777 424.340333 
L 660.019835 409.684908 
L 660.495868 404.533537 
L 660.852893 402.954866 
L 660.971901 402.905003 
L 661.090909 403.097433 
L 661.328926 404.202523 
L 661.68595 407.575974 
L 662.161983 414.825568 
L 662.995041 432.092801 
L 664.066116 453.724447 
L 664.661157 461.887267 
L 665.13719 465.858414 
L 665.494215 467.48354 
L 665.85124 468.194628 
L 666.089256 468.303563 
L 666.446281 468.153176 
L 667.041322 467.817707 
L 667.279339 467.880445 
L 667.517355 468.143264 
L 667.87438 468.987776 
L 668.350413 471.010501 
L 668.945455 474.783884 
L 670.730579 487.091855 
L 671.206612 488.863223 
L 671.682645 489.809905 
L 672.158678 490.191846 
L 672.872727 490.632256 
L 673.229752 491.226322 
L 673.586777 492.306653 
L 674.06281 494.708367 
L 674.657851 499.386998 
L 675.371901 507.082719 
L 677.157025 527.262363 
L 677.752066 531.158368 
L 678.109091 532.416435 
L 678.347107 532.802867 
L 678.585124 532.84604 
L 678.82314 532.573336 
L 679.180165 531.652911 
L 679.775207 529.139472 
L 681.322314 521.968047 
L 681.798347 520.802256 
L 682.155372 520.415684 
L 682.393388 520.387182 
L 682.750413 520.659751 
L 683.226446 521.513032 
L 683.940496 523.452263 
L 685.368595 527.445343 
L 686.201653 529.024529 
L 688.105785 532.133336 
L 688.819835 534.019801 
L 689.771901 537.292855 
L 691.319008 542.635719 
L 691.91405 543.990942 
L 692.390083 544.64201 
L 692.866116 544.902865 
L 693.22314 544.86649 
L 693.699174 544.568077 
L 694.413223 543.782711 
L 695.722314 542.285466 
L 696.436364 541.836849 
L 697.031405 541.711175 
L 697.864463 541.805672 
L 701.672727 542.777086 
L 702.386777 543.345999 
L 703.100826 544.202832 
L 704.171901 545.901033 
L 705.838017 548.563366 
L 706.671074 549.46566 
L 707.385124 549.920528 
L 708.099174 550.109306 
L 708.932231 550.0832 
L 710.360331 549.748569 
L 712.740496 549.19977 
L 714.049587 549.111368 
L 715.001653 549.242555 
L 715.953719 549.593707 
L 717.024793 550.240307 
L 720.119008 552.31786 
L 721.071074 552.614976 
L 722.142149 552.702578 
L 723.45124 552.567428 
L 729.044628 551.716979 
L 730.353719 551.870258 
L 732.019835 552.316992 
L 735.352066 553.266989 
L 737.256198 553.524035 
L 739.279339 553.570039 
L 746.181818 553.490251 
L 751.775207 553.826429 
L 755.464463 553.715564 
L 759.153719 553.684064 
L 770.697521 553.896894 
L 776.290909 553.928674 
L 783.669421 553.969389 
L 792.595041 554.007054 
L 802.829752 554.015173 
L 1018.353719 554.04 
L 1018.353719 554.04 
" style="fill:none;stroke:#bf00bf;stroke-linecap:square;stroke-width:1.5;"/>
   </g>
   <g id="line2d_41">
    <path clip-path="url(#p8d5f93ce03)" d="M 649.428099 553.624647 
L 649.666116 550.385022 
L 650.02314 539.973631 
L 650.499174 517.531431 
L 651.332231 464.307272 
L 652.522314 388.798436 
L 653.236364 356.97408 
L 653.831405 340.354839 
L 654.307438 332.952344 
L 654.664463 330.305675 
L 654.902479 329.72106 
L 655.021488 329.744986 
L 655.259504 330.370402 
L 655.616529 332.619707 
L 656.092562 337.824394 
L 656.687603 347.729496 
L 657.282645 361.549855 
L 658.115702 387.201088 
L 660.138843 454.777243 
L 660.733884 466.196331 
L 661.090909 470.006899 
L 661.447934 471.601215 
L 661.566942 471.680311 
L 661.68595 471.554171 
L 661.923967 470.748166 
L 662.280992 468.421359 
L 663.11405 460.575548 
L 663.709091 455.82544 
L 664.066116 454.240714 
L 664.304132 453.861717 
L 664.42314 453.88778 
L 664.661157 454.37355 
L 665.018182 456.14327 
L 665.494215 460.173438 
L 666.327273 469.950604 
L 667.398347 482.081175 
L 667.993388 486.620306 
L 668.469421 488.907147 
L 668.945455 490.243691 
L 669.540496 491.21372 
L 670.135537 492.26812 
L 670.61157 493.685669 
L 671.087603 495.826349 
L 671.801653 500.245929 
L 673.110744 508.652755 
L 673.586777 510.417394 
L 673.943802 510.985414 
L 674.181818 510.983166 
L 674.419835 510.684469 
L 674.77686 509.732056 
L 675.252893 507.728054 
L 676.680992 501.064617 
L 677.038017 500.318325 
L 677.276033 500.19222 
L 677.51405 500.392184 
L 677.752066 500.929782 
L 678.109091 502.365149 
L 678.585124 505.361557 
L 679.299174 511.607005 
L 681.084298 528.323084 
L 681.679339 531.970894 
L 682.155372 533.870075 
L 682.631405 534.937385 
L 682.98843 535.289539 
L 683.345455 535.357395 
L 683.821488 535.174365 
L 684.892562 534.614297 
L 685.368595 534.611775 
L 685.844628 534.82233 
L 686.558678 535.427285 
L 687.510744 536.248134 
L 687.986777 536.43093 
L 688.46281 536.373971 
L 688.938843 536.070141 
L 689.652893 535.259958 
L 690.842975 533.817349 
L 691.319008 533.549226 
L 691.676033 533.550507 
L 692.033058 533.747204 
L 692.509091 534.318043 
L 693.104132 535.477243 
L 694.056198 537.999951 
L 695.484298 541.785898 
L 696.317355 543.339663 
L 697.031405 544.227619 
L 697.864463 544.917511 
L 701.553719 547.347981 
L 702.267769 547.459022 
L 702.981818 547.306972 
L 703.814876 546.87121 
L 705.480992 545.943897 
L 706.195041 545.841623 
L 706.790083 545.962246 
L 707.504132 546.340388 
L 708.456198 547.132446 
L 711.431405 549.83269 
L 712.740496 550.634877 
L 713.930579 551.101915 
L 714.882645 551.25731 
L 715.834711 551.195084 
L 717.024793 550.859177 
L 719.28595 550.1298 
L 720.238017 550.080582 
L 721.190083 550.247944 
L 722.380165 550.693744 
L 727.378512 552.844776 
L 728.806612 553.122533 
L 730.115702 553.157294 
L 731.781818 552.964572 
L 734.638017 552.615182 
L 736.542149 552.649696 
L 738.922314 552.944979 
L 743.682645 553.610142 
L 745.943802 553.618935 
L 751.775207 553.520455 
L 761.295868 553.817641 
L 767.008264 553.783649 
L 776.647934 553.913882 
L 784.740496 553.978084 
L 796.641322 553.985267 
L 816.039669 554.026888 
L 973.368595 554.038665 
L 1018.353719 554.038688 
L 1018.353719 554.038688 
" style="fill:none;stroke:#00bfbf;stroke-linecap:square;stroke-width:1.5;"/>
   </g>
   <g id="patch_9">
    <path d="M 630.981818 576.72 
L 630.981818 77.76 
" style="fill:none;stroke:#000000;stroke-linecap:square;stroke-linejoin:miter;stroke-width:0.8;"/>
   </g>
   <g id="patch_10">
    <path d="M 1036.8 576.72 
L 1036.8 77.76 
" style="fill:none;stroke:#000000;stroke-linecap:square;stroke-linejoin:miter;stroke-width:0.8;"/>
   </g>
   <g id="patch_11">
    <path d="M 630.981818 576.72 
L 1036.8 576.72 
" style="fill:none;stroke:#000000;stroke-linecap:square;stroke-linejoin:miter;stroke-width:0.8;"/>
   </g>
   <g id="patch_12">
    <path d="M 630.981818 77.76 
L 1036.8 77.76 
" style="fill:none;stroke:#000000;stroke-linecap:square;stroke-linejoin:miter;stroke-width:0.8;"/>
   </g>
   <g id="text_31">
    <!-- Potential and Kinetic Energy -->
    <defs>
     <path d="M 19.671875 64.796875 
L 19.671875 37.40625 
L 32.078125 37.40625 
Q 38.96875 37.40625 42.71875 40.96875 
Q 46.484375 44.53125 46.484375 51.125 
Q 46.484375 57.671875 42.71875 61.234375 
Q 38.96875 64.796875 32.078125 64.796875 
z
M 9.8125 72.90625 
L 32.078125 72.90625 
Q 44.34375 72.90625 50.609375 67.359375 
Q 56.890625 61.8125 56.890625 51.125 
Q 56.890625 40.328125 50.609375 34.8125 
Q 44.34375 29.296875 32.078125 29.296875 
L 19.671875 29.296875 
L 19.671875 0 
L 9.8125 0 
z
" id="DejaVuSans-80"/>
     <path d="M 9.8125 72.90625 
L 19.671875 72.90625 
L 19.671875 42.09375 
L 52.390625 72.90625 
L 65.09375 72.90625 
L 28.90625 38.921875 
L 67.671875 0 
L 54.6875 0 
L 19.671875 35.109375 
L 19.671875 0 
L 9.8125 0 
z
" id="DejaVuSans-75"/>
     <path d="M 48.78125 52.59375 
L 48.78125 44.1875 
Q 44.96875 46.296875 41.140625 47.34375 
Q 37.3125 48.390625 33.40625 48.390625 
Q 24.65625 48.390625 19.8125 42.84375 
Q 14.984375 37.3125 14.984375 27.296875 
Q 14.984375 17.28125 19.8125 11.734375 
Q 24.65625 6.203125 33.40625 6.203125 
Q 37.3125 6.203125 41.140625 7.25 
Q 44.96875 8.296875 48.78125 10.40625 
L 48.78125 2.09375 
Q 45.015625 0.34375 40.984375 -0.53125 
Q 36.96875 -1.421875 32.421875 -1.421875 
Q 20.0625 -1.421875 12.78125 6.34375 
Q 5.515625 14.109375 5.515625 27.296875 
Q 5.515625 40.671875 12.859375 48.328125 
Q 20.21875 56 33.015625 56 
Q 37.15625 56 41.109375 55.140625 
Q 45.0625 54.296875 48.78125 52.59375 
z
" id="DejaVuSans-99"/>
    </defs>
    <g transform="translate(748.860597 71.76)scale(0.12 -0.12)">
     <use xlink:href="#DejaVuSans-80"/>
     <use x="60.255859" xlink:href="#DejaVuSans-111"/>
     <use x="121.4375" xlink:href="#DejaVuSans-116"/>
     <use x="160.646484" xlink:href="#DejaVuSans-101"/>
     <use x="222.169922" xlink:href="#DejaVuSans-110"/>
     <use x="285.548828" xlink:href="#DejaVuSans-116"/>
     <use x="324.757812" xlink:href="#DejaVuSans-105"/>
     <use x="352.541016" xlink:href="#DejaVuSans-97"/>
     <use x="413.820312" xlink:href="#DejaVuSans-108"/>
     <use x="441.603516" xlink:href="#DejaVuSans-32"/>
     <use x="473.390625" xlink:href="#DejaVuSans-97"/>
     <use x="534.669922" xlink:href="#DejaVuSans-110"/>
     <use x="598.048828" xlink:href="#DejaVuSans-100"/>
     <use x="661.525391" xlink:href="#DejaVuSans-32"/>
     <use x="693.3125" xlink:href="#DejaVuSans-75"/>
     <use x="758.888672" xlink:href="#DejaVuSans-105"/>
     <use x="786.671875" xlink:href="#DejaVuSans-110"/>
     <use x="850.050781" xlink:href="#DejaVuSans-101"/>
     <use x="911.574219" xlink:href="#DejaVuSans-116"/>
     <use x="950.783203" xlink:href="#DejaVuSans-105"/>
     <use x="978.566406" xlink:href="#DejaVuSans-99"/>
     <use x="1033.546875" xlink:href="#DejaVuSans-32"/>
     <use x="1065.333984" xlink:href="#DejaVuSans-69"/>
     <use x="1128.517578" xlink:href="#DejaVuSans-110"/>
     <use x="1191.896484" xlink:href="#DejaVuSans-101"/>
     <use x="1253.419922" xlink:href="#DejaVuSans-114"/>
     <use x="1294.517578" xlink:href="#DejaVuSans-103"/>
     <use x="1357.994141" xlink:href="#DejaVuSans-121"/>
    </g>
   </g>
   <g id="legend_2">
    <g id="patch_13">
     <path d="M 915.276562 115.11625 
L 1029.8 115.11625 
Q 1031.8 115.11625 1031.8 113.11625 
L 1031.8 84.76 
Q 1031.8 82.76 1029.8 82.76 
L 915.276562 82.76 
Q 913.276562 82.76 913.276562 84.76 
L 913.276562 113.11625 
Q 913.276562 115.11625 915.276562 115.11625 
z
" style="fill:#ffffff;opacity:0.8;stroke:#cccccc;stroke-linejoin:miter;"/>
    </g>
    <g id="line2d_42">
     <path d="M 917.276562 90.858437 
L 937.276562 90.858437 
" style="fill:none;stroke:#bf00bf;stroke-linecap:square;stroke-width:1.5;"/>
    </g>
    <g id="line2d_43"/>
    <g id="text_32">
     <!-- Potential Energy -->
     <g transform="translate(945.276562 94.358437)scale(0.1 -0.1)">
      <use xlink:href="#DejaVuSans-80"/>
      <use x="60.255859" xlink:href="#DejaVuSans-111"/>
      <use x="121.4375" xlink:href="#DejaVuSans-116"/>
      <use x="160.646484" xlink:href="#DejaVuSans-101"/>
      <use x="222.169922" xlink:href="#DejaVuSans-110"/>
      <use x="285.548828" xlink:href="#DejaVuSans-116"/>
      <use x="324.757812" xlink:href="#DejaVuSans-105"/>
      <use x="352.541016" xlink:href="#DejaVuSans-97"/>
      <use x="413.820312" xlink:href="#DejaVuSans-108"/>
      <use x="441.603516" xlink:href="#DejaVuSans-32"/>
      <use x="473.390625" xlink:href="#DejaVuSans-69"/>
      <use x="536.574219" xlink:href="#DejaVuSans-110"/>
      <use x="599.953125" xlink:href="#DejaVuSans-101"/>
      <use x="661.476562" xlink:href="#DejaVuSans-114"/>
      <use x="702.574219" xlink:href="#DejaVuSans-103"/>
      <use x="766.050781" xlink:href="#DejaVuSans-121"/>
     </g>
    </g>
    <g id="line2d_44">
     <path d="M 917.276562 105.536562 
L 937.276562 105.536562 
" style="fill:none;stroke:#00bfbf;stroke-linecap:square;stroke-width:1.5;"/>
    </g>
    <g id="line2d_45"/>
    <g id="text_33">
     <!-- Kinetic Energy -->
     <g transform="translate(945.276562 109.036562)scale(0.1 -0.1)">
      <use xlink:href="#DejaVuSans-75"/>
      <use x="65.576172" xlink:href="#DejaVuSans-105"/>
      <use x="93.359375" xlink:href="#DejaVuSans-110"/>
      <use x="156.738281" xlink:href="#DejaVuSans-101"/>
      <use x="218.261719" xlink:href="#DejaVuSans-116"/>
      <use x="257.470703" xlink:href="#DejaVuSans-105"/>
      <use x="285.253906" xlink:href="#DejaVuSans-99"/>
      <use x="340.234375" xlink:href="#DejaVuSans-32"/>
      <use x="372.021484" xlink:href="#DejaVuSans-69"/>
      <use x="435.205078" xlink:href="#DejaVuSans-110"/>
      <use x="498.583984" xlink:href="#DejaVuSans-101"/>
      <use x="560.107422" xlink:href="#DejaVuSans-114"/>
      <use x="601.205078" xlink:href="#DejaVuSans-103"/>
      <use x="664.681641" xlink:href="#DejaVuSans-121"/>
     </g>
    </g>
   </g>
  </g>
 </g>
 <defs>
  <clipPath id="p647e03d511">
   <rect height="498.96" width="405.818182" x="144" y="77.76"/>
  </clipPath>
  <clipPath id="p8d5f93ce03">
   <rect height="498.96" width="405.818182" x="630.981818" y="77.76"/>
  </clipPath>
 </defs>
</svg>
