<?xml version="1.0" encoding="utf-8" standalone="no"?>
<!DOCTYPE svg PUBLIC "-//W3C//DTD SVG 1.1//EN"
  "http://www.w3.org/Graphics/SVG/1.1/DTD/svg11.dtd">
<!-- Created with matplotlib (https://matplotlib.org/) -->
<svg height="648pt" version="1.1" viewBox="0 0 1152 648" width="1152pt" xmlns="http://www.w3.org/2000/svg" xmlns:xlink="http://www.w3.org/1999/xlink">
 <defs>
  <style type="text/css">
*{stroke-linecap:butt;stroke-linejoin:round;}
  </style>
 </defs>
 <g id="figure_1">
  <g id="patch_1">
   <path d="M 0 648 
L 1152 648 
L 1152 0 
L 0 0 
z
" style="fill:#ffffff;"/>
  </g>
  <g id="axes_1">
   <g id="patch_2">
    <path d="M 144 576.72 
L 549.818182 576.72 
L 549.818182 77.76 
L 144 77.76 
z
" style="fill:#ffffff;"/>
   </g>
   <g id="matplotlib.axis_1">
    <g id="xtick_1">
     <g id="line2d_1">
      <defs>
       <path d="M 0 0 
L 0 3.5 
" id="m01d7c4935a" style="stroke:#000000;stroke-width:0.8;"/>
      </defs>
      <g>
       <use style="stroke:#000000;stroke-width:0.8;" x="162.446281" xlink:href="#m01d7c4935a" y="576.72"/>
      </g>
     </g>
     <g id="text_1">
      <!-- 0.0 -->
      <defs>
       <path d="M 31.78125 66.40625 
Q 24.171875 66.40625 20.328125 58.90625 
Q 16.5 51.421875 16.5 36.375 
Q 16.5 21.390625 20.328125 13.890625 
Q 24.171875 6.390625 31.78125 6.390625 
Q 39.453125 6.390625 43.28125 13.890625 
Q 47.125 21.390625 47.125 36.375 
Q 47.125 51.421875 43.28125 58.90625 
Q 39.453125 66.40625 31.78125 66.40625 
z
M 31.78125 74.21875 
Q 44.046875 74.21875 50.515625 64.515625 
Q 56.984375 54.828125 56.984375 36.375 
Q 56.984375 17.96875 50.515625 8.265625 
Q 44.046875 -1.421875 31.78125 -1.421875 
Q 19.53125 -1.421875 13.0625 8.265625 
Q 6.59375 17.96875 6.59375 36.375 
Q 6.59375 54.828125 13.0625 64.515625 
Q 19.53125 74.21875 31.78125 74.21875 
z
" id="DejaVuSans-48"/>
       <path d="M 10.6875 12.40625 
L 21 12.40625 
L 21 0 
L 10.6875 0 
z
" id="DejaVuSans-46"/>
      </defs>
      <g transform="translate(154.494718 591.318438)scale(0.1 -0.1)">
       <use xlink:href="#DejaVuSans-48"/>
       <use x="63.623047" xlink:href="#DejaVuSans-46"/>
       <use x="95.410156" xlink:href="#DejaVuSans-48"/>
      </g>
     </g>
    </g>
    <g id="xtick_2">
     <g id="line2d_2">
      <g>
       <use style="stroke:#000000;stroke-width:0.8;" x="236.231405" xlink:href="#m01d7c4935a" y="576.72"/>
      </g>
     </g>
     <g id="text_2">
      <!-- 0.2 -->
      <defs>
       <path d="M 19.1875 8.296875 
L 53.609375 8.296875 
L 53.609375 0 
L 7.328125 0 
L 7.328125 8.296875 
Q 12.9375 14.109375 22.625 23.890625 
Q 32.328125 33.6875 34.8125 36.53125 
Q 39.546875 41.84375 41.421875 45.53125 
Q 43.3125 49.21875 43.3125 52.78125 
Q 43.3125 58.59375 39.234375 62.25 
Q 35.15625 65.921875 28.609375 65.921875 
Q 23.96875 65.921875 18.8125 64.3125 
Q 13.671875 62.703125 7.8125 59.421875 
L 7.8125 69.390625 
Q 13.765625 71.78125 18.9375 73 
Q 24.125 74.21875 28.421875 74.21875 
Q 39.75 74.21875 46.484375 68.546875 
Q 53.21875 62.890625 53.21875 53.421875 
Q 53.21875 48.921875 51.53125 44.890625 
Q 49.859375 40.875 45.40625 35.40625 
Q 44.1875 33.984375 37.640625 27.21875 
Q 31.109375 20.453125 19.1875 8.296875 
z
" id="DejaVuSans-50"/>
      </defs>
      <g transform="translate(228.279842 591.318438)scale(0.1 -0.1)">
       <use xlink:href="#DejaVuSans-48"/>
       <use x="63.623047" xlink:href="#DejaVuSans-46"/>
       <use x="95.410156" xlink:href="#DejaVuSans-50"/>
      </g>
     </g>
    </g>
    <g id="xtick_3">
     <g id="line2d_3">
      <g>
       <use style="stroke:#000000;stroke-width:0.8;" x="310.016529" xlink:href="#m01d7c4935a" y="576.72"/>
      </g>
     </g>
     <g id="text_3">
      <!-- 0.4 -->
      <defs>
       <path d="M 37.796875 64.3125 
L 12.890625 25.390625 
L 37.796875 25.390625 
z
M 35.203125 72.90625 
L 47.609375 72.90625 
L 47.609375 25.390625 
L 58.015625 25.390625 
L 58.015625 17.1875 
L 47.609375 17.1875 
L 47.609375 0 
L 37.796875 0 
L 37.796875 17.1875 
L 4.890625 17.1875 
L 4.890625 26.703125 
z
" id="DejaVuSans-52"/>
      </defs>
      <g transform="translate(302.064966 591.318438)scale(0.1 -0.1)">
       <use xlink:href="#DejaVuSans-48"/>
       <use x="63.623047" xlink:href="#DejaVuSans-46"/>
       <use x="95.410156" xlink:href="#DejaVuSans-52"/>
      </g>
     </g>
    </g>
    <g id="xtick_4">
     <g id="line2d_4">
      <g>
       <use style="stroke:#000000;stroke-width:0.8;" x="383.801653" xlink:href="#m01d7c4935a" y="576.72"/>
      </g>
     </g>
     <g id="text_4">
      <!-- 0.6 -->
      <defs>
       <path d="M 33.015625 40.375 
Q 26.375 40.375 22.484375 35.828125 
Q 18.609375 31.296875 18.609375 23.390625 
Q 18.609375 15.53125 22.484375 10.953125 
Q 26.375 6.390625 33.015625 6.390625 
Q 39.65625 6.390625 43.53125 10.953125 
Q 47.40625 15.53125 47.40625 23.390625 
Q 47.40625 31.296875 43.53125 35.828125 
Q 39.65625 40.375 33.015625 40.375 
z
M 52.59375 71.296875 
L 52.59375 62.3125 
Q 48.875 64.0625 45.09375 64.984375 
Q 41.3125 65.921875 37.59375 65.921875 
Q 27.828125 65.921875 22.671875 59.328125 
Q 17.53125 52.734375 16.796875 39.40625 
Q 19.671875 43.65625 24.015625 45.921875 
Q 28.375 48.1875 33.59375 48.1875 
Q 44.578125 48.1875 50.953125 41.515625 
Q 57.328125 34.859375 57.328125 23.390625 
Q 57.328125 12.15625 50.6875 5.359375 
Q 44.046875 -1.421875 33.015625 -1.421875 
Q 20.359375 -1.421875 13.671875 8.265625 
Q 6.984375 17.96875 6.984375 36.375 
Q 6.984375 53.65625 15.1875 63.9375 
Q 23.390625 74.21875 37.203125 74.21875 
Q 40.921875 74.21875 44.703125 73.484375 
Q 48.484375 72.75 52.59375 71.296875 
z
" id="DejaVuSans-54"/>
      </defs>
      <g transform="translate(375.85009 591.318438)scale(0.1 -0.1)">
       <use xlink:href="#DejaVuSans-48"/>
       <use x="63.623047" xlink:href="#DejaVuSans-46"/>
       <use x="95.410156" xlink:href="#DejaVuSans-54"/>
      </g>
     </g>
    </g>
    <g id="xtick_5">
     <g id="line2d_5">
      <g>
       <use style="stroke:#000000;stroke-width:0.8;" x="457.586777" xlink:href="#m01d7c4935a" y="576.72"/>
      </g>
     </g>
     <g id="text_5">
      <!-- 0.8 -->
      <defs>
       <path d="M 31.78125 34.625 
Q 24.75 34.625 20.71875 30.859375 
Q 16.703125 27.09375 16.703125 20.515625 
Q 16.703125 13.921875 20.71875 10.15625 
Q 24.75 6.390625 31.78125 6.390625 
Q 38.8125 6.390625 42.859375 10.171875 
Q 46.921875 13.96875 46.921875 20.515625 
Q 46.921875 27.09375 42.890625 30.859375 
Q 38.875 34.625 31.78125 34.625 
z
M 21.921875 38.8125 
Q 15.578125 40.375 12.03125 44.71875 
Q 8.5 49.078125 8.5 55.328125 
Q 8.5 64.0625 14.71875 69.140625 
Q 20.953125 74.21875 31.78125 74.21875 
Q 42.671875 74.21875 48.875 69.140625 
Q 55.078125 64.0625 55.078125 55.328125 
Q 55.078125 49.078125 51.53125 44.71875 
Q 48 40.375 41.703125 38.8125 
Q 48.828125 37.15625 52.796875 32.3125 
Q 56.78125 27.484375 56.78125 20.515625 
Q 56.78125 9.90625 50.3125 4.234375 
Q 43.84375 -1.421875 31.78125 -1.421875 
Q 19.734375 -1.421875 13.25 4.234375 
Q 6.78125 9.90625 6.78125 20.515625 
Q 6.78125 27.484375 10.78125 32.3125 
Q 14.796875 37.15625 21.921875 38.8125 
z
M 18.3125 54.390625 
Q 18.3125 48.734375 21.84375 45.5625 
Q 25.390625 42.390625 31.78125 42.390625 
Q 38.140625 42.390625 41.71875 45.5625 
Q 45.3125 48.734375 45.3125 54.390625 
Q 45.3125 60.0625 41.71875 63.234375 
Q 38.140625 66.40625 31.78125 66.40625 
Q 25.390625 66.40625 21.84375 63.234375 
Q 18.3125 60.0625 18.3125 54.390625 
z
" id="DejaVuSans-56"/>
      </defs>
      <g transform="translate(449.635214 591.318438)scale(0.1 -0.1)">
       <use xlink:href="#DejaVuSans-48"/>
       <use x="63.623047" xlink:href="#DejaVuSans-46"/>
       <use x="95.410156" xlink:href="#DejaVuSans-56"/>
      </g>
     </g>
    </g>
    <g id="xtick_6">
     <g id="line2d_6">
      <g>
       <use style="stroke:#000000;stroke-width:0.8;" x="531.371901" xlink:href="#m01d7c4935a" y="576.72"/>
      </g>
     </g>
     <g id="text_6">
      <!-- 1.0 -->
      <defs>
       <path d="M 12.40625 8.296875 
L 28.515625 8.296875 
L 28.515625 63.921875 
L 10.984375 60.40625 
L 10.984375 69.390625 
L 28.421875 72.90625 
L 38.28125 72.90625 
L 38.28125 8.296875 
L 54.390625 8.296875 
L 54.390625 0 
L 12.40625 0 
z
" id="DejaVuSans-49"/>
      </defs>
      <g transform="translate(523.420338 591.318438)scale(0.1 -0.1)">
       <use xlink:href="#DejaVuSans-49"/>
       <use x="63.623047" xlink:href="#DejaVuSans-46"/>
       <use x="95.410156" xlink:href="#DejaVuSans-48"/>
      </g>
     </g>
    </g>
    <g id="text_7">
     <!-- Time (~$10^{-14}$s) -->
     <defs>
      <path d="M -0.296875 72.90625 
L 61.375 72.90625 
L 61.375 64.59375 
L 35.5 64.59375 
L 35.5 0 
L 25.59375 0 
L 25.59375 64.59375 
L -0.296875 64.59375 
z
" id="DejaVuSans-84"/>
      <path d="M 9.421875 54.6875 
L 18.40625 54.6875 
L 18.40625 0 
L 9.421875 0 
z
M 9.421875 75.984375 
L 18.40625 75.984375 
L 18.40625 64.59375 
L 9.421875 64.59375 
z
" id="DejaVuSans-105"/>
      <path d="M 52 44.1875 
Q 55.375 50.25 60.0625 53.125 
Q 64.75 56 71.09375 56 
Q 79.640625 56 84.28125 50.015625 
Q 88.921875 44.046875 88.921875 33.015625 
L 88.921875 0 
L 79.890625 0 
L 79.890625 32.71875 
Q 79.890625 40.578125 77.09375 44.375 
Q 74.3125 48.1875 68.609375 48.1875 
Q 61.625 48.1875 57.5625 43.546875 
Q 53.515625 38.921875 53.515625 30.90625 
L 53.515625 0 
L 44.484375 0 
L 44.484375 32.71875 
Q 44.484375 40.625 41.703125 44.40625 
Q 38.921875 48.1875 33.109375 48.1875 
Q 26.21875 48.1875 22.15625 43.53125 
Q 18.109375 38.875 18.109375 30.90625 
L 18.109375 0 
L 9.078125 0 
L 9.078125 54.6875 
L 18.109375 54.6875 
L 18.109375 46.1875 
Q 21.1875 51.21875 25.484375 53.609375 
Q 29.78125 56 35.6875 56 
Q 41.65625 56 45.828125 52.96875 
Q 50 49.953125 52 44.1875 
z
" id="DejaVuSans-109"/>
      <path d="M 56.203125 29.59375 
L 56.203125 25.203125 
L 14.890625 25.203125 
Q 15.484375 15.921875 20.484375 11.0625 
Q 25.484375 6.203125 34.421875 6.203125 
Q 39.59375 6.203125 44.453125 7.46875 
Q 49.3125 8.734375 54.109375 11.28125 
L 54.109375 2.78125 
Q 49.265625 0.734375 44.1875 -0.34375 
Q 39.109375 -1.421875 33.890625 -1.421875 
Q 20.796875 -1.421875 13.15625 6.1875 
Q 5.515625 13.8125 5.515625 26.8125 
Q 5.515625 40.234375 12.765625 48.109375 
Q 20.015625 56 32.328125 56 
Q 43.359375 56 49.78125 48.890625 
Q 56.203125 41.796875 56.203125 29.59375 
z
M 47.21875 32.234375 
Q 47.125 39.59375 43.09375 43.984375 
Q 39.0625 48.390625 32.421875 48.390625 
Q 24.90625 48.390625 20.390625 44.140625 
Q 15.875 39.890625 15.1875 32.171875 
z
" id="DejaVuSans-101"/>
      <path id="DejaVuSans-32"/>
      <path d="M 31 75.875 
Q 24.46875 64.65625 21.28125 53.65625 
Q 18.109375 42.671875 18.109375 31.390625 
Q 18.109375 20.125 21.3125 9.0625 
Q 24.515625 -2 31 -13.1875 
L 23.1875 -13.1875 
Q 15.875 -1.703125 12.234375 9.375 
Q 8.59375 20.453125 8.59375 31.390625 
Q 8.59375 42.28125 12.203125 53.3125 
Q 15.828125 64.359375 23.1875 75.875 
z
" id="DejaVuSans-40"/>
      <path d="M 73.1875 39.890625 
L 73.1875 31.203125 
Q 68.0625 27.34375 63.6875 25.6875 
Q 59.328125 24.03125 54.59375 24.03125 
Q 49.21875 24.03125 42.09375 26.90625 
Q 41.546875 27.09375 41.3125 27.203125 
Q 40.96875 27.34375 40.234375 27.59375 
Q 32.671875 30.609375 28.078125 30.609375 
Q 23.78125 30.609375 19.578125 28.734375 
Q 15.375 26.859375 10.59375 22.796875 
L 10.59375 31.5 
Q 15.71875 35.359375 20.09375 37.03125 
Q 24.46875 38.71875 29.203125 38.71875 
Q 34.578125 38.71875 41.75 35.796875 
Q 42.234375 35.59375 42.484375 35.5 
Q 42.875 35.359375 43.5625 35.109375 
Q 51.125 32.078125 55.71875 32.078125 
Q 59.90625 32.078125 64.03125 33.9375 
Q 68.171875 35.796875 73.1875 39.890625 
z
" id="DejaVuSans-126"/>
      <path d="M 10.59375 35.5 
L 73.1875 35.5 
L 73.1875 27.203125 
L 10.59375 27.203125 
z
" id="DejaVuSans-8722"/>
      <path d="M 44.28125 53.078125 
L 44.28125 44.578125 
Q 40.484375 46.53125 36.375 47.5 
Q 32.28125 48.484375 27.875 48.484375 
Q 21.1875 48.484375 17.84375 46.4375 
Q 14.5 44.390625 14.5 40.28125 
Q 14.5 37.15625 16.890625 35.375 
Q 19.28125 33.59375 26.515625 31.984375 
L 29.59375 31.296875 
Q 39.15625 29.25 43.1875 25.515625 
Q 47.21875 21.78125 47.21875 15.09375 
Q 47.21875 7.46875 41.1875 3.015625 
Q 35.15625 -1.421875 24.609375 -1.421875 
Q 20.21875 -1.421875 15.453125 -0.5625 
Q 10.6875 0.296875 5.421875 2 
L 5.421875 11.28125 
Q 10.40625 8.6875 15.234375 7.390625 
Q 20.0625 6.109375 24.8125 6.109375 
Q 31.15625 6.109375 34.5625 8.28125 
Q 37.984375 10.453125 37.984375 14.40625 
Q 37.984375 18.0625 35.515625 20.015625 
Q 33.0625 21.96875 24.703125 23.78125 
L 21.578125 24.515625 
Q 13.234375 26.265625 9.515625 29.90625 
Q 5.8125 33.546875 5.8125 39.890625 
Q 5.8125 47.609375 11.28125 51.796875 
Q 16.75 56 26.8125 56 
Q 31.78125 56 36.171875 55.265625 
Q 40.578125 54.546875 44.28125 53.078125 
z
" id="DejaVuSans-115"/>
      <path d="M 8.015625 75.875 
L 15.828125 75.875 
Q 23.140625 64.359375 26.78125 53.3125 
Q 30.421875 42.28125 30.421875 31.390625 
Q 30.421875 20.453125 26.78125 9.375 
Q 23.140625 -1.703125 15.828125 -13.1875 
L 8.015625 -13.1875 
Q 14.5 -2 17.703125 9.0625 
Q 20.90625 20.125 20.90625 31.390625 
Q 20.90625 42.671875 17.703125 53.65625 
Q 14.5 64.65625 8.015625 75.875 
z
" id="DejaVuSans-41"/>
     </defs>
     <g transform="translate(308.259091 605.718438)scale(0.1 -0.1)">
      <use transform="translate(0 0.684375)" xlink:href="#DejaVuSans-84"/>
      <use transform="translate(61.083984 0.684375)" xlink:href="#DejaVuSans-105"/>
      <use transform="translate(88.867188 0.684375)" xlink:href="#DejaVuSans-109"/>
      <use transform="translate(186.279297 0.684375)" xlink:href="#DejaVuSans-101"/>
      <use transform="translate(247.802734 0.684375)" xlink:href="#DejaVuSans-32"/>
      <use transform="translate(279.589844 0.684375)" xlink:href="#DejaVuSans-40"/>
      <use transform="translate(318.603516 0.684375)" xlink:href="#DejaVuSans-126"/>
      <use transform="translate(402.392578 0.684375)" xlink:href="#DejaVuSans-49"/>
      <use transform="translate(466.015625 0.684375)" xlink:href="#DejaVuSans-48"/>
      <use transform="translate(530.595703 38.965625)scale(0.7)" xlink:href="#DejaVuSans-8722"/>
      <use transform="translate(589.248047 38.965625)scale(0.7)" xlink:href="#DejaVuSans-49"/>
      <use transform="translate(633.78418 38.965625)scale(0.7)" xlink:href="#DejaVuSans-52"/>
      <use transform="translate(681.054688 0.684375)" xlink:href="#DejaVuSans-115"/>
      <use transform="translate(733.154297 0.684375)" xlink:href="#DejaVuSans-41"/>
     </g>
    </g>
   </g>
   <g id="matplotlib.axis_2">
    <g id="ytick_1">
     <g id="line2d_7">
      <defs>
       <path d="M 0 0 
L -3.5 0 
" id="mb392323369" style="stroke:#000000;stroke-width:0.8;"/>
      </defs>
      <g>
       <use style="stroke:#000000;stroke-width:0.8;" x="144" xlink:href="#mb392323369" y="554.042206"/>
      </g>
     </g>
     <g id="text_8">
      <!-- 0.0 -->
      <g transform="translate(121.096875 557.841425)scale(0.1 -0.1)">
       <use xlink:href="#DejaVuSans-48"/>
       <use x="63.623047" xlink:href="#DejaVuSans-46"/>
       <use x="95.410156" xlink:href="#DejaVuSans-48"/>
      </g>
     </g>
    </g>
    <g id="ytick_2">
     <g id="line2d_8">
      <g>
       <use style="stroke:#000000;stroke-width:0.8;" x="144" xlink:href="#mb392323369" y="486.894569"/>
      </g>
     </g>
     <g id="text_9">
      <!-- 2.5 -->
      <defs>
       <path d="M 10.796875 72.90625 
L 49.515625 72.90625 
L 49.515625 64.59375 
L 19.828125 64.59375 
L 19.828125 46.734375 
Q 21.96875 47.46875 24.109375 47.828125 
Q 26.265625 48.1875 28.421875 48.1875 
Q 40.625 48.1875 47.75 41.5 
Q 54.890625 34.8125 54.890625 23.390625 
Q 54.890625 11.625 47.5625 5.09375 
Q 40.234375 -1.421875 26.90625 -1.421875 
Q 22.3125 -1.421875 17.546875 -0.640625 
Q 12.796875 0.140625 7.71875 1.703125 
L 7.71875 11.625 
Q 12.109375 9.234375 16.796875 8.0625 
Q 21.484375 6.890625 26.703125 6.890625 
Q 35.15625 6.890625 40.078125 11.328125 
Q 45.015625 15.765625 45.015625 23.390625 
Q 45.015625 31 40.078125 35.4375 
Q 35.15625 39.890625 26.703125 39.890625 
Q 22.75 39.890625 18.8125 39.015625 
Q 14.890625 38.140625 10.796875 36.28125 
z
" id="DejaVuSans-53"/>
      </defs>
      <g transform="translate(121.096875 490.693788)scale(0.1 -0.1)">
       <use xlink:href="#DejaVuSans-50"/>
       <use x="63.623047" xlink:href="#DejaVuSans-46"/>
       <use x="95.410156" xlink:href="#DejaVuSans-53"/>
      </g>
     </g>
    </g>
    <g id="ytick_3">
     <g id="line2d_9">
      <g>
       <use style="stroke:#000000;stroke-width:0.8;" x="144" xlink:href="#mb392323369" y="419.746932"/>
      </g>
     </g>
     <g id="text_10">
      <!-- 5.0 -->
      <g transform="translate(121.096875 423.54615)scale(0.1 -0.1)">
       <use xlink:href="#DejaVuSans-53"/>
       <use x="63.623047" xlink:href="#DejaVuSans-46"/>
       <use x="95.410156" xlink:href="#DejaVuSans-48"/>
      </g>
     </g>
    </g>
    <g id="ytick_4">
     <g id="line2d_10">
      <g>
       <use style="stroke:#000000;stroke-width:0.8;" x="144" xlink:href="#mb392323369" y="352.599294"/>
      </g>
     </g>
     <g id="text_11">
      <!-- 7.5 -->
      <defs>
       <path d="M 8.203125 72.90625 
L 55.078125 72.90625 
L 55.078125 68.703125 
L 28.609375 0 
L 18.3125 0 
L 43.21875 64.59375 
L 8.203125 64.59375 
z
" id="DejaVuSans-55"/>
      </defs>
      <g transform="translate(121.096875 356.398513)scale(0.1 -0.1)">
       <use xlink:href="#DejaVuSans-55"/>
       <use x="63.623047" xlink:href="#DejaVuSans-46"/>
       <use x="95.410156" xlink:href="#DejaVuSans-53"/>
      </g>
     </g>
    </g>
    <g id="ytick_5">
     <g id="line2d_11">
      <g>
       <use style="stroke:#000000;stroke-width:0.8;" x="144" xlink:href="#mb392323369" y="285.451657"/>
      </g>
     </g>
     <g id="text_12">
      <!-- 10.0 -->
      <g transform="translate(114.734375 289.250875)scale(0.1 -0.1)">
       <use xlink:href="#DejaVuSans-49"/>
       <use x="63.623047" xlink:href="#DejaVuSans-48"/>
       <use x="127.246094" xlink:href="#DejaVuSans-46"/>
       <use x="159.033203" xlink:href="#DejaVuSans-48"/>
      </g>
     </g>
    </g>
    <g id="ytick_6">
     <g id="line2d_12">
      <g>
       <use style="stroke:#000000;stroke-width:0.8;" x="144" xlink:href="#mb392323369" y="218.304019"/>
      </g>
     </g>
     <g id="text_13">
      <!-- 12.5 -->
      <g transform="translate(114.734375 222.103238)scale(0.1 -0.1)">
       <use xlink:href="#DejaVuSans-49"/>
       <use x="63.623047" xlink:href="#DejaVuSans-50"/>
       <use x="127.246094" xlink:href="#DejaVuSans-46"/>
       <use x="159.033203" xlink:href="#DejaVuSans-53"/>
      </g>
     </g>
    </g>
    <g id="ytick_7">
     <g id="line2d_13">
      <g>
       <use style="stroke:#000000;stroke-width:0.8;" x="144" xlink:href="#mb392323369" y="151.156382"/>
      </g>
     </g>
     <g id="text_14">
      <!-- 15.0 -->
      <g transform="translate(114.734375 154.955601)scale(0.1 -0.1)">
       <use xlink:href="#DejaVuSans-49"/>
       <use x="63.623047" xlink:href="#DejaVuSans-53"/>
       <use x="127.246094" xlink:href="#DejaVuSans-46"/>
       <use x="159.033203" xlink:href="#DejaVuSans-48"/>
      </g>
     </g>
    </g>
    <g id="ytick_8">
     <g id="line2d_14">
      <g>
       <use style="stroke:#000000;stroke-width:0.8;" x="144" xlink:href="#mb392323369" y="84.008744"/>
      </g>
     </g>
     <g id="text_15">
      <!-- 17.5 -->
      <g transform="translate(114.734375 87.807963)scale(0.1 -0.1)">
       <use xlink:href="#DejaVuSans-49"/>
       <use x="63.623047" xlink:href="#DejaVuSans-55"/>
       <use x="127.246094" xlink:href="#DejaVuSans-46"/>
       <use x="159.033203" xlink:href="#DejaVuSans-53"/>
      </g>
     </g>
    </g>
    <g id="text_16">
     <!-- Energy (eV) -->
     <defs>
      <path d="M 9.8125 72.90625 
L 55.90625 72.90625 
L 55.90625 64.59375 
L 19.671875 64.59375 
L 19.671875 43.015625 
L 54.390625 43.015625 
L 54.390625 34.71875 
L 19.671875 34.71875 
L 19.671875 8.296875 
L 56.78125 8.296875 
L 56.78125 0 
L 9.8125 0 
z
" id="DejaVuSans-69"/>
      <path d="M 54.890625 33.015625 
L 54.890625 0 
L 45.90625 0 
L 45.90625 32.71875 
Q 45.90625 40.484375 42.875 44.328125 
Q 39.84375 48.1875 33.796875 48.1875 
Q 26.515625 48.1875 22.3125 43.546875 
Q 18.109375 38.921875 18.109375 30.90625 
L 18.109375 0 
L 9.078125 0 
L 9.078125 54.6875 
L 18.109375 54.6875 
L 18.109375 46.1875 
Q 21.34375 51.125 25.703125 53.5625 
Q 30.078125 56 35.796875 56 
Q 45.21875 56 50.046875 50.171875 
Q 54.890625 44.34375 54.890625 33.015625 
z
" id="DejaVuSans-110"/>
      <path d="M 41.109375 46.296875 
Q 39.59375 47.171875 37.8125 47.578125 
Q 36.03125 48 33.890625 48 
Q 26.265625 48 22.1875 43.046875 
Q 18.109375 38.09375 18.109375 28.8125 
L 18.109375 0 
L 9.078125 0 
L 9.078125 54.6875 
L 18.109375 54.6875 
L 18.109375 46.1875 
Q 20.953125 51.171875 25.484375 53.578125 
Q 30.03125 56 36.53125 56 
Q 37.453125 56 38.578125 55.875 
Q 39.703125 55.765625 41.0625 55.515625 
z
" id="DejaVuSans-114"/>
      <path d="M 45.40625 27.984375 
Q 45.40625 37.75 41.375 43.109375 
Q 37.359375 48.484375 30.078125 48.484375 
Q 22.859375 48.484375 18.828125 43.109375 
Q 14.796875 37.75 14.796875 27.984375 
Q 14.796875 18.265625 18.828125 12.890625 
Q 22.859375 7.515625 30.078125 7.515625 
Q 37.359375 7.515625 41.375 12.890625 
Q 45.40625 18.265625 45.40625 27.984375 
z
M 54.390625 6.78125 
Q 54.390625 -7.171875 48.1875 -13.984375 
Q 42 -20.796875 29.203125 -20.796875 
Q 24.46875 -20.796875 20.265625 -20.09375 
Q 16.0625 -19.390625 12.109375 -17.921875 
L 12.109375 -9.1875 
Q 16.0625 -11.328125 19.921875 -12.34375 
Q 23.78125 -13.375 27.78125 -13.375 
Q 36.625 -13.375 41.015625 -8.765625 
Q 45.40625 -4.15625 45.40625 5.171875 
L 45.40625 9.625 
Q 42.625 4.78125 38.28125 2.390625 
Q 33.9375 0 27.875 0 
Q 17.828125 0 11.671875 7.65625 
Q 5.515625 15.328125 5.515625 27.984375 
Q 5.515625 40.671875 11.671875 48.328125 
Q 17.828125 56 27.875 56 
Q 33.9375 56 38.28125 53.609375 
Q 42.625 51.21875 45.40625 46.390625 
L 45.40625 54.6875 
L 54.390625 54.6875 
z
" id="DejaVuSans-103"/>
      <path d="M 32.171875 -5.078125 
Q 28.375 -14.84375 24.75 -17.8125 
Q 21.140625 -20.796875 15.09375 -20.796875 
L 7.90625 -20.796875 
L 7.90625 -13.28125 
L 13.1875 -13.28125 
Q 16.890625 -13.28125 18.9375 -11.515625 
Q 21 -9.765625 23.484375 -3.21875 
L 25.09375 0.875 
L 2.984375 54.6875 
L 12.5 54.6875 
L 29.59375 11.921875 
L 46.6875 54.6875 
L 56.203125 54.6875 
z
" id="DejaVuSans-121"/>
      <path d="M 28.609375 0 
L 0.78125 72.90625 
L 11.078125 72.90625 
L 34.1875 11.53125 
L 57.328125 72.90625 
L 67.578125 72.90625 
L 39.796875 0 
z
" id="DejaVuSans-86"/>
     </defs>
     <g transform="translate(108.654687 356.820469)rotate(-90)scale(0.1 -0.1)">
      <use xlink:href="#DejaVuSans-69"/>
      <use x="63.183594" xlink:href="#DejaVuSans-110"/>
      <use x="126.5625" xlink:href="#DejaVuSans-101"/>
      <use x="188.085938" xlink:href="#DejaVuSans-114"/>
      <use x="229.183594" xlink:href="#DejaVuSans-103"/>
      <use x="292.660156" xlink:href="#DejaVuSans-121"/>
      <use x="351.839844" xlink:href="#DejaVuSans-32"/>
      <use x="383.626953" xlink:href="#DejaVuSans-40"/>
      <use x="422.640625" xlink:href="#DejaVuSans-101"/>
      <use x="484.164062" xlink:href="#DejaVuSans-86"/>
      <use x="552.572266" xlink:href="#DejaVuSans-41"/>
     </g>
    </g>
   </g>
   <g id="line2d_15">
    <path clip-path="url(#pd4600923d4)" d="M 162.446281 100.445532 
L 166.135537 100.462377 
L 169.824793 100.506047 
L 173.51405 100.58873 
L 177.203306 100.722017 
L 180.892562 100.916829 
L 184.581818 101.183352 
L 188.271074 101.530978 
L 191.960331 101.968256 
L 195.649587 102.502852 
L 199.338843 103.141519 
L 203.028099 103.890076 
L 206.717355 104.753396 
L 210.406612 105.735409 
L 214.095868 106.839108 
L 217.785124 108.066573 
L 221.47438 109.419001 
L 225.163636 110.896741 
L 228.852893 112.499349 
L 232.542149 114.22563 
L 236.231405 116.073706 
L 239.920661 118.041072 
L 243.609917 120.12466 
L 247.299174 122.320904 
L 250.98843 124.625802 
L 254.677686 127.034976 
L 258.366942 129.543736 
L 262.056198 132.147131 
L 265.745455 134.840011 
L 269.434711 137.617071 
L 273.123967 140.472904 
L 276.813223 143.402047 
L 280.502479 146.399021 
L 284.191736 149.458371 
L 287.880992 152.5747 
L 291.570248 155.742705 
L 295.259504 158.957198 
L 298.94876 162.213131 
L 302.638017 165.505617 
L 306.327273 168.829939 
L 310.016529 172.181564 
L 313.705785 175.556148 
L 317.395041 178.949537 
L 321.084298 182.357765 
L 324.773554 185.777053 
L 328.46281 189.203799 
L 332.152066 192.634573 
L 335.841322 196.066099 
L 339.530579 199.495251 
L 343.219835 202.919033 
L 346.909091 206.334564 
L 350.598347 209.739064 
L 354.287603 213.129838 
L 357.97686 216.50425 
L 361.666116 219.859717 
L 365.355372 223.193678 
L 369.044628 226.503595 
L 372.733884 229.786923 
L 376.42314 233.041109 
L 380.112397 236.263568 
L 383.801653 239.451693 
L 387.490909 242.602846 
L 391.180165 245.714364 
L 394.869421 248.783557 
L 398.558678 251.807721 
L 402.247934 254.784163 
L 405.93719 257.71021 
L 409.626446 260.583231 
L 413.315702 263.40067 
L 417.004959 266.160065 
L 420.694215 268.859085 
L 424.383471 271.495558 
L 428.072727 274.067501 
L 431.761983 276.573152 
L 435.45124 279.010998 
L 439.140496 281.379802 
L 442.829752 283.678634 
L 446.519008 285.906888 
L 450.208264 288.064301 
L 453.897521 290.150968 
L 457.586777 292.16736 
L 461.276033 294.114324 
L 464.965289 295.993086 
L 468.654545 297.80525 
L 472.343802 299.552791 
L 476.033058 301.238048 
L 479.722314 302.863708 
L 483.41157 304.432776 
L 487.100826 305.948554 
L 490.790083 307.414631 
L 494.479339 308.83484 
L 498.168595 310.213219 
L 501.857851 311.553983 
L 505.547107 312.86148 
L 509.236364 314.140157 
L 512.92562 315.394538 
L 516.614876 316.629154 
L 520.304132 317.848491 
L 523.993388 319.056985 
L 527.682645 320.25899 
L 531.371901 321.458701 
" style="fill:none;stroke:#ff0000;stroke-dasharray:5.55,2.4;stroke-dashoffset:0;stroke-width:1.5;"/>
   </g>
   <g id="line2d_16">
    <path clip-path="url(#pd4600923d4)" d="M 162.446281 554.04 
L 166.135537 554.024689 
L 169.824793 553.983571 
L 173.51405 553.904455 
L 177.203306 553.775745 
L 180.892562 553.586506 
L 184.581818 553.326532 
L 188.271074 552.986398 
L 191.960331 552.557506 
L 195.649587 552.03212 
L 199.338843 551.403396 
L 203.028099 550.665402 
L 206.717355 549.813123 
L 210.406612 548.842465 
L 214.095868 547.750246 
L 217.785124 546.534182 
L 221.47438 545.19286 
L 225.163636 543.725708 
L 228.852893 542.132961 
L 232.542149 540.415612 
L 236.231405 538.575367 
L 239.920661 536.614589 
L 243.609917 534.536245 
L 247.299174 532.343843 
L 250.98843 530.041374 
L 254.677686 527.633245 
L 258.366942 525.124221 
L 262.056198 522.519357 
L 265.745455 519.823942 
L 269.434711 517.043437 
L 273.123967 514.18342 
L 276.813223 511.249532 
L 280.502479 508.247428 
L 284.191736 505.182732 
L 287.880992 502.060997 
L 291.570248 498.887672 
L 295.259504 495.668069 
L 298.94876 492.40734 
L 302.638017 489.110459 
L 306.327273 485.782203 
L 310.016529 482.42715 
L 313.705785 479.049666 
L 317.395041 475.653908 
L 321.084298 472.243828 
L 324.773554 468.823174 
L 328.46281 465.395503 
L 332.152066 461.96419 
L 335.841322 458.532443 
L 339.530579 455.103316 
L 343.219835 451.679726 
L 346.909091 448.264475 
L 350.598347 444.860263 
L 354.287603 441.469713 
L 357.97686 438.095385 
L 361.666116 434.739805 
L 365.355372 431.405472 
L 369.044628 428.094886 
L 372.733884 424.810555 
L 376.42314 421.555014 
L 380.112397 418.330829 
L 383.801653 415.140608 
L 387.490909 411.986995 
L 391.180165 408.872675 
L 394.869421 405.80036 
L 398.558678 402.77278 
L 402.247934 399.792665 
L 405.93719 396.862725 
L 409.626446 393.985627 
L 413.315702 391.163968 
L 417.004959 388.400249 
L 420.694215 385.696838 
L 424.383471 383.055942 
L 428.072727 380.479578 
L 431.761983 377.96954 
L 435.45124 375.527367 
L 439.140496 373.154318 
L 442.829752 370.851347 
L 446.519008 368.619078 
L 450.208264 366.457791 
L 453.897521 364.367401 
L 457.586777 362.347449 
L 461.276033 360.397098 
L 464.965289 358.515129 
L 468.654545 356.699941 
L 472.343802 354.949561 
L 476.033058 353.261653 
L 479.722314 351.633539 
L 483.41157 350.062211 
L 487.100826 348.544358 
L 490.790083 347.076395 
L 494.479339 345.654492 
L 498.168595 344.274608 
L 501.857851 342.932528 
L 505.547107 341.623893 
L 509.236364 340.344249 
L 512.92562 339.089085 
L 516.614876 337.853873 
L 520.304132 336.634102 
L 523.993388 335.42533 
L 527.682645 334.223216 
L 531.371901 333.023562 
" style="fill:none;stroke:#0000ff;stroke-dasharray:5.55,2.4;stroke-dashoffset:0;stroke-width:1.5;"/>
   </g>
   <g id="line2d_17">
    <path clip-path="url(#pd4600923d4)" d="M 162.446281 100.443326 
L 166.135537 100.444859 
L 169.824793 100.447411 
L 173.51405 100.450978 
L 177.203306 100.455555 
L 180.892562 100.461128 
L 184.581818 100.467677 
L 188.271074 100.47517 
L 191.960331 100.483556 
L 195.649587 100.492765 
L 199.338843 100.502709 
L 203.028099 100.513272 
L 206.717355 100.524313 
L 210.406612 100.535668 
L 214.095868 100.547148 
L 217.785124 100.558549 
L 221.47438 100.569654 
L 225.163636 100.580243 
L 228.852893 100.590104 
L 232.542149 100.599036 
L 236.231405 100.606866 
L 239.920661 100.613455 
L 243.609917 100.618699 
L 247.299174 100.622541 
L 250.98843 100.62497 
L 254.677686 100.626015 
L 258.366942 100.62575 
L 262.056198 100.624282 
L 265.745455 100.621746 
L 269.434711 100.618302 
L 273.123967 100.614118 
L 276.813223 100.609373 
L 280.502479 100.604243 
L 284.191736 100.598896 
L 287.880992 100.593491 
L 291.570248 100.588171 
L 295.259504 100.58306 
L 298.94876 100.578265 
L 302.638017 100.573869 
L 306.327273 100.569936 
L 310.016529 100.566508 
L 313.705785 100.563608 
L 317.395041 100.561238 
L 321.084298 100.559387 
L 324.773554 100.558021 
L 328.46281 100.557096 
L 332.152066 100.556557 
L 335.841322 100.556335 
L 339.530579 100.55636 
L 343.219835 100.556553 
L 346.909091 100.556833 
L 350.598347 100.557121 
L 354.287603 100.557344 
L 357.97686 100.557429 
L 361.666116 100.557315 
L 365.355372 100.556944 
L 369.044628 100.556275 
L 372.733884 100.555272 
L 376.42314 100.553916 
L 380.112397 100.552191 
L 383.801653 100.550094 
L 387.490909 100.547635 
L 391.180165 100.544833 
L 394.869421 100.541711 
L 398.558678 100.538295 
L 402.247934 100.534622 
L 405.93719 100.530728 
L 409.626446 100.526651 
L 413.315702 100.522432 
L 417.004959 100.518107 
L 420.694215 100.513716 
L 424.383471 100.509293 
L 428.072727 100.504873 
L 431.761983 100.500486 
L 435.45124 100.496158 
L 439.140496 100.491913 
L 442.829752 100.487774 
L 446.519008 100.48376 
L 450.208264 100.479886 
L 453.897521 100.476162 
L 457.586777 100.472603 
L 461.276033 100.469215 
L 464.965289 100.466008 
L 468.654545 100.462985 
L 472.343802 100.460146 
L 476.033058 100.457495 
L 479.722314 100.455041 
L 483.41157 100.452781 
L 487.100826 100.450706 
L 490.790083 100.448819 
L 494.479339 100.447126 
L 498.168595 100.445621 
L 501.857851 100.444305 
L 505.547107 100.443167 
L 509.236364 100.442199 
L 512.92562 100.441416 
L 516.614876 100.440821 
L 520.304132 100.440387 
L 523.993388 100.440108 
L 527.682645 100.44 
L 531.371901 100.440057 
" style="fill:none;stroke:#4f0066;stroke-linecap:square;stroke-width:1.5;"/>
   </g>
   <g id="patch_3">
    <path d="M 144 576.72 
L 144 77.76 
" style="fill:none;stroke:#000000;stroke-linecap:square;stroke-linejoin:miter;stroke-width:0.8;"/>
   </g>
   <g id="patch_4">
    <path d="M 549.818182 576.72 
L 549.818182 77.76 
" style="fill:none;stroke:#000000;stroke-linecap:square;stroke-linejoin:miter;stroke-width:0.8;"/>
   </g>
   <g id="patch_5">
    <path d="M 144 576.72 
L 549.818182 576.72 
" style="fill:none;stroke:#000000;stroke-linecap:square;stroke-linejoin:miter;stroke-width:0.8;"/>
   </g>
   <g id="patch_6">
    <path d="M 144 77.76 
L 549.818182 77.76 
" style="fill:none;stroke:#000000;stroke-linecap:square;stroke-linejoin:miter;stroke-width:0.8;"/>
   </g>
   <g id="text_17">
    <!-- Work and Energy -->
    <defs>
     <path d="M 3.328125 72.90625 
L 13.28125 72.90625 
L 28.609375 11.28125 
L 43.890625 72.90625 
L 54.984375 72.90625 
L 70.3125 11.28125 
L 85.59375 72.90625 
L 95.609375 72.90625 
L 77.296875 0 
L 64.890625 0 
L 49.515625 63.28125 
L 33.984375 0 
L 21.578125 0 
z
" id="DejaVuSans-87"/>
     <path d="M 30.609375 48.390625 
Q 23.390625 48.390625 19.1875 42.75 
Q 14.984375 37.109375 14.984375 27.296875 
Q 14.984375 17.484375 19.15625 11.84375 
Q 23.34375 6.203125 30.609375 6.203125 
Q 37.796875 6.203125 41.984375 11.859375 
Q 46.1875 17.53125 46.1875 27.296875 
Q 46.1875 37.015625 41.984375 42.703125 
Q 37.796875 48.390625 30.609375 48.390625 
z
M 30.609375 56 
Q 42.328125 56 49.015625 48.375 
Q 55.71875 40.765625 55.71875 27.296875 
Q 55.71875 13.875 49.015625 6.21875 
Q 42.328125 -1.421875 30.609375 -1.421875 
Q 18.84375 -1.421875 12.171875 6.21875 
Q 5.515625 13.875 5.515625 27.296875 
Q 5.515625 40.765625 12.171875 48.375 
Q 18.84375 56 30.609375 56 
z
" id="DejaVuSans-111"/>
     <path d="M 9.078125 75.984375 
L 18.109375 75.984375 
L 18.109375 31.109375 
L 44.921875 54.6875 
L 56.390625 54.6875 
L 27.390625 29.109375 
L 57.625 0 
L 45.90625 0 
L 18.109375 26.703125 
L 18.109375 0 
L 9.078125 0 
z
" id="DejaVuSans-107"/>
     <path d="M 34.28125 27.484375 
Q 23.390625 27.484375 19.1875 25 
Q 14.984375 22.515625 14.984375 16.5 
Q 14.984375 11.71875 18.140625 8.90625 
Q 21.296875 6.109375 26.703125 6.109375 
Q 34.1875 6.109375 38.703125 11.40625 
Q 43.21875 16.703125 43.21875 25.484375 
L 43.21875 27.484375 
z
M 52.203125 31.203125 
L 52.203125 0 
L 43.21875 0 
L 43.21875 8.296875 
Q 40.140625 3.328125 35.546875 0.953125 
Q 30.953125 -1.421875 24.3125 -1.421875 
Q 15.921875 -1.421875 10.953125 3.296875 
Q 6 8.015625 6 15.921875 
Q 6 25.140625 12.171875 29.828125 
Q 18.359375 34.515625 30.609375 34.515625 
L 43.21875 34.515625 
L 43.21875 35.40625 
Q 43.21875 41.609375 39.140625 45 
Q 35.0625 48.390625 27.6875 48.390625 
Q 23 48.390625 18.546875 47.265625 
Q 14.109375 46.140625 10.015625 43.890625 
L 10.015625 52.203125 
Q 14.9375 54.109375 19.578125 55.046875 
Q 24.21875 56 28.609375 56 
Q 40.484375 56 46.34375 49.84375 
Q 52.203125 43.703125 52.203125 31.203125 
z
" id="DejaVuSans-97"/>
     <path d="M 45.40625 46.390625 
L 45.40625 75.984375 
L 54.390625 75.984375 
L 54.390625 0 
L 45.40625 0 
L 45.40625 8.203125 
Q 42.578125 3.328125 38.25 0.953125 
Q 33.9375 -1.421875 27.875 -1.421875 
Q 17.96875 -1.421875 11.734375 6.484375 
Q 5.515625 14.40625 5.515625 27.296875 
Q 5.515625 40.1875 11.734375 48.09375 
Q 17.96875 56 27.875 56 
Q 33.9375 56 38.25 53.625 
Q 42.578125 51.265625 45.40625 46.390625 
z
M 14.796875 27.296875 
Q 14.796875 17.390625 18.875 11.75 
Q 22.953125 6.109375 30.078125 6.109375 
Q 37.203125 6.109375 41.296875 11.75 
Q 45.40625 17.390625 45.40625 27.296875 
Q 45.40625 37.203125 41.296875 42.84375 
Q 37.203125 48.484375 30.078125 48.484375 
Q 22.953125 48.484375 18.875 42.84375 
Q 14.796875 37.203125 14.796875 27.296875 
z
" id="DejaVuSans-100"/>
    </defs>
    <g transform="translate(295.155341 71.76)scale(0.12 -0.12)">
     <use xlink:href="#DejaVuSans-87"/>
     <use x="98.798828" xlink:href="#DejaVuSans-111"/>
     <use x="159.980469" xlink:href="#DejaVuSans-114"/>
     <use x="201.09375" xlink:href="#DejaVuSans-107"/>
     <use x="259.003906" xlink:href="#DejaVuSans-32"/>
     <use x="290.791016" xlink:href="#DejaVuSans-97"/>
     <use x="352.070312" xlink:href="#DejaVuSans-110"/>
     <use x="415.449219" xlink:href="#DejaVuSans-100"/>
     <use x="478.925781" xlink:href="#DejaVuSans-32"/>
     <use x="510.712891" xlink:href="#DejaVuSans-69"/>
     <use x="573.896484" xlink:href="#DejaVuSans-110"/>
     <use x="637.275391" xlink:href="#DejaVuSans-101"/>
     <use x="698.798828" xlink:href="#DejaVuSans-114"/>
     <use x="739.896484" xlink:href="#DejaVuSans-103"/>
     <use x="803.373047" xlink:href="#DejaVuSans-121"/>
    </g>
   </g>
   <g id="legend_1">
    <g id="patch_7">
     <path d="M 406.791619 571.72 
L 542.818182 571.72 
Q 544.818182 571.72 544.818182 569.72 
L 544.818182 526.4075 
Q 544.818182 524.4075 542.818182 524.4075 
L 406.791619 524.4075 
Q 404.791619 524.4075 404.791619 526.4075 
L 404.791619 569.72 
Q 404.791619 571.72 406.791619 571.72 
z
" style="fill:#ffffff;opacity:0.8;stroke:#cccccc;stroke-linejoin:miter;"/>
    </g>
    <g id="line2d_18">
     <path d="M 408.791619 532.505938 
L 428.791619 532.505938 
" style="fill:none;stroke:#ff0000;stroke-dasharray:5.55,2.4;stroke-dashoffset:0;stroke-width:1.5;"/>
    </g>
    <g id="line2d_19"/>
    <g id="text_18">
     <!-- Total Energy -->
     <defs>
      <path d="M 18.3125 70.21875 
L 18.3125 54.6875 
L 36.8125 54.6875 
L 36.8125 47.703125 
L 18.3125 47.703125 
L 18.3125 18.015625 
Q 18.3125 11.328125 20.140625 9.421875 
Q 21.96875 7.515625 27.59375 7.515625 
L 36.8125 7.515625 
L 36.8125 0 
L 27.59375 0 
Q 17.1875 0 13.234375 3.875 
Q 9.28125 7.765625 9.28125 18.015625 
L 9.28125 47.703125 
L 2.6875 47.703125 
L 2.6875 54.6875 
L 9.28125 54.6875 
L 9.28125 70.21875 
z
" id="DejaVuSans-116"/>
      <path d="M 9.421875 75.984375 
L 18.40625 75.984375 
L 18.40625 0 
L 9.421875 0 
z
" id="DejaVuSans-108"/>
     </defs>
     <g transform="translate(436.791619 536.005938)scale(0.1 -0.1)">
      <use xlink:href="#DejaVuSans-84"/>
      <use x="60.818359" xlink:href="#DejaVuSans-111"/>
      <use x="122" xlink:href="#DejaVuSans-116"/>
      <use x="161.208984" xlink:href="#DejaVuSans-97"/>
      <use x="222.488281" xlink:href="#DejaVuSans-108"/>
      <use x="250.271484" xlink:href="#DejaVuSans-32"/>
      <use x="282.058594" xlink:href="#DejaVuSans-69"/>
      <use x="345.242188" xlink:href="#DejaVuSans-110"/>
      <use x="408.621094" xlink:href="#DejaVuSans-101"/>
      <use x="470.144531" xlink:href="#DejaVuSans-114"/>
      <use x="511.242188" xlink:href="#DejaVuSans-103"/>
      <use x="574.71875" xlink:href="#DejaVuSans-121"/>
     </g>
    </g>
    <g id="line2d_20">
     <path d="M 408.791619 547.184062 
L 428.791619 547.184062 
" style="fill:none;stroke:#0000ff;stroke-dasharray:5.55,2.4;stroke-dashoffset:0;stroke-width:1.5;"/>
    </g>
    <g id="line2d_21"/>
    <g id="text_19">
     <!-- Total_Work -->
     <defs>
      <path d="M 50.984375 -16.609375 
L 50.984375 -23.578125 
L -0.984375 -23.578125 
L -0.984375 -16.609375 
z
" id="DejaVuSans-95"/>
     </defs>
     <g transform="translate(436.791619 550.684062)scale(0.1 -0.1)">
      <use xlink:href="#DejaVuSans-84"/>
      <use x="60.818359" xlink:href="#DejaVuSans-111"/>
      <use x="122" xlink:href="#DejaVuSans-116"/>
      <use x="161.208984" xlink:href="#DejaVuSans-97"/>
      <use x="222.488281" xlink:href="#DejaVuSans-108"/>
      <use x="250.271484" xlink:href="#DejaVuSans-95"/>
      <use x="300.271484" xlink:href="#DejaVuSans-87"/>
      <use x="399.070312" xlink:href="#DejaVuSans-111"/>
      <use x="460.251953" xlink:href="#DejaVuSans-114"/>
      <use x="501.365234" xlink:href="#DejaVuSans-107"/>
     </g>
    </g>
    <g id="line2d_22">
     <path d="M 408.791619 562.140313 
L 428.791619 562.140313 
" style="fill:none;stroke:#4f0066;stroke-linecap:square;stroke-width:1.5;"/>
    </g>
    <g id="line2d_23"/>
    <g id="text_20">
     <!-- Total Energy + Work -->
     <defs>
      <path d="M 46 62.703125 
L 46 35.5 
L 73.1875 35.5 
L 73.1875 27.203125 
L 46 27.203125 
L 46 0 
L 37.796875 0 
L 37.796875 27.203125 
L 10.59375 27.203125 
L 10.59375 35.5 
L 37.796875 35.5 
L 37.796875 62.703125 
z
" id="DejaVuSans-43"/>
     </defs>
     <g transform="translate(436.791619 565.640313)scale(0.1 -0.1)">
      <use xlink:href="#DejaVuSans-84"/>
      <use x="60.818359" xlink:href="#DejaVuSans-111"/>
      <use x="122" xlink:href="#DejaVuSans-116"/>
      <use x="161.208984" xlink:href="#DejaVuSans-97"/>
      <use x="222.488281" xlink:href="#DejaVuSans-108"/>
      <use x="250.271484" xlink:href="#DejaVuSans-32"/>
      <use x="282.058594" xlink:href="#DejaVuSans-69"/>
      <use x="345.242188" xlink:href="#DejaVuSans-110"/>
      <use x="408.621094" xlink:href="#DejaVuSans-101"/>
      <use x="470.144531" xlink:href="#DejaVuSans-114"/>
      <use x="511.242188" xlink:href="#DejaVuSans-103"/>
      <use x="574.71875" xlink:href="#DejaVuSans-121"/>
      <use x="633.898438" xlink:href="#DejaVuSans-32"/>
      <use x="665.685547" xlink:href="#DejaVuSans-43"/>
      <use x="749.474609" xlink:href="#DejaVuSans-32"/>
      <use x="781.261719" xlink:href="#DejaVuSans-87"/>
      <use x="880.060547" xlink:href="#DejaVuSans-111"/>
      <use x="941.242188" xlink:href="#DejaVuSans-114"/>
      <use x="982.355469" xlink:href="#DejaVuSans-107"/>
     </g>
    </g>
   </g>
  </g>
  <g id="axes_2">
   <g id="patch_8">
    <path d="M 630.981818 576.72 
L 1036.8 576.72 
L 1036.8 77.76 
L 630.981818 77.76 
z
" style="fill:#ffffff;"/>
   </g>
   <g id="matplotlib.axis_3">
    <g id="xtick_7">
     <g id="line2d_24">
      <g>
       <use style="stroke:#000000;stroke-width:0.8;" x="649.428099" xlink:href="#m01d7c4935a" y="576.72"/>
      </g>
     </g>
     <g id="text_21">
      <!-- 0.0 -->
      <g transform="translate(641.476537 591.318438)scale(0.1 -0.1)">
       <use xlink:href="#DejaVuSans-48"/>
       <use x="63.623047" xlink:href="#DejaVuSans-46"/>
       <use x="95.410156" xlink:href="#DejaVuSans-48"/>
      </g>
     </g>
    </g>
    <g id="xtick_8">
     <g id="line2d_25">
      <g>
       <use style="stroke:#000000;stroke-width:0.8;" x="723.213223" xlink:href="#m01d7c4935a" y="576.72"/>
      </g>
     </g>
     <g id="text_22">
      <!-- 0.2 -->
      <g transform="translate(715.261661 591.318438)scale(0.1 -0.1)">
       <use xlink:href="#DejaVuSans-48"/>
       <use x="63.623047" xlink:href="#DejaVuSans-46"/>
       <use x="95.410156" xlink:href="#DejaVuSans-50"/>
      </g>
     </g>
    </g>
    <g id="xtick_9">
     <g id="line2d_26">
      <g>
       <use style="stroke:#000000;stroke-width:0.8;" x="796.998347" xlink:href="#m01d7c4935a" y="576.72"/>
      </g>
     </g>
     <g id="text_23">
      <!-- 0.4 -->
      <g transform="translate(789.046785 591.318438)scale(0.1 -0.1)">
       <use xlink:href="#DejaVuSans-48"/>
       <use x="63.623047" xlink:href="#DejaVuSans-46"/>
       <use x="95.410156" xlink:href="#DejaVuSans-52"/>
      </g>
     </g>
    </g>
    <g id="xtick_10">
     <g id="line2d_27">
      <g>
       <use style="stroke:#000000;stroke-width:0.8;" x="870.783471" xlink:href="#m01d7c4935a" y="576.72"/>
      </g>
     </g>
     <g id="text_24">
      <!-- 0.6 -->
      <g transform="translate(862.831909 591.318438)scale(0.1 -0.1)">
       <use xlink:href="#DejaVuSans-48"/>
       <use x="63.623047" xlink:href="#DejaVuSans-46"/>
       <use x="95.410156" xlink:href="#DejaVuSans-54"/>
      </g>
     </g>
    </g>
    <g id="xtick_11">
     <g id="line2d_28">
      <g>
       <use style="stroke:#000000;stroke-width:0.8;" x="944.568595" xlink:href="#m01d7c4935a" y="576.72"/>
      </g>
     </g>
     <g id="text_25">
      <!-- 0.8 -->
      <g transform="translate(936.617033 591.318438)scale(0.1 -0.1)">
       <use xlink:href="#DejaVuSans-48"/>
       <use x="63.623047" xlink:href="#DejaVuSans-46"/>
       <use x="95.410156" xlink:href="#DejaVuSans-56"/>
      </g>
     </g>
    </g>
    <g id="xtick_12">
     <g id="line2d_29">
      <g>
       <use style="stroke:#000000;stroke-width:0.8;" x="1018.353719" xlink:href="#m01d7c4935a" y="576.72"/>
      </g>
     </g>
     <g id="text_26">
      <!-- 1.0 -->
      <g transform="translate(1010.402157 591.318438)scale(0.1 -0.1)">
       <use xlink:href="#DejaVuSans-49"/>
       <use x="63.623047" xlink:href="#DejaVuSans-46"/>
       <use x="95.410156" xlink:href="#DejaVuSans-48"/>
      </g>
     </g>
    </g>
    <g id="text_27">
     <!-- Time (~$10^{-14}$s) -->
     <g transform="translate(795.240909 605.718438)scale(0.1 -0.1)">
      <use transform="translate(0 0.684375)" xlink:href="#DejaVuSans-84"/>
      <use transform="translate(61.083984 0.684375)" xlink:href="#DejaVuSans-105"/>
      <use transform="translate(88.867188 0.684375)" xlink:href="#DejaVuSans-109"/>
      <use transform="translate(186.279297 0.684375)" xlink:href="#DejaVuSans-101"/>
      <use transform="translate(247.802734 0.684375)" xlink:href="#DejaVuSans-32"/>
      <use transform="translate(279.589844 0.684375)" xlink:href="#DejaVuSans-40"/>
      <use transform="translate(318.603516 0.684375)" xlink:href="#DejaVuSans-126"/>
      <use transform="translate(402.392578 0.684375)" xlink:href="#DejaVuSans-49"/>
      <use transform="translate(466.015625 0.684375)" xlink:href="#DejaVuSans-48"/>
      <use transform="translate(530.595703 38.965625)scale(0.7)" xlink:href="#DejaVuSans-8722"/>
      <use transform="translate(589.248047 38.965625)scale(0.7)" xlink:href="#DejaVuSans-49"/>
      <use transform="translate(633.78418 38.965625)scale(0.7)" xlink:href="#DejaVuSans-52"/>
      <use transform="translate(681.054688 0.684375)" xlink:href="#DejaVuSans-115"/>
      <use transform="translate(733.154297 0.684375)" xlink:href="#DejaVuSans-41"/>
     </g>
    </g>
   </g>
   <g id="matplotlib.axis_4">
    <g id="ytick_9">
     <g id="line2d_30">
      <g>
       <use style="stroke:#000000;stroke-width:0.8;" x="630.981818" xlink:href="#mb392323369" y="554.042206"/>
      </g>
     </g>
    </g>
    <g id="ytick_10">
     <g id="line2d_31">
      <g>
       <use style="stroke:#000000;stroke-width:0.8;" x="630.981818" xlink:href="#mb392323369" y="486.894569"/>
      </g>
     </g>
    </g>
    <g id="ytick_11">
     <g id="line2d_32">
      <g>
       <use style="stroke:#000000;stroke-width:0.8;" x="630.981818" xlink:href="#mb392323369" y="419.746932"/>
      </g>
     </g>
    </g>
    <g id="ytick_12">
     <g id="line2d_33">
      <g>
       <use style="stroke:#000000;stroke-width:0.8;" x="630.981818" xlink:href="#mb392323369" y="352.599294"/>
      </g>
     </g>
    </g>
    <g id="ytick_13">
     <g id="line2d_34">
      <g>
       <use style="stroke:#000000;stroke-width:0.8;" x="630.981818" xlink:href="#mb392323369" y="285.451657"/>
      </g>
     </g>
    </g>
    <g id="ytick_14">
     <g id="line2d_35">
      <g>
       <use style="stroke:#000000;stroke-width:0.8;" x="630.981818" xlink:href="#mb392323369" y="218.304019"/>
      </g>
     </g>
    </g>
    <g id="ytick_15">
     <g id="line2d_36">
      <g>
       <use style="stroke:#000000;stroke-width:0.8;" x="630.981818" xlink:href="#mb392323369" y="151.156382"/>
      </g>
     </g>
    </g>
    <g id="ytick_16">
     <g id="line2d_37">
      <g>
       <use style="stroke:#000000;stroke-width:0.8;" x="630.981818" xlink:href="#mb392323369" y="84.008744"/>
      </g>
     </g>
    </g>
    <g id="text_28">
     <!-- Energy (eV) -->
     <g transform="translate(624.902131 356.820469)rotate(-90)scale(0.1 -0.1)">
      <use xlink:href="#DejaVuSans-69"/>
      <use x="63.183594" xlink:href="#DejaVuSans-110"/>
      <use x="126.5625" xlink:href="#DejaVuSans-101"/>
      <use x="188.085938" xlink:href="#DejaVuSans-114"/>
      <use x="229.183594" xlink:href="#DejaVuSans-103"/>
      <use x="292.660156" xlink:href="#DejaVuSans-121"/>
      <use x="351.839844" xlink:href="#DejaVuSans-32"/>
      <use x="383.626953" xlink:href="#DejaVuSans-40"/>
      <use x="422.640625" xlink:href="#DejaVuSans-101"/>
      <use x="484.164062" xlink:href="#DejaVuSans-86"/>
      <use x="552.572266" xlink:href="#DejaVuSans-41"/>
     </g>
    </g>
   </g>
   <g id="line2d_38">
    <path clip-path="url(#p82bee40933)" d="M 649.428099 100.859601 
L 653.117355 102.103282 
L 656.806612 104.159908 
L 660.495868 107.009779 
L 664.185124 110.627535 
L 667.87438 114.98262 
L 671.563636 120.039803 
L 675.252893 125.759677 
L 678.942149 132.099158 
L 682.631405 139.012005 
L 686.320661 146.449344 
L 690.009917 154.360205 
L 693.699174 162.692069 
L 697.38843 171.39141 
L 701.077686 180.404229 
L 704.766942 189.676578 
L 708.456198 199.155068 
L 712.145455 208.787348 
L 715.834711 218.522558 
L 719.523967 228.31175 
L 723.213223 238.108267 
L 726.902479 247.868081 
L 730.591736 257.550089 
L 734.280992 267.116353 
L 737.970248 276.5323 
L 741.659504 285.766858 
L 745.34876 294.792549 
L 749.038017 303.585527 
L 752.727273 312.125566 
L 756.416529 320.395999 
L 760.105785 328.38361 
L 763.795041 336.078489 
L 767.484298 343.473838 
L 771.173554 350.565757 
L 774.86281 357.352995 
L 778.552066 363.836676 
L 782.241322 370.020021 
L 785.930579 375.908049 
L 789.619835 381.507281 
L 793.309091 386.825455 
L 796.998347 391.871234 
L 800.687603 396.653944 
L 804.37686 401.18332 
L 808.066116 405.469268 
L 811.755372 409.521655 
L 815.444628 413.350103 
L 819.133884 416.963819 
L 822.82314 420.371419 
L 826.512397 423.58078 
L 830.201653 426.598904 
L 833.890909 429.431792 
L 837.580165 432.084346 
L 841.269421 434.560288 
L 844.958678 436.862106 
L 848.647934 438.991035 
L 852.33719 440.947083 
L 856.026446 442.729089 
L 859.715702 444.334827 
L 863.404959 445.761157 
L 867.094215 447.004209 
L 870.783471 448.059606 
L 874.472727 448.922724 
L 878.161983 449.588951 
L 881.85124 450.053974 
L 885.540496 450.314057 
L 889.229752 450.366324 
L 892.919008 450.209014 
L 896.608264 449.841714 
L 900.297521 449.265568 
L 903.986777 448.48345 
L 907.676033 447.500091 
L 911.365289 446.322172 
L 915.054545 444.958377 
L 918.743802 443.419395 
L 922.433058 441.717891 
L 926.122314 439.868429 
L 929.81157 437.887366 
L 933.500826 435.792706 
L 937.190083 433.60393 
L 940.879339 431.341792 
L 944.568595 429.028103 
L 948.257851 426.685487 
L 951.947107 424.337131 
L 955.636364 422.006521 
L 959.32562 419.717169 
L 963.014876 417.492352 
L 966.704132 415.354847 
L 970.393388 413.32666 
L 974.082645 411.42878 
L 977.771901 409.680947 
L 981.461157 408.101429 
L 985.150413 406.706824 
L 988.839669 405.511876 
L 992.528926 404.529309 
L 996.218182 403.769712 
L 999.907438 403.241448 
L 1003.596694 402.950557 
L 1007.28595 402.900691 
L 1010.975207 403.093131 
L 1014.664463 403.5268 
L 1018.353719 404.198278 
" style="fill:none;stroke:#bf00bf;stroke-linecap:square;stroke-width:1.5;"/>
   </g>
   <g id="line2d_39">
    <path clip-path="url(#p82bee40933)" d="M 649.428099 553.628138 
L 653.117355 552.401301 
L 656.806612 550.388346 
L 660.495868 547.621157 
L 664.185124 544.136688 
L 667.87438 539.976415 
L 671.563636 535.185756 
L 675.252893 529.813508 
L 678.942149 523.911304 
L 682.631405 517.533053 
L 686.320661 510.734382 
L 690.009917 503.572078 
L 693.699174 496.103533 
L 697.38843 488.386205 
L 701.077686 480.477085 
L 704.766942 472.432201 
L 708.456198 464.306139 
L 712.145455 456.1516 
L 715.834711 448.018997 
L 719.523967 439.956086 
L 723.213223 432.007646 
L 726.902479 424.215198 
L 730.591736 416.616778 
L 734.280992 409.246757 
L 737.970248 402.135708 
L 741.659504 395.310325 
L 745.34876 388.793393 
L 749.038017 382.603811 
L 752.727273 376.756652 
L 756.416529 371.263279 
L 760.105785 366.1315 
L 763.795041 361.365765 
L 767.484298 356.96739 
L 771.173554 352.93482 
L 774.86281 349.263912 
L 778.552066 345.948235 
L 782.241322 342.979383 
L 785.930579 340.347289 
L 789.619835 338.040542 
L 793.309091 336.046691 
L 796.998347 334.352537 
L 800.687603 332.944411 
L 804.37686 331.808423 
L 808.066116 330.930703 
L 811.755372 330.297605 
L 815.444628 329.895902 
L 819.133884 329.71296 
L 822.82314 329.736886 
L 826.512397 329.956677 
L 830.201653 330.362335 
L 833.890909 330.944979 
L 837.580165 331.696924 
L 841.269421 332.611756 
L 844.958678 333.684351 
L 848.647934 334.910888 
L 852.33719 336.288801 
L 856.026446 337.816713 
L 859.715702 339.494302 
L 863.404959 341.322158 
L 867.094215 343.301566 
L 870.783471 345.434292 
L 874.472727 347.722328 
L 878.161983 350.167619 
L 881.85124 352.77179 
L 885.540496 355.535871 
L 889.229752 358.460045 
L 892.919008 361.543402 
L 896.608264 364.783724 
L 900.297521 368.177308 
L 903.986777 371.718821 
L 907.676033 375.4012 
L 911.365289 379.215592 
L 915.054545 383.151331 
L 918.743802 387.195963 
L 922.433058 391.335313 
L 926.122314 395.553579 
L 929.81157 399.833474 
L 933.500826 404.156389 
L 937.190083 408.502578 
L 940.879339 412.851382 
L 944.568595 417.181463 
L 948.257851 421.471043 
L 951.947107 425.698161 
L 955.636364 429.840936 
L 959.32562 433.877829 
L 963.014876 437.787902 
L 966.704132 441.551067 
L 970.393388 445.148322 
L 974.082645 448.56198 
L 977.771901 451.77589 
L 981.461157 454.775617 
L 985.150413 457.548602 
L 988.839669 460.084314 
L 992.528926 462.374377 
L 996.218182 464.412651 
L 999.907438 466.195296 
L 1003.596694 467.720804 
L 1007.28595 468.990007 
L 1010.975207 470.006061 
L 1014.664463 470.774397 
L 1018.353719 471.302629 
" style="fill:none;stroke:#00bfbf;stroke-linecap:square;stroke-width:1.5;"/>
   </g>
   <g id="patch_9">
    <path d="M 630.981818 576.72 
L 630.981818 77.76 
" style="fill:none;stroke:#000000;stroke-linecap:square;stroke-linejoin:miter;stroke-width:0.8;"/>
   </g>
   <g id="patch_10">
    <path d="M 1036.8 576.72 
L 1036.8 77.76 
" style="fill:none;stroke:#000000;stroke-linecap:square;stroke-linejoin:miter;stroke-width:0.8;"/>
   </g>
   <g id="patch_11">
    <path d="M 630.981818 576.72 
L 1036.8 576.72 
" style="fill:none;stroke:#000000;stroke-linecap:square;stroke-linejoin:miter;stroke-width:0.8;"/>
   </g>
   <g id="patch_12">
    <path d="M 630.981818 77.76 
L 1036.8 77.76 
" style="fill:none;stroke:#000000;stroke-linecap:square;stroke-linejoin:miter;stroke-width:0.8;"/>
   </g>
   <g id="text_29">
    <!-- Potential and Kinetic Energy -->
    <defs>
     <path d="M 19.671875 64.796875 
L 19.671875 37.40625 
L 32.078125 37.40625 
Q 38.96875 37.40625 42.71875 40.96875 
Q 46.484375 44.53125 46.484375 51.125 
Q 46.484375 57.671875 42.71875 61.234375 
Q 38.96875 64.796875 32.078125 64.796875 
z
M 9.8125 72.90625 
L 32.078125 72.90625 
Q 44.34375 72.90625 50.609375 67.359375 
Q 56.890625 61.8125 56.890625 51.125 
Q 56.890625 40.328125 50.609375 34.8125 
Q 44.34375 29.296875 32.078125 29.296875 
L 19.671875 29.296875 
L 19.671875 0 
L 9.8125 0 
z
" id="DejaVuSans-80"/>
     <path d="M 9.8125 72.90625 
L 19.671875 72.90625 
L 19.671875 42.09375 
L 52.390625 72.90625 
L 65.09375 72.90625 
L 28.90625 38.921875 
L 67.671875 0 
L 54.6875 0 
L 19.671875 35.109375 
L 19.671875 0 
L 9.8125 0 
z
" id="DejaVuSans-75"/>
     <path d="M 48.78125 52.59375 
L 48.78125 44.1875 
Q 44.96875 46.296875 41.140625 47.34375 
Q 37.3125 48.390625 33.40625 48.390625 
Q 24.65625 48.390625 19.8125 42.84375 
Q 14.984375 37.3125 14.984375 27.296875 
Q 14.984375 17.28125 19.8125 11.734375 
Q 24.65625 6.203125 33.40625 6.203125 
Q 37.3125 6.203125 41.140625 7.25 
Q 44.96875 8.296875 48.78125 10.40625 
L 48.78125 2.09375 
Q 45.015625 0.34375 40.984375 -0.53125 
Q 36.96875 -1.421875 32.421875 -1.421875 
Q 20.0625 -1.421875 12.78125 6.34375 
Q 5.515625 14.109375 5.515625 27.296875 
Q 5.515625 40.671875 12.859375 48.328125 
Q 20.21875 56 33.015625 56 
Q 37.15625 56 41.109375 55.140625 
Q 45.0625 54.296875 48.78125 52.59375 
z
" id="DejaVuSans-99"/>
    </defs>
    <g transform="translate(748.860597 71.76)scale(0.12 -0.12)">
     <use xlink:href="#DejaVuSans-80"/>
     <use x="60.255859" xlink:href="#DejaVuSans-111"/>
     <use x="121.4375" xlink:href="#DejaVuSans-116"/>
     <use x="160.646484" xlink:href="#DejaVuSans-101"/>
     <use x="222.169922" xlink:href="#DejaVuSans-110"/>
     <use x="285.548828" xlink:href="#DejaVuSans-116"/>
     <use x="324.757812" xlink:href="#DejaVuSans-105"/>
     <use x="352.541016" xlink:href="#DejaVuSans-97"/>
     <use x="413.820312" xlink:href="#DejaVuSans-108"/>
     <use x="441.603516" xlink:href="#DejaVuSans-32"/>
     <use x="473.390625" xlink:href="#DejaVuSans-97"/>
     <use x="534.669922" xlink:href="#DejaVuSans-110"/>
     <use x="598.048828" xlink:href="#DejaVuSans-100"/>
     <use x="661.525391" xlink:href="#DejaVuSans-32"/>
     <use x="693.3125" xlink:href="#DejaVuSans-75"/>
     <use x="758.888672" xlink:href="#DejaVuSans-105"/>
     <use x="786.671875" xlink:href="#DejaVuSans-110"/>
     <use x="850.050781" xlink:href="#DejaVuSans-101"/>
     <use x="911.574219" xlink:href="#DejaVuSans-116"/>
     <use x="950.783203" xlink:href="#DejaVuSans-105"/>
     <use x="978.566406" xlink:href="#DejaVuSans-99"/>
     <use x="1033.546875" xlink:href="#DejaVuSans-32"/>
     <use x="1065.333984" xlink:href="#DejaVuSans-69"/>
     <use x="1128.517578" xlink:href="#DejaVuSans-110"/>
     <use x="1191.896484" xlink:href="#DejaVuSans-101"/>
     <use x="1253.419922" xlink:href="#DejaVuSans-114"/>
     <use x="1294.517578" xlink:href="#DejaVuSans-103"/>
     <use x="1357.994141" xlink:href="#DejaVuSans-121"/>
    </g>
   </g>
   <g id="legend_2">
    <g id="patch_13">
     <path d="M 915.276562 115.11625 
L 1029.8 115.11625 
Q 1031.8 115.11625 1031.8 113.11625 
L 1031.8 84.76 
Q 1031.8 82.76 1029.8 82.76 
L 915.276562 82.76 
Q 913.276562 82.76 913.276562 84.76 
L 913.276562 113.11625 
Q 913.276562 115.11625 915.276562 115.11625 
z
" style="fill:#ffffff;opacity:0.8;stroke:#cccccc;stroke-linejoin:miter;"/>
    </g>
    <g id="line2d_40">
     <path d="M 917.276562 90.858437 
L 937.276562 90.858437 
" style="fill:none;stroke:#bf00bf;stroke-linecap:square;stroke-width:1.5;"/>
    </g>
    <g id="line2d_41"/>
    <g id="text_30">
     <!-- Potential Energy -->
     <g transform="translate(945.276562 94.358437)scale(0.1 -0.1)">
      <use xlink:href="#DejaVuSans-80"/>
      <use x="60.255859" xlink:href="#DejaVuSans-111"/>
      <use x="121.4375" xlink:href="#DejaVuSans-116"/>
      <use x="160.646484" xlink:href="#DejaVuSans-101"/>
      <use x="222.169922" xlink:href="#DejaVuSans-110"/>
      <use x="285.548828" xlink:href="#DejaVuSans-116"/>
      <use x="324.757812" xlink:href="#DejaVuSans-105"/>
      <use x="352.541016" xlink:href="#DejaVuSans-97"/>
      <use x="413.820312" xlink:href="#DejaVuSans-108"/>
      <use x="441.603516" xlink:href="#DejaVuSans-32"/>
      <use x="473.390625" xlink:href="#DejaVuSans-69"/>
      <use x="536.574219" xlink:href="#DejaVuSans-110"/>
      <use x="599.953125" xlink:href="#DejaVuSans-101"/>
      <use x="661.476562" xlink:href="#DejaVuSans-114"/>
      <use x="702.574219" xlink:href="#DejaVuSans-103"/>
      <use x="766.050781" xlink:href="#DejaVuSans-121"/>
     </g>
    </g>
    <g id="line2d_42">
     <path d="M 917.276562 105.536562 
L 937.276562 105.536562 
" style="fill:none;stroke:#00bfbf;stroke-linecap:square;stroke-width:1.5;"/>
    </g>
    <g id="line2d_43"/>
    <g id="text_31">
     <!-- Kinetic Energy -->
     <g transform="translate(945.276562 109.036562)scale(0.1 -0.1)">
      <use xlink:href="#DejaVuSans-75"/>
      <use x="65.576172" xlink:href="#DejaVuSans-105"/>
      <use x="93.359375" xlink:href="#DejaVuSans-110"/>
      <use x="156.738281" xlink:href="#DejaVuSans-101"/>
      <use x="218.261719" xlink:href="#DejaVuSans-116"/>
      <use x="257.470703" xlink:href="#DejaVuSans-105"/>
      <use x="285.253906" xlink:href="#DejaVuSans-99"/>
      <use x="340.234375" xlink:href="#DejaVuSans-32"/>
      <use x="372.021484" xlink:href="#DejaVuSans-69"/>
      <use x="435.205078" xlink:href="#DejaVuSans-110"/>
      <use x="498.583984" xlink:href="#DejaVuSans-101"/>
      <use x="560.107422" xlink:href="#DejaVuSans-114"/>
      <use x="601.205078" xlink:href="#DejaVuSans-103"/>
      <use x="664.681641" xlink:href="#DejaVuSans-121"/>
     </g>
    </g>
   </g>
  </g>
 </g>
 <defs>
  <clipPath id="pd4600923d4">
   <rect height="498.96" width="405.818182" x="144" y="77.76"/>
  </clipPath>
  <clipPath id="p82bee40933">
   <rect height="498.96" width="405.818182" x="630.981818" y="77.76"/>
  </clipPath>
 </defs>
</svg>
