<?xml version="1.0" encoding="utf-8" standalone="no"?>
<!DOCTYPE svg PUBLIC "-//W3C//DTD SVG 1.1//EN"
  "http://www.w3.org/Graphics/SVG/1.1/DTD/svg11.dtd">
<!-- Created with matplotlib (https://matplotlib.org/) -->
<svg height="648pt" version="1.1" viewBox="0 0 1152 648" width="1152pt" xmlns="http://www.w3.org/2000/svg" xmlns:xlink="http://www.w3.org/1999/xlink">
 <defs>
  <style type="text/css">
*{stroke-linecap:butt;stroke-linejoin:round;}
  </style>
 </defs>
 <g id="figure_1">
  <g id="patch_1">
   <path d="M 0 648 
L 1152 648 
L 1152 0 
L 0 0 
z
" style="fill:#ffffff;"/>
  </g>
  <g id="axes_1">
   <g id="patch_2">
    <path d="M 144 576.72 
L 549.818182 576.72 
L 549.818182 77.76 
L 144 77.76 
z
" style="fill:#ffffff;"/>
   </g>
   <g id="matplotlib.axis_1">
    <g id="xtick_1">
     <g id="line2d_1">
      <defs>
       <path d="M 0 0 
L 0 3.5 
" id="mae26e8f62e" style="stroke:#000000;stroke-width:0.8;"/>
      </defs>
      <g>
       <use style="stroke:#000000;stroke-width:0.8;" x="162.446281" xlink:href="#mae26e8f62e" y="576.72"/>
      </g>
     </g>
     <g id="text_1">
      <!-- 0.0 -->
      <defs>
       <path d="M 31.78125 66.40625 
Q 24.171875 66.40625 20.328125 58.90625 
Q 16.5 51.421875 16.5 36.375 
Q 16.5 21.390625 20.328125 13.890625 
Q 24.171875 6.390625 31.78125 6.390625 
Q 39.453125 6.390625 43.28125 13.890625 
Q 47.125 21.390625 47.125 36.375 
Q 47.125 51.421875 43.28125 58.90625 
Q 39.453125 66.40625 31.78125 66.40625 
z
M 31.78125 74.21875 
Q 44.046875 74.21875 50.515625 64.515625 
Q 56.984375 54.828125 56.984375 36.375 
Q 56.984375 17.96875 50.515625 8.265625 
Q 44.046875 -1.421875 31.78125 -1.421875 
Q 19.53125 -1.421875 13.0625 8.265625 
Q 6.59375 17.96875 6.59375 36.375 
Q 6.59375 54.828125 13.0625 64.515625 
Q 19.53125 74.21875 31.78125 74.21875 
z
" id="DejaVuSans-48"/>
       <path d="M 10.6875 12.40625 
L 21 12.40625 
L 21 0 
L 10.6875 0 
z
" id="DejaVuSans-46"/>
      </defs>
      <g transform="translate(154.494718 591.318438)scale(0.1 -0.1)">
       <use xlink:href="#DejaVuSans-48"/>
       <use x="63.623047" xlink:href="#DejaVuSans-46"/>
       <use x="95.410156" xlink:href="#DejaVuSans-48"/>
      </g>
     </g>
    </g>
    <g id="xtick_2">
     <g id="line2d_2">
      <g>
       <use style="stroke:#000000;stroke-width:0.8;" x="236.231405" xlink:href="#mae26e8f62e" y="576.72"/>
      </g>
     </g>
     <g id="text_2">
      <!-- 0.2 -->
      <defs>
       <path d="M 19.1875 8.296875 
L 53.609375 8.296875 
L 53.609375 0 
L 7.328125 0 
L 7.328125 8.296875 
Q 12.9375 14.109375 22.625 23.890625 
Q 32.328125 33.6875 34.8125 36.53125 
Q 39.546875 41.84375 41.421875 45.53125 
Q 43.3125 49.21875 43.3125 52.78125 
Q 43.3125 58.59375 39.234375 62.25 
Q 35.15625 65.921875 28.609375 65.921875 
Q 23.96875 65.921875 18.8125 64.3125 
Q 13.671875 62.703125 7.8125 59.421875 
L 7.8125 69.390625 
Q 13.765625 71.78125 18.9375 73 
Q 24.125 74.21875 28.421875 74.21875 
Q 39.75 74.21875 46.484375 68.546875 
Q 53.21875 62.890625 53.21875 53.421875 
Q 53.21875 48.921875 51.53125 44.890625 
Q 49.859375 40.875 45.40625 35.40625 
Q 44.1875 33.984375 37.640625 27.21875 
Q 31.109375 20.453125 19.1875 8.296875 
z
" id="DejaVuSans-50"/>
      </defs>
      <g transform="translate(228.279842 591.318438)scale(0.1 -0.1)">
       <use xlink:href="#DejaVuSans-48"/>
       <use x="63.623047" xlink:href="#DejaVuSans-46"/>
       <use x="95.410156" xlink:href="#DejaVuSans-50"/>
      </g>
     </g>
    </g>
    <g id="xtick_3">
     <g id="line2d_3">
      <g>
       <use style="stroke:#000000;stroke-width:0.8;" x="310.016529" xlink:href="#mae26e8f62e" y="576.72"/>
      </g>
     </g>
     <g id="text_3">
      <!-- 0.4 -->
      <defs>
       <path d="M 37.796875 64.3125 
L 12.890625 25.390625 
L 37.796875 25.390625 
z
M 35.203125 72.90625 
L 47.609375 72.90625 
L 47.609375 25.390625 
L 58.015625 25.390625 
L 58.015625 17.1875 
L 47.609375 17.1875 
L 47.609375 0 
L 37.796875 0 
L 37.796875 17.1875 
L 4.890625 17.1875 
L 4.890625 26.703125 
z
" id="DejaVuSans-52"/>
      </defs>
      <g transform="translate(302.064966 591.318438)scale(0.1 -0.1)">
       <use xlink:href="#DejaVuSans-48"/>
       <use x="63.623047" xlink:href="#DejaVuSans-46"/>
       <use x="95.410156" xlink:href="#DejaVuSans-52"/>
      </g>
     </g>
    </g>
    <g id="xtick_4">
     <g id="line2d_4">
      <g>
       <use style="stroke:#000000;stroke-width:0.8;" x="383.801653" xlink:href="#mae26e8f62e" y="576.72"/>
      </g>
     </g>
     <g id="text_4">
      <!-- 0.6 -->
      <defs>
       <path d="M 33.015625 40.375 
Q 26.375 40.375 22.484375 35.828125 
Q 18.609375 31.296875 18.609375 23.390625 
Q 18.609375 15.53125 22.484375 10.953125 
Q 26.375 6.390625 33.015625 6.390625 
Q 39.65625 6.390625 43.53125 10.953125 
Q 47.40625 15.53125 47.40625 23.390625 
Q 47.40625 31.296875 43.53125 35.828125 
Q 39.65625 40.375 33.015625 40.375 
z
M 52.59375 71.296875 
L 52.59375 62.3125 
Q 48.875 64.0625 45.09375 64.984375 
Q 41.3125 65.921875 37.59375 65.921875 
Q 27.828125 65.921875 22.671875 59.328125 
Q 17.53125 52.734375 16.796875 39.40625 
Q 19.671875 43.65625 24.015625 45.921875 
Q 28.375 48.1875 33.59375 48.1875 
Q 44.578125 48.1875 50.953125 41.515625 
Q 57.328125 34.859375 57.328125 23.390625 
Q 57.328125 12.15625 50.6875 5.359375 
Q 44.046875 -1.421875 33.015625 -1.421875 
Q 20.359375 -1.421875 13.671875 8.265625 
Q 6.984375 17.96875 6.984375 36.375 
Q 6.984375 53.65625 15.1875 63.9375 
Q 23.390625 74.21875 37.203125 74.21875 
Q 40.921875 74.21875 44.703125 73.484375 
Q 48.484375 72.75 52.59375 71.296875 
z
" id="DejaVuSans-54"/>
      </defs>
      <g transform="translate(375.85009 591.318438)scale(0.1 -0.1)">
       <use xlink:href="#DejaVuSans-48"/>
       <use x="63.623047" xlink:href="#DejaVuSans-46"/>
       <use x="95.410156" xlink:href="#DejaVuSans-54"/>
      </g>
     </g>
    </g>
    <g id="xtick_5">
     <g id="line2d_5">
      <g>
       <use style="stroke:#000000;stroke-width:0.8;" x="457.586777" xlink:href="#mae26e8f62e" y="576.72"/>
      </g>
     </g>
     <g id="text_5">
      <!-- 0.8 -->
      <defs>
       <path d="M 31.78125 34.625 
Q 24.75 34.625 20.71875 30.859375 
Q 16.703125 27.09375 16.703125 20.515625 
Q 16.703125 13.921875 20.71875 10.15625 
Q 24.75 6.390625 31.78125 6.390625 
Q 38.8125 6.390625 42.859375 10.171875 
Q 46.921875 13.96875 46.921875 20.515625 
Q 46.921875 27.09375 42.890625 30.859375 
Q 38.875 34.625 31.78125 34.625 
z
M 21.921875 38.8125 
Q 15.578125 40.375 12.03125 44.71875 
Q 8.5 49.078125 8.5 55.328125 
Q 8.5 64.0625 14.71875 69.140625 
Q 20.953125 74.21875 31.78125 74.21875 
Q 42.671875 74.21875 48.875 69.140625 
Q 55.078125 64.0625 55.078125 55.328125 
Q 55.078125 49.078125 51.53125 44.71875 
Q 48 40.375 41.703125 38.8125 
Q 48.828125 37.15625 52.796875 32.3125 
Q 56.78125 27.484375 56.78125 20.515625 
Q 56.78125 9.90625 50.3125 4.234375 
Q 43.84375 -1.421875 31.78125 -1.421875 
Q 19.734375 -1.421875 13.25 4.234375 
Q 6.78125 9.90625 6.78125 20.515625 
Q 6.78125 27.484375 10.78125 32.3125 
Q 14.796875 37.15625 21.921875 38.8125 
z
M 18.3125 54.390625 
Q 18.3125 48.734375 21.84375 45.5625 
Q 25.390625 42.390625 31.78125 42.390625 
Q 38.140625 42.390625 41.71875 45.5625 
Q 45.3125 48.734375 45.3125 54.390625 
Q 45.3125 60.0625 41.71875 63.234375 
Q 38.140625 66.40625 31.78125 66.40625 
Q 25.390625 66.40625 21.84375 63.234375 
Q 18.3125 60.0625 18.3125 54.390625 
z
" id="DejaVuSans-56"/>
      </defs>
      <g transform="translate(449.635214 591.318438)scale(0.1 -0.1)">
       <use xlink:href="#DejaVuSans-48"/>
       <use x="63.623047" xlink:href="#DejaVuSans-46"/>
       <use x="95.410156" xlink:href="#DejaVuSans-56"/>
      </g>
     </g>
    </g>
    <g id="xtick_6">
     <g id="line2d_6">
      <g>
       <use style="stroke:#000000;stroke-width:0.8;" x="531.371901" xlink:href="#mae26e8f62e" y="576.72"/>
      </g>
     </g>
     <g id="text_6">
      <!-- 1.0 -->
      <defs>
       <path d="M 12.40625 8.296875 
L 28.515625 8.296875 
L 28.515625 63.921875 
L 10.984375 60.40625 
L 10.984375 69.390625 
L 28.421875 72.90625 
L 38.28125 72.90625 
L 38.28125 8.296875 
L 54.390625 8.296875 
L 54.390625 0 
L 12.40625 0 
z
" id="DejaVuSans-49"/>
      </defs>
      <g transform="translate(523.420338 591.318438)scale(0.1 -0.1)">
       <use xlink:href="#DejaVuSans-49"/>
       <use x="63.623047" xlink:href="#DejaVuSans-46"/>
       <use x="95.410156" xlink:href="#DejaVuSans-48"/>
      </g>
     </g>
    </g>
    <g id="text_7">
     <!-- Time (~$10^{-14}$s) -->
     <defs>
      <path d="M -0.296875 72.90625 
L 61.375 72.90625 
L 61.375 64.59375 
L 35.5 64.59375 
L 35.5 0 
L 25.59375 0 
L 25.59375 64.59375 
L -0.296875 64.59375 
z
" id="DejaVuSans-84"/>
      <path d="M 9.421875 54.6875 
L 18.40625 54.6875 
L 18.40625 0 
L 9.421875 0 
z
M 9.421875 75.984375 
L 18.40625 75.984375 
L 18.40625 64.59375 
L 9.421875 64.59375 
z
" id="DejaVuSans-105"/>
      <path d="M 52 44.1875 
Q 55.375 50.25 60.0625 53.125 
Q 64.75 56 71.09375 56 
Q 79.640625 56 84.28125 50.015625 
Q 88.921875 44.046875 88.921875 33.015625 
L 88.921875 0 
L 79.890625 0 
L 79.890625 32.71875 
Q 79.890625 40.578125 77.09375 44.375 
Q 74.3125 48.1875 68.609375 48.1875 
Q 61.625 48.1875 57.5625 43.546875 
Q 53.515625 38.921875 53.515625 30.90625 
L 53.515625 0 
L 44.484375 0 
L 44.484375 32.71875 
Q 44.484375 40.625 41.703125 44.40625 
Q 38.921875 48.1875 33.109375 48.1875 
Q 26.21875 48.1875 22.15625 43.53125 
Q 18.109375 38.875 18.109375 30.90625 
L 18.109375 0 
L 9.078125 0 
L 9.078125 54.6875 
L 18.109375 54.6875 
L 18.109375 46.1875 
Q 21.1875 51.21875 25.484375 53.609375 
Q 29.78125 56 35.6875 56 
Q 41.65625 56 45.828125 52.96875 
Q 50 49.953125 52 44.1875 
z
" id="DejaVuSans-109"/>
      <path d="M 56.203125 29.59375 
L 56.203125 25.203125 
L 14.890625 25.203125 
Q 15.484375 15.921875 20.484375 11.0625 
Q 25.484375 6.203125 34.421875 6.203125 
Q 39.59375 6.203125 44.453125 7.46875 
Q 49.3125 8.734375 54.109375 11.28125 
L 54.109375 2.78125 
Q 49.265625 0.734375 44.1875 -0.34375 
Q 39.109375 -1.421875 33.890625 -1.421875 
Q 20.796875 -1.421875 13.15625 6.1875 
Q 5.515625 13.8125 5.515625 26.8125 
Q 5.515625 40.234375 12.765625 48.109375 
Q 20.015625 56 32.328125 56 
Q 43.359375 56 49.78125 48.890625 
Q 56.203125 41.796875 56.203125 29.59375 
z
M 47.21875 32.234375 
Q 47.125 39.59375 43.09375 43.984375 
Q 39.0625 48.390625 32.421875 48.390625 
Q 24.90625 48.390625 20.390625 44.140625 
Q 15.875 39.890625 15.1875 32.171875 
z
" id="DejaVuSans-101"/>
      <path id="DejaVuSans-32"/>
      <path d="M 31 75.875 
Q 24.46875 64.65625 21.28125 53.65625 
Q 18.109375 42.671875 18.109375 31.390625 
Q 18.109375 20.125 21.3125 9.0625 
Q 24.515625 -2 31 -13.1875 
L 23.1875 -13.1875 
Q 15.875 -1.703125 12.234375 9.375 
Q 8.59375 20.453125 8.59375 31.390625 
Q 8.59375 42.28125 12.203125 53.3125 
Q 15.828125 64.359375 23.1875 75.875 
z
" id="DejaVuSans-40"/>
      <path d="M 73.1875 39.890625 
L 73.1875 31.203125 
Q 68.0625 27.34375 63.6875 25.6875 
Q 59.328125 24.03125 54.59375 24.03125 
Q 49.21875 24.03125 42.09375 26.90625 
Q 41.546875 27.09375 41.3125 27.203125 
Q 40.96875 27.34375 40.234375 27.59375 
Q 32.671875 30.609375 28.078125 30.609375 
Q 23.78125 30.609375 19.578125 28.734375 
Q 15.375 26.859375 10.59375 22.796875 
L 10.59375 31.5 
Q 15.71875 35.359375 20.09375 37.03125 
Q 24.46875 38.71875 29.203125 38.71875 
Q 34.578125 38.71875 41.75 35.796875 
Q 42.234375 35.59375 42.484375 35.5 
Q 42.875 35.359375 43.5625 35.109375 
Q 51.125 32.078125 55.71875 32.078125 
Q 59.90625 32.078125 64.03125 33.9375 
Q 68.171875 35.796875 73.1875 39.890625 
z
" id="DejaVuSans-126"/>
      <path d="M 10.59375 35.5 
L 73.1875 35.5 
L 73.1875 27.203125 
L 10.59375 27.203125 
z
" id="DejaVuSans-8722"/>
      <path d="M 44.28125 53.078125 
L 44.28125 44.578125 
Q 40.484375 46.53125 36.375 47.5 
Q 32.28125 48.484375 27.875 48.484375 
Q 21.1875 48.484375 17.84375 46.4375 
Q 14.5 44.390625 14.5 40.28125 
Q 14.5 37.15625 16.890625 35.375 
Q 19.28125 33.59375 26.515625 31.984375 
L 29.59375 31.296875 
Q 39.15625 29.25 43.1875 25.515625 
Q 47.21875 21.78125 47.21875 15.09375 
Q 47.21875 7.46875 41.1875 3.015625 
Q 35.15625 -1.421875 24.609375 -1.421875 
Q 20.21875 -1.421875 15.453125 -0.5625 
Q 10.6875 0.296875 5.421875 2 
L 5.421875 11.28125 
Q 10.40625 8.6875 15.234375 7.390625 
Q 20.0625 6.109375 24.8125 6.109375 
Q 31.15625 6.109375 34.5625 8.28125 
Q 37.984375 10.453125 37.984375 14.40625 
Q 37.984375 18.0625 35.515625 20.015625 
Q 33.0625 21.96875 24.703125 23.78125 
L 21.578125 24.515625 
Q 13.234375 26.265625 9.515625 29.90625 
Q 5.8125 33.546875 5.8125 39.890625 
Q 5.8125 47.609375 11.28125 51.796875 
Q 16.75 56 26.8125 56 
Q 31.78125 56 36.171875 55.265625 
Q 40.578125 54.546875 44.28125 53.078125 
z
" id="DejaVuSans-115"/>
      <path d="M 8.015625 75.875 
L 15.828125 75.875 
Q 23.140625 64.359375 26.78125 53.3125 
Q 30.421875 42.28125 30.421875 31.390625 
Q 30.421875 20.453125 26.78125 9.375 
Q 23.140625 -1.703125 15.828125 -13.1875 
L 8.015625 -13.1875 
Q 14.5 -2 17.703125 9.0625 
Q 20.90625 20.125 20.90625 31.390625 
Q 20.90625 42.671875 17.703125 53.65625 
Q 14.5 64.65625 8.015625 75.875 
z
" id="DejaVuSans-41"/>
     </defs>
     <g transform="translate(308.259091 605.718438)scale(0.1 -0.1)">
      <use transform="translate(0 0.684375)" xlink:href="#DejaVuSans-84"/>
      <use transform="translate(61.083984 0.684375)" xlink:href="#DejaVuSans-105"/>
      <use transform="translate(88.867188 0.684375)" xlink:href="#DejaVuSans-109"/>
      <use transform="translate(186.279297 0.684375)" xlink:href="#DejaVuSans-101"/>
      <use transform="translate(247.802734 0.684375)" xlink:href="#DejaVuSans-32"/>
      <use transform="translate(279.589844 0.684375)" xlink:href="#DejaVuSans-40"/>
      <use transform="translate(318.603516 0.684375)" xlink:href="#DejaVuSans-126"/>
      <use transform="translate(402.392578 0.684375)" xlink:href="#DejaVuSans-49"/>
      <use transform="translate(466.015625 0.684375)" xlink:href="#DejaVuSans-48"/>
      <use transform="translate(530.595703 38.965625)scale(0.7)" xlink:href="#DejaVuSans-8722"/>
      <use transform="translate(589.248047 38.965625)scale(0.7)" xlink:href="#DejaVuSans-49"/>
      <use transform="translate(633.78418 38.965625)scale(0.7)" xlink:href="#DejaVuSans-52"/>
      <use transform="translate(681.054688 0.684375)" xlink:href="#DejaVuSans-115"/>
      <use transform="translate(733.154297 0.684375)" xlink:href="#DejaVuSans-41"/>
     </g>
    </g>
   </g>
   <g id="matplotlib.axis_2">
    <g id="ytick_1">
     <g id="line2d_7">
      <defs>
       <path d="M 0 0 
L -3.5 0 
" id="m07e2fd5278" style="stroke:#000000;stroke-width:0.8;"/>
      </defs>
      <g>
       <use style="stroke:#000000;stroke-width:0.8;" x="144" xlink:href="#m07e2fd5278" y="554.041799"/>
      </g>
     </g>
     <g id="text_8">
      <!-- 0.0 -->
      <g transform="translate(121.096875 557.841018)scale(0.1 -0.1)">
       <use xlink:href="#DejaVuSans-48"/>
       <use x="63.623047" xlink:href="#DejaVuSans-46"/>
       <use x="95.410156" xlink:href="#DejaVuSans-48"/>
      </g>
     </g>
    </g>
    <g id="ytick_2">
     <g id="line2d_8">
      <g>
       <use style="stroke:#000000;stroke-width:0.8;" x="144" xlink:href="#m07e2fd5278" y="496.516412"/>
      </g>
     </g>
     <g id="text_9">
      <!-- 2.5 -->
      <defs>
       <path d="M 10.796875 72.90625 
L 49.515625 72.90625 
L 49.515625 64.59375 
L 19.828125 64.59375 
L 19.828125 46.734375 
Q 21.96875 47.46875 24.109375 47.828125 
Q 26.265625 48.1875 28.421875 48.1875 
Q 40.625 48.1875 47.75 41.5 
Q 54.890625 34.8125 54.890625 23.390625 
Q 54.890625 11.625 47.5625 5.09375 
Q 40.234375 -1.421875 26.90625 -1.421875 
Q 22.3125 -1.421875 17.546875 -0.640625 
Q 12.796875 0.140625 7.71875 1.703125 
L 7.71875 11.625 
Q 12.109375 9.234375 16.796875 8.0625 
Q 21.484375 6.890625 26.703125 6.890625 
Q 35.15625 6.890625 40.078125 11.328125 
Q 45.015625 15.765625 45.015625 23.390625 
Q 45.015625 31 40.078125 35.4375 
Q 35.15625 39.890625 26.703125 39.890625 
Q 22.75 39.890625 18.8125 39.015625 
Q 14.890625 38.140625 10.796875 36.28125 
z
" id="DejaVuSans-53"/>
      </defs>
      <g transform="translate(121.096875 500.31563)scale(0.1 -0.1)">
       <use xlink:href="#DejaVuSans-50"/>
       <use x="63.623047" xlink:href="#DejaVuSans-46"/>
       <use x="95.410156" xlink:href="#DejaVuSans-53"/>
      </g>
     </g>
    </g>
    <g id="ytick_3">
     <g id="line2d_9">
      <g>
       <use style="stroke:#000000;stroke-width:0.8;" x="144" xlink:href="#m07e2fd5278" y="438.991024"/>
      </g>
     </g>
     <g id="text_10">
      <!-- 5.0 -->
      <g transform="translate(121.096875 442.790243)scale(0.1 -0.1)">
       <use xlink:href="#DejaVuSans-53"/>
       <use x="63.623047" xlink:href="#DejaVuSans-46"/>
       <use x="95.410156" xlink:href="#DejaVuSans-48"/>
      </g>
     </g>
    </g>
    <g id="ytick_4">
     <g id="line2d_10">
      <g>
       <use style="stroke:#000000;stroke-width:0.8;" x="144" xlink:href="#m07e2fd5278" y="381.465636"/>
      </g>
     </g>
     <g id="text_11">
      <!-- 7.5 -->
      <defs>
       <path d="M 8.203125 72.90625 
L 55.078125 72.90625 
L 55.078125 68.703125 
L 28.609375 0 
L 18.3125 0 
L 43.21875 64.59375 
L 8.203125 64.59375 
z
" id="DejaVuSans-55"/>
      </defs>
      <g transform="translate(121.096875 385.264855)scale(0.1 -0.1)">
       <use xlink:href="#DejaVuSans-55"/>
       <use x="63.623047" xlink:href="#DejaVuSans-46"/>
       <use x="95.410156" xlink:href="#DejaVuSans-53"/>
      </g>
     </g>
    </g>
    <g id="ytick_5">
     <g id="line2d_11">
      <g>
       <use style="stroke:#000000;stroke-width:0.8;" x="144" xlink:href="#m07e2fd5278" y="323.940249"/>
      </g>
     </g>
     <g id="text_12">
      <!-- 10.0 -->
      <g transform="translate(114.734375 327.739468)scale(0.1 -0.1)">
       <use xlink:href="#DejaVuSans-49"/>
       <use x="63.623047" xlink:href="#DejaVuSans-48"/>
       <use x="127.246094" xlink:href="#DejaVuSans-46"/>
       <use x="159.033203" xlink:href="#DejaVuSans-48"/>
      </g>
     </g>
    </g>
    <g id="ytick_6">
     <g id="line2d_12">
      <g>
       <use style="stroke:#000000;stroke-width:0.8;" x="144" xlink:href="#m07e2fd5278" y="266.414861"/>
      </g>
     </g>
     <g id="text_13">
      <!-- 12.5 -->
      <g transform="translate(114.734375 270.21408)scale(0.1 -0.1)">
       <use xlink:href="#DejaVuSans-49"/>
       <use x="63.623047" xlink:href="#DejaVuSans-50"/>
       <use x="127.246094" xlink:href="#DejaVuSans-46"/>
       <use x="159.033203" xlink:href="#DejaVuSans-53"/>
      </g>
     </g>
    </g>
    <g id="ytick_7">
     <g id="line2d_13">
      <g>
       <use style="stroke:#000000;stroke-width:0.8;" x="144" xlink:href="#m07e2fd5278" y="208.889474"/>
      </g>
     </g>
     <g id="text_14">
      <!-- 15.0 -->
      <g transform="translate(114.734375 212.688692)scale(0.1 -0.1)">
       <use xlink:href="#DejaVuSans-49"/>
       <use x="63.623047" xlink:href="#DejaVuSans-53"/>
       <use x="127.246094" xlink:href="#DejaVuSans-46"/>
       <use x="159.033203" xlink:href="#DejaVuSans-48"/>
      </g>
     </g>
    </g>
    <g id="ytick_8">
     <g id="line2d_14">
      <g>
       <use style="stroke:#000000;stroke-width:0.8;" x="144" xlink:href="#m07e2fd5278" y="151.364086"/>
      </g>
     </g>
     <g id="text_15">
      <!-- 17.5 -->
      <g transform="translate(114.734375 155.163305)scale(0.1 -0.1)">
       <use xlink:href="#DejaVuSans-49"/>
       <use x="63.623047" xlink:href="#DejaVuSans-55"/>
       <use x="127.246094" xlink:href="#DejaVuSans-46"/>
       <use x="159.033203" xlink:href="#DejaVuSans-53"/>
      </g>
     </g>
    </g>
    <g id="ytick_9">
     <g id="line2d_15">
      <g>
       <use style="stroke:#000000;stroke-width:0.8;" x="144" xlink:href="#m07e2fd5278" y="93.838699"/>
      </g>
     </g>
     <g id="text_16">
      <!-- 20.0 -->
      <g transform="translate(114.734375 97.637917)scale(0.1 -0.1)">
       <use xlink:href="#DejaVuSans-50"/>
       <use x="63.623047" xlink:href="#DejaVuSans-48"/>
       <use x="127.246094" xlink:href="#DejaVuSans-46"/>
       <use x="159.033203" xlink:href="#DejaVuSans-48"/>
      </g>
     </g>
    </g>
    <g id="text_17">
     <!-- Energy (eV) -->
     <defs>
      <path d="M 9.8125 72.90625 
L 55.90625 72.90625 
L 55.90625 64.59375 
L 19.671875 64.59375 
L 19.671875 43.015625 
L 54.390625 43.015625 
L 54.390625 34.71875 
L 19.671875 34.71875 
L 19.671875 8.296875 
L 56.78125 8.296875 
L 56.78125 0 
L 9.8125 0 
z
" id="DejaVuSans-69"/>
      <path d="M 54.890625 33.015625 
L 54.890625 0 
L 45.90625 0 
L 45.90625 32.71875 
Q 45.90625 40.484375 42.875 44.328125 
Q 39.84375 48.1875 33.796875 48.1875 
Q 26.515625 48.1875 22.3125 43.546875 
Q 18.109375 38.921875 18.109375 30.90625 
L 18.109375 0 
L 9.078125 0 
L 9.078125 54.6875 
L 18.109375 54.6875 
L 18.109375 46.1875 
Q 21.34375 51.125 25.703125 53.5625 
Q 30.078125 56 35.796875 56 
Q 45.21875 56 50.046875 50.171875 
Q 54.890625 44.34375 54.890625 33.015625 
z
" id="DejaVuSans-110"/>
      <path d="M 41.109375 46.296875 
Q 39.59375 47.171875 37.8125 47.578125 
Q 36.03125 48 33.890625 48 
Q 26.265625 48 22.1875 43.046875 
Q 18.109375 38.09375 18.109375 28.8125 
L 18.109375 0 
L 9.078125 0 
L 9.078125 54.6875 
L 18.109375 54.6875 
L 18.109375 46.1875 
Q 20.953125 51.171875 25.484375 53.578125 
Q 30.03125 56 36.53125 56 
Q 37.453125 56 38.578125 55.875 
Q 39.703125 55.765625 41.0625 55.515625 
z
" id="DejaVuSans-114"/>
      <path d="M 45.40625 27.984375 
Q 45.40625 37.75 41.375 43.109375 
Q 37.359375 48.484375 30.078125 48.484375 
Q 22.859375 48.484375 18.828125 43.109375 
Q 14.796875 37.75 14.796875 27.984375 
Q 14.796875 18.265625 18.828125 12.890625 
Q 22.859375 7.515625 30.078125 7.515625 
Q 37.359375 7.515625 41.375 12.890625 
Q 45.40625 18.265625 45.40625 27.984375 
z
M 54.390625 6.78125 
Q 54.390625 -7.171875 48.1875 -13.984375 
Q 42 -20.796875 29.203125 -20.796875 
Q 24.46875 -20.796875 20.265625 -20.09375 
Q 16.0625 -19.390625 12.109375 -17.921875 
L 12.109375 -9.1875 
Q 16.0625 -11.328125 19.921875 -12.34375 
Q 23.78125 -13.375 27.78125 -13.375 
Q 36.625 -13.375 41.015625 -8.765625 
Q 45.40625 -4.15625 45.40625 5.171875 
L 45.40625 9.625 
Q 42.625 4.78125 38.28125 2.390625 
Q 33.9375 0 27.875 0 
Q 17.828125 0 11.671875 7.65625 
Q 5.515625 15.328125 5.515625 27.984375 
Q 5.515625 40.671875 11.671875 48.328125 
Q 17.828125 56 27.875 56 
Q 33.9375 56 38.28125 53.609375 
Q 42.625 51.21875 45.40625 46.390625 
L 45.40625 54.6875 
L 54.390625 54.6875 
z
" id="DejaVuSans-103"/>
      <path d="M 32.171875 -5.078125 
Q 28.375 -14.84375 24.75 -17.8125 
Q 21.140625 -20.796875 15.09375 -20.796875 
L 7.90625 -20.796875 
L 7.90625 -13.28125 
L 13.1875 -13.28125 
Q 16.890625 -13.28125 18.9375 -11.515625 
Q 21 -9.765625 23.484375 -3.21875 
L 25.09375 0.875 
L 2.984375 54.6875 
L 12.5 54.6875 
L 29.59375 11.921875 
L 46.6875 54.6875 
L 56.203125 54.6875 
z
" id="DejaVuSans-121"/>
      <path d="M 28.609375 0 
L 0.78125 72.90625 
L 11.078125 72.90625 
L 34.1875 11.53125 
L 57.328125 72.90625 
L 67.578125 72.90625 
L 39.796875 0 
z
" id="DejaVuSans-86"/>
     </defs>
     <g transform="translate(108.654687 356.820469)rotate(-90)scale(0.1 -0.1)">
      <use xlink:href="#DejaVuSans-69"/>
      <use x="63.183594" xlink:href="#DejaVuSans-110"/>
      <use x="126.5625" xlink:href="#DejaVuSans-101"/>
      <use x="188.085938" xlink:href="#DejaVuSans-114"/>
      <use x="229.183594" xlink:href="#DejaVuSans-103"/>
      <use x="292.660156" xlink:href="#DejaVuSans-121"/>
      <use x="351.839844" xlink:href="#DejaVuSans-32"/>
      <use x="383.626953" xlink:href="#DejaVuSans-40"/>
      <use x="422.640625" xlink:href="#DejaVuSans-101"/>
      <use x="484.164062" xlink:href="#DejaVuSans-86"/>
      <use x="552.572266" xlink:href="#DejaVuSans-41"/>
     </g>
    </g>
   </g>
   <g id="line2d_16">
    <path clip-path="url(#p5e450f5dd6)" d="M 162.446281 100.64965 
L 166.135537 100.662005 
L 169.824793 100.695293 
L 173.51405 100.759397 
L 177.203306 100.863678 
L 180.892562 101.016903 
L 184.581818 101.227189 
L 188.271074 101.501949 
L 191.960331 101.847844 
L 195.649587 102.270753 
L 199.338843 102.775739 
L 203.028099 103.36703 
L 206.717355 104.048012 
L 210.406612 104.821222 
L 214.095868 105.688359 
L 217.785124 106.650294 
L 221.47438 107.707095 
L 225.163636 108.858057 
L 228.852893 110.101736 
L 232.542149 111.435996 
L 236.231405 112.858057 
L 239.920661 114.364548 
L 243.609917 115.951567 
L 247.299174 117.614742 
L 250.98843 119.349298 
L 254.677686 121.150124 
L 258.366942 123.01184 
L 262.056198 124.928869 
L 265.745455 126.895506 
L 269.434711 128.905982 
L 273.123967 130.954536 
L 276.813223 133.035477 
L 280.502479 135.143243 
L 284.191736 137.272463 
L 287.880992 139.418005 
L 291.570248 141.575029 
L 295.259504 143.73903 
L 298.94876 145.905873 
L 302.638017 148.071832 
L 306.327273 150.233608 
L 310.016529 152.388357 
L 313.705785 154.533699 
L 317.395041 156.667729 
L 321.084298 158.789018 
L 324.773554 160.896609 
L 328.46281 162.990008 
L 332.152066 165.069166 
L 335.841322 167.134459 
L 339.530579 169.186662 
L 343.219835 171.22692 
L 346.909091 173.256708 
L 350.598347 175.277797 
L 354.287603 177.292211 
L 357.97686 179.302186 
L 361.666116 181.310126 
L 365.355372 183.318547 
L 369.044628 185.330032 
L 372.733884 187.347184 
L 376.42314 189.372583 
L 380.112397 191.408735 
L 383.801653 193.458031 
L 387.490909 195.5227 
L 391.180165 197.604772 
L 394.869421 199.70604 
L 398.558678 201.828036 
L 402.247934 203.971994 
L 405.93719 206.138824 
L 409.626446 208.329108 
L 413.315702 210.543067 
L 417.004959 212.78056 
L 420.694215 215.041083 
L 424.383471 217.323763 
L 428.072727 219.627364 
L 431.761983 221.950296 
L 435.45124 224.290632 
L 439.140496 226.646118 
L 442.829752 229.014203 
L 446.519008 231.392058 
L 450.208264 233.776609 
L 453.897521 236.164562 
L 457.586777 238.552437 
L 461.276033 240.936607 
L 464.965289 243.313331 
L 468.654545 245.67879 
L 472.343802 248.029132 
L 476.033058 250.360502 
L 479.722314 252.669079 
L 483.41157 254.95112 
L 487.100826 257.202996 
L 490.790083 259.421222 
L 494.479339 261.602491 
L 498.168595 263.743705 
L 501.857851 265.842006 
L 505.547107 267.8948 
L 509.236364 269.899778 
L 512.92562 271.854944 
L 516.614876 273.758615 
L 520.304132 275.609447 
L 523.993388 277.406445 
L 527.682645 279.148967 
L 531.371901 280.836722 
" style="fill:none;stroke:#ff0000;stroke-dasharray:5.55,2.4;stroke-dashoffset:0;stroke-width:1.5;"/>
   </g>
   <g id="line2d_17">
    <path clip-path="url(#p5e450f5dd6)" d="M 162.446281 554.04 
L 166.135537 554.027519 
L 169.824793 553.994019 
L 173.51405 553.929614 
L 177.203306 553.824938 
L 180.892562 553.671216 
L 184.581818 553.460321 
L 188.271074 553.184832 
L 191.960331 552.838073 
L 195.649587 552.414154 
L 199.338843 551.907998 
L 203.028099 551.315362 
L 206.717355 550.632847 
L 210.406612 549.8579 
L 214.095868 548.988811 
L 217.785124 548.024696 
L 221.47438 546.965476 
L 225.163636 545.811847 
L 228.852893 544.565244 
L 232.542149 543.2278 
L 236.231405 541.80229 
L 239.920661 540.292087 
L 243.609917 538.701095 
L 247.299174 537.03369 
L 250.98843 535.294657 
L 254.677686 533.489117 
L 258.366942 531.622463 
L 262.056198 529.700289 
L 265.745455 527.728319 
L 269.434711 525.71234 
L 273.123967 523.658139 
L 276.813223 521.571428 
L 280.502479 519.457796 
L 284.191736 517.32264 
L 287.880992 515.171118 
L 291.570248 513.008095 
L 295.259504 510.838107 
L 298.94876 508.665311 
L 302.638017 506.493463 
L 306.327273 504.325884 
L 310.016529 502.165443 
L 313.705785 500.014541 
L 317.395041 497.875104 
L 321.084298 495.74858 
L 324.773554 493.63594 
L 328.46281 491.537698 
L 332.152066 489.453914 
L 335.841322 487.384223 
L 339.530579 485.327862 
L 343.219835 483.283694 
L 346.909091 481.250247 
L 350.598347 479.225754 
L 354.287603 477.208191 
L 357.97686 475.195322 
L 361.666116 473.184749 
L 365.355372 471.173955 
L 369.044628 469.160351 
L 372.733884 467.141327 
L 376.42314 465.1143 
L 380.112397 463.076757 
L 383.801653 461.026305 
L 387.490909 458.960708 
L 391.180165 456.877926 
L 394.869421 454.776157 
L 398.558678 452.653864 
L 402.247934 450.509805 
L 405.93719 448.343057 
L 409.626446 446.153036 
L 413.315702 443.93951 
L 417.004959 441.702608 
L 420.694215 439.44283 
L 424.383471 437.161039 
L 428.072727 434.858463 
L 431.761983 432.536684 
L 435.45124 430.197623 
L 439.140496 427.843524 
L 442.829752 425.476932 
L 446.519008 423.100668 
L 450.208264 420.7178 
L 453.897521 418.331615 
L 457.586777 415.945585 
L 461.276033 413.56333 
L 464.965289 411.188584 
L 468.654545 408.825159 
L 472.343802 406.476903 
L 476.033058 404.147665 
L 479.722314 401.841256 
L 483.41157 399.561415 
L 487.100826 397.311764 
L 490.790083 395.095784 
L 494.479339 392.916776 
L 498.168595 390.777831 
L 501.857851 388.681803 
L 505.547107 386.63128 
L 509.236364 384.628565 
L 512.92562 382.675657 
L 516.614876 380.774229 
L 520.304132 378.925616 
L 523.993388 377.130812 
L 527.682645 375.39046 
L 531.371901 373.704846 
" style="fill:none;stroke:#0000ff;stroke-dasharray:5.55,2.4;stroke-dashoffset:0;stroke-width:1.5;"/>
   </g>
   <g id="line2d_18">
    <path clip-path="url(#p5e450f5dd6)" d="M 162.446281 100.647851 
L 166.135537 100.647724 
L 169.824793 100.647513 
L 173.51405 100.647212 
L 177.203306 100.646817 
L 180.892562 100.64632 
L 184.581818 100.645712 
L 188.271074 100.644982 
L 191.960331 100.644118 
L 195.649587 100.643108 
L 199.338843 100.641938 
L 203.028099 100.640593 
L 206.717355 100.639059 
L 210.406612 100.637323 
L 214.095868 100.635371 
L 217.785124 100.633191 
L 221.47438 100.630772 
L 225.163636 100.628105 
L 228.852893 100.625181 
L 232.542149 100.621997 
L 236.231405 100.618549 
L 239.920661 100.614837 
L 243.609917 100.610863 
L 247.299174 100.606634 
L 250.98843 100.602156 
L 254.677686 100.597442 
L 258.366942 100.592504 
L 262.056198 100.587359 
L 265.745455 100.582025 
L 269.434711 100.576523 
L 273.123967 100.570876 
L 276.813223 100.565106 
L 280.502479 100.55924 
L 284.191736 100.553303 
L 287.880992 100.547323 
L 291.570248 100.541325 
L 295.259504 100.535338 
L 298.94876 100.529386 
L 302.638017 100.523496 
L 306.327273 100.517693 
L 310.016529 100.512001 
L 313.705785 100.506441 
L 317.395041 100.501034 
L 321.084298 100.495799 
L 324.773554 100.49075 
L 328.46281 100.485907 
L 332.152066 100.481281 
L 335.841322 100.476883 
L 339.530579 100.472725 
L 343.219835 100.468816 
L 346.909091 100.465157 
L 350.598347 100.461752 
L 354.287603 100.458603 
L 357.97686 100.455708 
L 361.666116 100.453077 
L 365.355372 100.450704 
L 369.044628 100.448583 
L 372.733884 100.446712 
L 376.42314 100.445083 
L 380.112397 100.443693 
L 383.801653 100.442537 
L 387.490909 100.441609 
L 391.180165 100.440899 
L 394.869421 100.440398 
L 398.558678 100.440101 
L 402.247934 100.44 
L 405.93719 100.440082 
L 409.626446 100.440345 
L 413.315702 100.440778 
L 417.004959 100.441369 
L 420.694215 100.442114 
L 424.383471 100.443004 
L 428.072727 100.444028 
L 431.761983 100.445181 
L 435.45124 100.446456 
L 439.140496 100.447843 
L 442.829752 100.449336 
L 446.519008 100.450928 
L 450.208264 100.452611 
L 453.897521 100.454378 
L 457.586777 100.456223 
L 461.276033 100.458138 
L 464.965289 100.460116 
L 468.654545 100.46215 
L 472.343802 100.464236 
L 476.033058 100.466367 
L 479.722314 100.468536 
L 483.41157 100.470735 
L 487.100826 100.472961 
L 490.790083 100.475207 
L 494.479339 100.477468 
L 498.168595 100.479737 
L 501.857851 100.48201 
L 505.547107 100.48428 
L 509.236364 100.486545 
L 512.92562 100.488802 
L 516.614876 100.491045 
L 520.304132 100.493264 
L 523.993388 100.495458 
L 527.682645 100.497628 
L 531.371901 100.499769 
" style="fill:none;stroke:#4f0066;stroke-linecap:square;stroke-width:1.5;"/>
   </g>
   <g id="patch_3">
    <path d="M 144 576.72 
L 144 77.76 
" style="fill:none;stroke:#000000;stroke-linecap:square;stroke-linejoin:miter;stroke-width:0.8;"/>
   </g>
   <g id="patch_4">
    <path d="M 549.818182 576.72 
L 549.818182 77.76 
" style="fill:none;stroke:#000000;stroke-linecap:square;stroke-linejoin:miter;stroke-width:0.8;"/>
   </g>
   <g id="patch_5">
    <path d="M 144 576.72 
L 549.818182 576.72 
" style="fill:none;stroke:#000000;stroke-linecap:square;stroke-linejoin:miter;stroke-width:0.8;"/>
   </g>
   <g id="patch_6">
    <path d="M 144 77.76 
L 549.818182 77.76 
" style="fill:none;stroke:#000000;stroke-linecap:square;stroke-linejoin:miter;stroke-width:0.8;"/>
   </g>
   <g id="text_18">
    <!-- Work and Energy -->
    <defs>
     <path d="M 3.328125 72.90625 
L 13.28125 72.90625 
L 28.609375 11.28125 
L 43.890625 72.90625 
L 54.984375 72.90625 
L 70.3125 11.28125 
L 85.59375 72.90625 
L 95.609375 72.90625 
L 77.296875 0 
L 64.890625 0 
L 49.515625 63.28125 
L 33.984375 0 
L 21.578125 0 
z
" id="DejaVuSans-87"/>
     <path d="M 30.609375 48.390625 
Q 23.390625 48.390625 19.1875 42.75 
Q 14.984375 37.109375 14.984375 27.296875 
Q 14.984375 17.484375 19.15625 11.84375 
Q 23.34375 6.203125 30.609375 6.203125 
Q 37.796875 6.203125 41.984375 11.859375 
Q 46.1875 17.53125 46.1875 27.296875 
Q 46.1875 37.015625 41.984375 42.703125 
Q 37.796875 48.390625 30.609375 48.390625 
z
M 30.609375 56 
Q 42.328125 56 49.015625 48.375 
Q 55.71875 40.765625 55.71875 27.296875 
Q 55.71875 13.875 49.015625 6.21875 
Q 42.328125 -1.421875 30.609375 -1.421875 
Q 18.84375 -1.421875 12.171875 6.21875 
Q 5.515625 13.875 5.515625 27.296875 
Q 5.515625 40.765625 12.171875 48.375 
Q 18.84375 56 30.609375 56 
z
" id="DejaVuSans-111"/>
     <path d="M 9.078125 75.984375 
L 18.109375 75.984375 
L 18.109375 31.109375 
L 44.921875 54.6875 
L 56.390625 54.6875 
L 27.390625 29.109375 
L 57.625 0 
L 45.90625 0 
L 18.109375 26.703125 
L 18.109375 0 
L 9.078125 0 
z
" id="DejaVuSans-107"/>
     <path d="M 34.28125 27.484375 
Q 23.390625 27.484375 19.1875 25 
Q 14.984375 22.515625 14.984375 16.5 
Q 14.984375 11.71875 18.140625 8.90625 
Q 21.296875 6.109375 26.703125 6.109375 
Q 34.1875 6.109375 38.703125 11.40625 
Q 43.21875 16.703125 43.21875 25.484375 
L 43.21875 27.484375 
z
M 52.203125 31.203125 
L 52.203125 0 
L 43.21875 0 
L 43.21875 8.296875 
Q 40.140625 3.328125 35.546875 0.953125 
Q 30.953125 -1.421875 24.3125 -1.421875 
Q 15.921875 -1.421875 10.953125 3.296875 
Q 6 8.015625 6 15.921875 
Q 6 25.140625 12.171875 29.828125 
Q 18.359375 34.515625 30.609375 34.515625 
L 43.21875 34.515625 
L 43.21875 35.40625 
Q 43.21875 41.609375 39.140625 45 
Q 35.0625 48.390625 27.6875 48.390625 
Q 23 48.390625 18.546875 47.265625 
Q 14.109375 46.140625 10.015625 43.890625 
L 10.015625 52.203125 
Q 14.9375 54.109375 19.578125 55.046875 
Q 24.21875 56 28.609375 56 
Q 40.484375 56 46.34375 49.84375 
Q 52.203125 43.703125 52.203125 31.203125 
z
" id="DejaVuSans-97"/>
     <path d="M 45.40625 46.390625 
L 45.40625 75.984375 
L 54.390625 75.984375 
L 54.390625 0 
L 45.40625 0 
L 45.40625 8.203125 
Q 42.578125 3.328125 38.25 0.953125 
Q 33.9375 -1.421875 27.875 -1.421875 
Q 17.96875 -1.421875 11.734375 6.484375 
Q 5.515625 14.40625 5.515625 27.296875 
Q 5.515625 40.1875 11.734375 48.09375 
Q 17.96875 56 27.875 56 
Q 33.9375 56 38.25 53.625 
Q 42.578125 51.265625 45.40625 46.390625 
z
M 14.796875 27.296875 
Q 14.796875 17.390625 18.875 11.75 
Q 22.953125 6.109375 30.078125 6.109375 
Q 37.203125 6.109375 41.296875 11.75 
Q 45.40625 17.390625 45.40625 27.296875 
Q 45.40625 37.203125 41.296875 42.84375 
Q 37.203125 48.484375 30.078125 48.484375 
Q 22.953125 48.484375 18.875 42.84375 
Q 14.796875 37.203125 14.796875 27.296875 
z
" id="DejaVuSans-100"/>
    </defs>
    <g transform="translate(295.155341 71.76)scale(0.12 -0.12)">
     <use xlink:href="#DejaVuSans-87"/>
     <use x="98.798828" xlink:href="#DejaVuSans-111"/>
     <use x="159.980469" xlink:href="#DejaVuSans-114"/>
     <use x="201.09375" xlink:href="#DejaVuSans-107"/>
     <use x="259.003906" xlink:href="#DejaVuSans-32"/>
     <use x="290.791016" xlink:href="#DejaVuSans-97"/>
     <use x="352.070312" xlink:href="#DejaVuSans-110"/>
     <use x="415.449219" xlink:href="#DejaVuSans-100"/>
     <use x="478.925781" xlink:href="#DejaVuSans-32"/>
     <use x="510.712891" xlink:href="#DejaVuSans-69"/>
     <use x="573.896484" xlink:href="#DejaVuSans-110"/>
     <use x="637.275391" xlink:href="#DejaVuSans-101"/>
     <use x="698.798828" xlink:href="#DejaVuSans-114"/>
     <use x="739.896484" xlink:href="#DejaVuSans-103"/>
     <use x="803.373047" xlink:href="#DejaVuSans-121"/>
    </g>
   </g>
   <g id="legend_1">
    <g id="patch_7">
     <path d="M 406.791619 571.72 
L 542.818182 571.72 
Q 544.818182 571.72 544.818182 569.72 
L 544.818182 526.4075 
Q 544.818182 524.4075 542.818182 524.4075 
L 406.791619 524.4075 
Q 404.791619 524.4075 404.791619 526.4075 
L 404.791619 569.72 
Q 404.791619 571.72 406.791619 571.72 
z
" style="fill:#ffffff;opacity:0.8;stroke:#cccccc;stroke-linejoin:miter;"/>
    </g>
    <g id="line2d_19">
     <path d="M 408.791619 532.505938 
L 428.791619 532.505938 
" style="fill:none;stroke:#ff0000;stroke-dasharray:5.55,2.4;stroke-dashoffset:0;stroke-width:1.5;"/>
    </g>
    <g id="line2d_20"/>
    <g id="text_19">
     <!-- Total Energy -->
     <defs>
      <path d="M 18.3125 70.21875 
L 18.3125 54.6875 
L 36.8125 54.6875 
L 36.8125 47.703125 
L 18.3125 47.703125 
L 18.3125 18.015625 
Q 18.3125 11.328125 20.140625 9.421875 
Q 21.96875 7.515625 27.59375 7.515625 
L 36.8125 7.515625 
L 36.8125 0 
L 27.59375 0 
Q 17.1875 0 13.234375 3.875 
Q 9.28125 7.765625 9.28125 18.015625 
L 9.28125 47.703125 
L 2.6875 47.703125 
L 2.6875 54.6875 
L 9.28125 54.6875 
L 9.28125 70.21875 
z
" id="DejaVuSans-116"/>
      <path d="M 9.421875 75.984375 
L 18.40625 75.984375 
L 18.40625 0 
L 9.421875 0 
z
" id="DejaVuSans-108"/>
     </defs>
     <g transform="translate(436.791619 536.005938)scale(0.1 -0.1)">
      <use xlink:href="#DejaVuSans-84"/>
      <use x="60.818359" xlink:href="#DejaVuSans-111"/>
      <use x="122" xlink:href="#DejaVuSans-116"/>
      <use x="161.208984" xlink:href="#DejaVuSans-97"/>
      <use x="222.488281" xlink:href="#DejaVuSans-108"/>
      <use x="250.271484" xlink:href="#DejaVuSans-32"/>
      <use x="282.058594" xlink:href="#DejaVuSans-69"/>
      <use x="345.242188" xlink:href="#DejaVuSans-110"/>
      <use x="408.621094" xlink:href="#DejaVuSans-101"/>
      <use x="470.144531" xlink:href="#DejaVuSans-114"/>
      <use x="511.242188" xlink:href="#DejaVuSans-103"/>
      <use x="574.71875" xlink:href="#DejaVuSans-121"/>
     </g>
    </g>
    <g id="line2d_21">
     <path d="M 408.791619 547.184062 
L 428.791619 547.184062 
" style="fill:none;stroke:#0000ff;stroke-dasharray:5.55,2.4;stroke-dashoffset:0;stroke-width:1.5;"/>
    </g>
    <g id="line2d_22"/>
    <g id="text_20">
     <!-- Total_Work -->
     <defs>
      <path d="M 50.984375 -16.609375 
L 50.984375 -23.578125 
L -0.984375 -23.578125 
L -0.984375 -16.609375 
z
" id="DejaVuSans-95"/>
     </defs>
     <g transform="translate(436.791619 550.684062)scale(0.1 -0.1)">
      <use xlink:href="#DejaVuSans-84"/>
      <use x="60.818359" xlink:href="#DejaVuSans-111"/>
      <use x="122" xlink:href="#DejaVuSans-116"/>
      <use x="161.208984" xlink:href="#DejaVuSans-97"/>
      <use x="222.488281" xlink:href="#DejaVuSans-108"/>
      <use x="250.271484" xlink:href="#DejaVuSans-95"/>
      <use x="300.271484" xlink:href="#DejaVuSans-87"/>
      <use x="399.070312" xlink:href="#DejaVuSans-111"/>
      <use x="460.251953" xlink:href="#DejaVuSans-114"/>
      <use x="501.365234" xlink:href="#DejaVuSans-107"/>
     </g>
    </g>
    <g id="line2d_23">
     <path d="M 408.791619 562.140313 
L 428.791619 562.140313 
" style="fill:none;stroke:#4f0066;stroke-linecap:square;stroke-width:1.5;"/>
    </g>
    <g id="line2d_24"/>
    <g id="text_21">
     <!-- Total Energy + Work -->
     <defs>
      <path d="M 46 62.703125 
L 46 35.5 
L 73.1875 35.5 
L 73.1875 27.203125 
L 46 27.203125 
L 46 0 
L 37.796875 0 
L 37.796875 27.203125 
L 10.59375 27.203125 
L 10.59375 35.5 
L 37.796875 35.5 
L 37.796875 62.703125 
z
" id="DejaVuSans-43"/>
     </defs>
     <g transform="translate(436.791619 565.640313)scale(0.1 -0.1)">
      <use xlink:href="#DejaVuSans-84"/>
      <use x="60.818359" xlink:href="#DejaVuSans-111"/>
      <use x="122" xlink:href="#DejaVuSans-116"/>
      <use x="161.208984" xlink:href="#DejaVuSans-97"/>
      <use x="222.488281" xlink:href="#DejaVuSans-108"/>
      <use x="250.271484" xlink:href="#DejaVuSans-32"/>
      <use x="282.058594" xlink:href="#DejaVuSans-69"/>
      <use x="345.242188" xlink:href="#DejaVuSans-110"/>
      <use x="408.621094" xlink:href="#DejaVuSans-101"/>
      <use x="470.144531" xlink:href="#DejaVuSans-114"/>
      <use x="511.242188" xlink:href="#DejaVuSans-103"/>
      <use x="574.71875" xlink:href="#DejaVuSans-121"/>
      <use x="633.898438" xlink:href="#DejaVuSans-32"/>
      <use x="665.685547" xlink:href="#DejaVuSans-43"/>
      <use x="749.474609" xlink:href="#DejaVuSans-32"/>
      <use x="781.261719" xlink:href="#DejaVuSans-87"/>
      <use x="880.060547" xlink:href="#DejaVuSans-111"/>
      <use x="941.242188" xlink:href="#DejaVuSans-114"/>
      <use x="982.355469" xlink:href="#DejaVuSans-107"/>
     </g>
    </g>
   </g>
  </g>
  <g id="axes_2">
   <g id="patch_8">
    <path d="M 630.981818 576.72 
L 1036.8 576.72 
L 1036.8 77.76 
L 630.981818 77.76 
z
" style="fill:#ffffff;"/>
   </g>
   <g id="matplotlib.axis_3">
    <g id="xtick_7">
     <g id="line2d_25">
      <g>
       <use style="stroke:#000000;stroke-width:0.8;" x="649.428099" xlink:href="#mae26e8f62e" y="576.72"/>
      </g>
     </g>
     <g id="text_22">
      <!-- 0.0 -->
      <g transform="translate(641.476537 591.318438)scale(0.1 -0.1)">
       <use xlink:href="#DejaVuSans-48"/>
       <use x="63.623047" xlink:href="#DejaVuSans-46"/>
       <use x="95.410156" xlink:href="#DejaVuSans-48"/>
      </g>
     </g>
    </g>
    <g id="xtick_8">
     <g id="line2d_26">
      <g>
       <use style="stroke:#000000;stroke-width:0.8;" x="723.213223" xlink:href="#mae26e8f62e" y="576.72"/>
      </g>
     </g>
     <g id="text_23">
      <!-- 0.2 -->
      <g transform="translate(715.261661 591.318438)scale(0.1 -0.1)">
       <use xlink:href="#DejaVuSans-48"/>
       <use x="63.623047" xlink:href="#DejaVuSans-46"/>
       <use x="95.410156" xlink:href="#DejaVuSans-50"/>
      </g>
     </g>
    </g>
    <g id="xtick_9">
     <g id="line2d_27">
      <g>
       <use style="stroke:#000000;stroke-width:0.8;" x="796.998347" xlink:href="#mae26e8f62e" y="576.72"/>
      </g>
     </g>
     <g id="text_24">
      <!-- 0.4 -->
      <g transform="translate(789.046785 591.318438)scale(0.1 -0.1)">
       <use xlink:href="#DejaVuSans-48"/>
       <use x="63.623047" xlink:href="#DejaVuSans-46"/>
       <use x="95.410156" xlink:href="#DejaVuSans-52"/>
      </g>
     </g>
    </g>
    <g id="xtick_10">
     <g id="line2d_28">
      <g>
       <use style="stroke:#000000;stroke-width:0.8;" x="870.783471" xlink:href="#mae26e8f62e" y="576.72"/>
      </g>
     </g>
     <g id="text_25">
      <!-- 0.6 -->
      <g transform="translate(862.831909 591.318438)scale(0.1 -0.1)">
       <use xlink:href="#DejaVuSans-48"/>
       <use x="63.623047" xlink:href="#DejaVuSans-46"/>
       <use x="95.410156" xlink:href="#DejaVuSans-54"/>
      </g>
     </g>
    </g>
    <g id="xtick_11">
     <g id="line2d_29">
      <g>
       <use style="stroke:#000000;stroke-width:0.8;" x="944.568595" xlink:href="#mae26e8f62e" y="576.72"/>
      </g>
     </g>
     <g id="text_26">
      <!-- 0.8 -->
      <g transform="translate(936.617033 591.318438)scale(0.1 -0.1)">
       <use xlink:href="#DejaVuSans-48"/>
       <use x="63.623047" xlink:href="#DejaVuSans-46"/>
       <use x="95.410156" xlink:href="#DejaVuSans-56"/>
      </g>
     </g>
    </g>
    <g id="xtick_12">
     <g id="line2d_30">
      <g>
       <use style="stroke:#000000;stroke-width:0.8;" x="1018.353719" xlink:href="#mae26e8f62e" y="576.72"/>
      </g>
     </g>
     <g id="text_27">
      <!-- 1.0 -->
      <g transform="translate(1010.402157 591.318438)scale(0.1 -0.1)">
       <use xlink:href="#DejaVuSans-49"/>
       <use x="63.623047" xlink:href="#DejaVuSans-46"/>
       <use x="95.410156" xlink:href="#DejaVuSans-48"/>
      </g>
     </g>
    </g>
    <g id="text_28">
     <!-- Time (~$10^{-14}$s) -->
     <g transform="translate(795.240909 605.718438)scale(0.1 -0.1)">
      <use transform="translate(0 0.684375)" xlink:href="#DejaVuSans-84"/>
      <use transform="translate(61.083984 0.684375)" xlink:href="#DejaVuSans-105"/>
      <use transform="translate(88.867188 0.684375)" xlink:href="#DejaVuSans-109"/>
      <use transform="translate(186.279297 0.684375)" xlink:href="#DejaVuSans-101"/>
      <use transform="translate(247.802734 0.684375)" xlink:href="#DejaVuSans-32"/>
      <use transform="translate(279.589844 0.684375)" xlink:href="#DejaVuSans-40"/>
      <use transform="translate(318.603516 0.684375)" xlink:href="#DejaVuSans-126"/>
      <use transform="translate(402.392578 0.684375)" xlink:href="#DejaVuSans-49"/>
      <use transform="translate(466.015625 0.684375)" xlink:href="#DejaVuSans-48"/>
      <use transform="translate(530.595703 38.965625)scale(0.7)" xlink:href="#DejaVuSans-8722"/>
      <use transform="translate(589.248047 38.965625)scale(0.7)" xlink:href="#DejaVuSans-49"/>
      <use transform="translate(633.78418 38.965625)scale(0.7)" xlink:href="#DejaVuSans-52"/>
      <use transform="translate(681.054688 0.684375)" xlink:href="#DejaVuSans-115"/>
      <use transform="translate(733.154297 0.684375)" xlink:href="#DejaVuSans-41"/>
     </g>
    </g>
   </g>
   <g id="matplotlib.axis_4">
    <g id="ytick_10">
     <g id="line2d_31">
      <g>
       <use style="stroke:#000000;stroke-width:0.8;" x="630.981818" xlink:href="#m07e2fd5278" y="554.041799"/>
      </g>
     </g>
    </g>
    <g id="ytick_11">
     <g id="line2d_32">
      <g>
       <use style="stroke:#000000;stroke-width:0.8;" x="630.981818" xlink:href="#m07e2fd5278" y="496.516412"/>
      </g>
     </g>
    </g>
    <g id="ytick_12">
     <g id="line2d_33">
      <g>
       <use style="stroke:#000000;stroke-width:0.8;" x="630.981818" xlink:href="#m07e2fd5278" y="438.991024"/>
      </g>
     </g>
    </g>
    <g id="ytick_13">
     <g id="line2d_34">
      <g>
       <use style="stroke:#000000;stroke-width:0.8;" x="630.981818" xlink:href="#m07e2fd5278" y="381.465636"/>
      </g>
     </g>
    </g>
    <g id="ytick_14">
     <g id="line2d_35">
      <g>
       <use style="stroke:#000000;stroke-width:0.8;" x="630.981818" xlink:href="#m07e2fd5278" y="323.940249"/>
      </g>
     </g>
    </g>
    <g id="ytick_15">
     <g id="line2d_36">
      <g>
       <use style="stroke:#000000;stroke-width:0.8;" x="630.981818" xlink:href="#m07e2fd5278" y="266.414861"/>
      </g>
     </g>
    </g>
    <g id="ytick_16">
     <g id="line2d_37">
      <g>
       <use style="stroke:#000000;stroke-width:0.8;" x="630.981818" xlink:href="#m07e2fd5278" y="208.889474"/>
      </g>
     </g>
    </g>
    <g id="ytick_17">
     <g id="line2d_38">
      <g>
       <use style="stroke:#000000;stroke-width:0.8;" x="630.981818" xlink:href="#m07e2fd5278" y="151.364086"/>
      </g>
     </g>
    </g>
    <g id="ytick_18">
     <g id="line2d_39">
      <g>
       <use style="stroke:#000000;stroke-width:0.8;" x="630.981818" xlink:href="#m07e2fd5278" y="93.838699"/>
      </g>
     </g>
    </g>
    <g id="text_29">
     <!-- Energy (eV) -->
     <g transform="translate(624.902131 356.820469)rotate(-90)scale(0.1 -0.1)">
      <use xlink:href="#DejaVuSans-69"/>
      <use x="63.183594" xlink:href="#DejaVuSans-110"/>
      <use x="126.5625" xlink:href="#DejaVuSans-101"/>
      <use x="188.085938" xlink:href="#DejaVuSans-114"/>
      <use x="229.183594" xlink:href="#DejaVuSans-103"/>
      <use x="292.660156" xlink:href="#DejaVuSans-121"/>
      <use x="351.839844" xlink:href="#DejaVuSans-32"/>
      <use x="383.626953" xlink:href="#DejaVuSans-40"/>
      <use x="422.640625" xlink:href="#DejaVuSans-101"/>
      <use x="484.164062" xlink:href="#DejaVuSans-86"/>
      <use x="552.572266" xlink:href="#DejaVuSans-41"/>
     </g>
    </g>
   </g>
   <g id="line2d_40">
    <path clip-path="url(#pbb35358e02)" d="M 649.428099 101.030656 
L 653.117355 102.172493 
L 656.806612 104.05959 
L 660.495868 106.672787 
L 664.185124 109.987847 
L 667.87438 113.975761 
L 671.563636 118.6031 
L 675.252893 123.832401 
L 678.942149 129.62259 
L 682.631405 135.929429 
L 686.320661 142.705997 
L 690.009917 149.903176 
L 693.699174 157.470158 
L 697.38843 165.35496 
L 701.077686 173.504938 
L 704.766942 181.86729 
L 708.456198 190.389564 
L 712.145455 199.020136 
L 715.834711 207.708675 
L 719.523967 216.406578 
L 723.213223 225.067384 
L 726.902479 233.647142 
L 730.591736 242.104755 
L 734.280992 250.402275 
L 737.970248 258.505161 
L 741.659504 266.382493 
L 745.34876 274.00714 
L 749.038017 281.355881 
L 752.727273 288.409487 
L 756.416529 295.152749 
L 760.105785 301.57447 
L 763.795041 307.667405 
L 767.484298 313.428167 
L 771.173554 318.857093 
L 774.86281 323.958068 
L 778.552066 328.738322 
L 782.241322 333.208189 
L 785.930579 337.380848 
L 789.619835 341.272028 
L 793.309091 344.899705 
L 796.998347 348.283774 
L 800.687603 351.44571 
L 804.37686 354.408226 
L 808.066116 357.194917 
L 811.755372 359.829912 
L 815.444628 362.337522 
L 819.133884 364.741902 
L 822.82314 367.066717 
L 826.512397 369.334825 
L 830.201653 371.56798 
L 833.890909 373.786545 
L 837.580165 376.009248 
L 841.269421 378.252944 
L 844.958678 380.532428 
L 848.647934 382.860258 
L 852.33719 385.24662 
L 856.026446 387.699227 
L 859.715702 390.223258 
L 863.404959 392.821326 
L 867.094215 395.493487 
L 870.783471 398.237282 
L 874.472727 401.047807 
L 878.161983 403.917827 
L 881.85124 406.837914 
L 885.540496 409.796614 
L 889.229752 412.780637 
L 892.919008 415.775073 
L 896.608264 418.763618 
L 900.297521 421.728823 
L 903.986777 424.652345 
L 907.676033 427.515217 
L 911.365289 430.298103 
L 915.054545 432.981569 
L 918.743802 435.546341 
L 922.433058 437.973555 
L 926.122314 440.245007 
L 929.81157 442.343376 
L 933.500826 444.252444 
L 937.190083 445.957296 
L 940.879339 447.444495 
L 944.568595 448.702247 
L 948.257851 449.720537 
L 951.947107 450.491247 
L 955.636364 451.00825 
L 959.32562 451.267479 
L 963.014876 451.266975 
L 966.704132 451.006908 
L 970.393388 450.489581 
L 974.082645 449.719402 
L 977.771901 448.702842 
L 981.461157 447.448368 
L 985.150413 445.966356 
L 988.839669 444.268985 
L 992.528926 442.370112 
L 996.218182 440.285139 
L 999.907438 438.03085 
L 1003.596694 435.625251 
L 1007.28595 433.087385 
L 1010.975207 430.437156 
L 1014.664463 427.695133 
L 1018.353719 424.882347 
" style="fill:none;stroke:#bf00bf;stroke-linecap:square;stroke-width:1.5;"/>
   </g>
   <g id="line2d_41">
    <path clip-path="url(#pbb35358e02)" d="M 649.428099 553.660793 
L 653.117355 552.531311 
L 656.806612 550.677502 
L 660.495868 548.128409 
L 664.185124 544.91763 
L 667.87438 541.082941 
L 671.563636 536.665888 
L 675.252893 531.711346 
L 678.942149 526.267054 
L 682.631405 520.383123 
L 686.320661 514.11154 
L 690.009917 507.505653 
L 693.699174 500.619653 
L 697.38843 493.508061 
L 701.077686 486.225221 
L 704.766942 478.824804 
L 708.456198 471.35933 
L 712.145455 463.879719 
L 715.834711 456.43486 
L 719.523967 449.071217 
L 723.213223 441.832472 
L 726.902479 434.759205 
L 730.591736 427.888611 
L 734.280992 421.254266 
L 737.970248 414.885936 
L 741.659504 408.80943 
L 745.34876 403.0465 
L 749.038017 397.614788 
L 752.727273 392.527818 
L 756.416529 387.795032 
L 760.105785 383.421865 
L 763.795041 379.409871 
L 767.484298 375.756875 
L 771.173554 372.457169 
L 774.86281 369.501736 
L 778.552066 366.878506 
L 782.241322 364.57264 
L 785.930579 362.566825 
L 789.619835 360.841603 
L 793.309091 359.375702 
L 796.998347 358.146382 
L 800.687603 357.129788 
L 804.37686 356.301303 
L 808.066116 355.6359 
L 811.755372 355.108497 
L 815.444628 354.694285 
L 819.133884 354.369063 
L 822.82314 354.109541 
L 826.512397 353.893636 
L 830.201653 353.70074 
L 833.890909 353.511962 
L 837.580165 353.310349 
L 841.269421 353.081066 
L 844.958678 352.811557 
L 848.647934 352.491668 
L 852.33719 352.113727 
L 856.026446 351.672603 
L 859.715702 351.165725 
L 863.404959 350.593056 
L 867.094215 349.957047 
L 870.783471 349.262548 
L 874.472727 348.516693 
L 878.161983 347.728745 
L 881.85124 346.909925 
L 885.540496 346.073222 
L 889.229752 345.233155 
L 892.919008 344.40555 
L 896.608264 343.607288 
L 900.297521 342.856043 
L 903.986777 342.170013 
L 907.676033 341.567665 
L 911.365289 341.06746 
L 915.054545 340.687594 
L 918.743802 340.445755 
L 922.433058 340.358875 
L 926.122314 340.44291 
L 929.81157 340.712626 
L 933.500826 341.181413 
L 937.190083 341.861112 
L 940.879339 342.761865 
L 944.568595 343.891989 
L 948.257851 345.25787 
L 951.947107 346.863883 
L 955.636364 348.712339 
L 959.32562 350.803452 
L 963.014876 353.135326 
L 966.704132 355.70397 
L 970.393388 358.503338 
L 974.082645 361.525393 
L 977.771901 364.760179 
L 981.461157 368.195922 
L 985.150413 371.819148 
L 988.839669 375.614821 
L 992.528926 379.566486 
L 996.218182 383.656439 
L 999.907438 387.865893 
L 1003.596694 392.175163 
L 1007.28595 396.563861 
L 1010.975207 401.011088 
L 1014.664463 405.495633 
L 1018.353719 409.996174 
" style="fill:none;stroke:#00bfbf;stroke-linecap:square;stroke-width:1.5;"/>
   </g>
   <g id="patch_9">
    <path d="M 630.981818 576.72 
L 630.981818 77.76 
" style="fill:none;stroke:#000000;stroke-linecap:square;stroke-linejoin:miter;stroke-width:0.8;"/>
   </g>
   <g id="patch_10">
    <path d="M 1036.8 576.72 
L 1036.8 77.76 
" style="fill:none;stroke:#000000;stroke-linecap:square;stroke-linejoin:miter;stroke-width:0.8;"/>
   </g>
   <g id="patch_11">
    <path d="M 630.981818 576.72 
L 1036.8 576.72 
" style="fill:none;stroke:#000000;stroke-linecap:square;stroke-linejoin:miter;stroke-width:0.8;"/>
   </g>
   <g id="patch_12">
    <path d="M 630.981818 77.76 
L 1036.8 77.76 
" style="fill:none;stroke:#000000;stroke-linecap:square;stroke-linejoin:miter;stroke-width:0.8;"/>
   </g>
   <g id="text_30">
    <!-- Potential and Kinetic Energy -->
    <defs>
     <path d="M 19.671875 64.796875 
L 19.671875 37.40625 
L 32.078125 37.40625 
Q 38.96875 37.40625 42.71875 40.96875 
Q 46.484375 44.53125 46.484375 51.125 
Q 46.484375 57.671875 42.71875 61.234375 
Q 38.96875 64.796875 32.078125 64.796875 
z
M 9.8125 72.90625 
L 32.078125 72.90625 
Q 44.34375 72.90625 50.609375 67.359375 
Q 56.890625 61.8125 56.890625 51.125 
Q 56.890625 40.328125 50.609375 34.8125 
Q 44.34375 29.296875 32.078125 29.296875 
L 19.671875 29.296875 
L 19.671875 0 
L 9.8125 0 
z
" id="DejaVuSans-80"/>
     <path d="M 9.8125 72.90625 
L 19.671875 72.90625 
L 19.671875 42.09375 
L 52.390625 72.90625 
L 65.09375 72.90625 
L 28.90625 38.921875 
L 67.671875 0 
L 54.6875 0 
L 19.671875 35.109375 
L 19.671875 0 
L 9.8125 0 
z
" id="DejaVuSans-75"/>
     <path d="M 48.78125 52.59375 
L 48.78125 44.1875 
Q 44.96875 46.296875 41.140625 47.34375 
Q 37.3125 48.390625 33.40625 48.390625 
Q 24.65625 48.390625 19.8125 42.84375 
Q 14.984375 37.3125 14.984375 27.296875 
Q 14.984375 17.28125 19.8125 11.734375 
Q 24.65625 6.203125 33.40625 6.203125 
Q 37.3125 6.203125 41.140625 7.25 
Q 44.96875 8.296875 48.78125 10.40625 
L 48.78125 2.09375 
Q 45.015625 0.34375 40.984375 -0.53125 
Q 36.96875 -1.421875 32.421875 -1.421875 
Q 20.0625 -1.421875 12.78125 6.34375 
Q 5.515625 14.109375 5.515625 27.296875 
Q 5.515625 40.671875 12.859375 48.328125 
Q 20.21875 56 33.015625 56 
Q 37.15625 56 41.109375 55.140625 
Q 45.0625 54.296875 48.78125 52.59375 
z
" id="DejaVuSans-99"/>
    </defs>
    <g transform="translate(748.860597 71.76)scale(0.12 -0.12)">
     <use xlink:href="#DejaVuSans-80"/>
     <use x="60.255859" xlink:href="#DejaVuSans-111"/>
     <use x="121.4375" xlink:href="#DejaVuSans-116"/>
     <use x="160.646484" xlink:href="#DejaVuSans-101"/>
     <use x="222.169922" xlink:href="#DejaVuSans-110"/>
     <use x="285.548828" xlink:href="#DejaVuSans-116"/>
     <use x="324.757812" xlink:href="#DejaVuSans-105"/>
     <use x="352.541016" xlink:href="#DejaVuSans-97"/>
     <use x="413.820312" xlink:href="#DejaVuSans-108"/>
     <use x="441.603516" xlink:href="#DejaVuSans-32"/>
     <use x="473.390625" xlink:href="#DejaVuSans-97"/>
     <use x="534.669922" xlink:href="#DejaVuSans-110"/>
     <use x="598.048828" xlink:href="#DejaVuSans-100"/>
     <use x="661.525391" xlink:href="#DejaVuSans-32"/>
     <use x="693.3125" xlink:href="#DejaVuSans-75"/>
     <use x="758.888672" xlink:href="#DejaVuSans-105"/>
     <use x="786.671875" xlink:href="#DejaVuSans-110"/>
     <use x="850.050781" xlink:href="#DejaVuSans-101"/>
     <use x="911.574219" xlink:href="#DejaVuSans-116"/>
     <use x="950.783203" xlink:href="#DejaVuSans-105"/>
     <use x="978.566406" xlink:href="#DejaVuSans-99"/>
     <use x="1033.546875" xlink:href="#DejaVuSans-32"/>
     <use x="1065.333984" xlink:href="#DejaVuSans-69"/>
     <use x="1128.517578" xlink:href="#DejaVuSans-110"/>
     <use x="1191.896484" xlink:href="#DejaVuSans-101"/>
     <use x="1253.419922" xlink:href="#DejaVuSans-114"/>
     <use x="1294.517578" xlink:href="#DejaVuSans-103"/>
     <use x="1357.994141" xlink:href="#DejaVuSans-121"/>
    </g>
   </g>
   <g id="legend_2">
    <g id="patch_13">
     <path d="M 915.276562 115.11625 
L 1029.8 115.11625 
Q 1031.8 115.11625 1031.8 113.11625 
L 1031.8 84.76 
Q 1031.8 82.76 1029.8 82.76 
L 915.276562 82.76 
Q 913.276562 82.76 913.276562 84.76 
L 913.276562 113.11625 
Q 913.276562 115.11625 915.276562 115.11625 
z
" style="fill:#ffffff;opacity:0.8;stroke:#cccccc;stroke-linejoin:miter;"/>
    </g>
    <g id="line2d_42">
     <path d="M 917.276562 90.858437 
L 937.276562 90.858437 
" style="fill:none;stroke:#bf00bf;stroke-linecap:square;stroke-width:1.5;"/>
    </g>
    <g id="line2d_43"/>
    <g id="text_31">
     <!-- Potential Energy -->
     <g transform="translate(945.276562 94.358437)scale(0.1 -0.1)">
      <use xlink:href="#DejaVuSans-80"/>
      <use x="60.255859" xlink:href="#DejaVuSans-111"/>
      <use x="121.4375" xlink:href="#DejaVuSans-116"/>
      <use x="160.646484" xlink:href="#DejaVuSans-101"/>
      <use x="222.169922" xlink:href="#DejaVuSans-110"/>
      <use x="285.548828" xlink:href="#DejaVuSans-116"/>
      <use x="324.757812" xlink:href="#DejaVuSans-105"/>
      <use x="352.541016" xlink:href="#DejaVuSans-97"/>
      <use x="413.820312" xlink:href="#DejaVuSans-108"/>
      <use x="441.603516" xlink:href="#DejaVuSans-32"/>
      <use x="473.390625" xlink:href="#DejaVuSans-69"/>
      <use x="536.574219" xlink:href="#DejaVuSans-110"/>
      <use x="599.953125" xlink:href="#DejaVuSans-101"/>
      <use x="661.476562" xlink:href="#DejaVuSans-114"/>
      <use x="702.574219" xlink:href="#DejaVuSans-103"/>
      <use x="766.050781" xlink:href="#DejaVuSans-121"/>
     </g>
    </g>
    <g id="line2d_44">
     <path d="M 917.276562 105.536562 
L 937.276562 105.536562 
" style="fill:none;stroke:#00bfbf;stroke-linecap:square;stroke-width:1.5;"/>
    </g>
    <g id="line2d_45"/>
    <g id="text_32">
     <!-- Kinetic Energy -->
     <g transform="translate(945.276562 109.036562)scale(0.1 -0.1)">
      <use xlink:href="#DejaVuSans-75"/>
      <use x="65.576172" xlink:href="#DejaVuSans-105"/>
      <use x="93.359375" xlink:href="#DejaVuSans-110"/>
      <use x="156.738281" xlink:href="#DejaVuSans-101"/>
      <use x="218.261719" xlink:href="#DejaVuSans-116"/>
      <use x="257.470703" xlink:href="#DejaVuSans-105"/>
      <use x="285.253906" xlink:href="#DejaVuSans-99"/>
      <use x="340.234375" xlink:href="#DejaVuSans-32"/>
      <use x="372.021484" xlink:href="#DejaVuSans-69"/>
      <use x="435.205078" xlink:href="#DejaVuSans-110"/>
      <use x="498.583984" xlink:href="#DejaVuSans-101"/>
      <use x="560.107422" xlink:href="#DejaVuSans-114"/>
      <use x="601.205078" xlink:href="#DejaVuSans-103"/>
      <use x="664.681641" xlink:href="#DejaVuSans-121"/>
     </g>
    </g>
   </g>
  </g>
 </g>
 <defs>
  <clipPath id="p5e450f5dd6">
   <rect height="498.96" width="405.818182" x="144" y="77.76"/>
  </clipPath>
  <clipPath id="pbb35358e02">
   <rect height="498.96" width="405.818182" x="630.981818" y="77.76"/>
  </clipPath>
 </defs>
</svg>
